<?xml version="1.0" encoding="UTF-8"?>
<svg xmlns="http://www.w3.org/2000/svg" xmlns:xlink="http://www.w3.org/1999/xlink" width="162pt" height="45.749998pt" viewBox="0 0 162 45.749998" version="1.2">
<defs>
<clipPath id="clip1">
  <path d="M 1 1 L 161 1 L 161 45.5 L 1 45.5 Z M 1 1 "/>
</clipPath>
</defs>
<g id="surface1">
<g clip-path="url(#clip1)" clip-rule="nonzero">
<path style=" stroke:none;fill-rule:nonzero;fill:#7C7AC4;fill-opacity:1;" d="M 3.03125 44.175781 C 2.949219 44.0625 2.9375 43.9375 2.988281 43.808594 C 2.667969 43.4375 1.925781 43.722656 1.800781 43.042969 C 0.714844 41.964844 1.128906 40.863281 1.773438 39.769531 C 3.585938 36.71875 5.859375 34.023438 8.296875 31.464844 C 17.042969 22.308594 27.296875 15.402344 38.878906 10.246094 C 59.101562 1.234375 79.96875 -0.0117188 101.367188 4.390625 C 111.285156 6.429688 120.664062 10.160156 129.867188 14.332031 C 135.277344 16.78125 140.519531 19.546875 145.832031 22.191406 C 145.984375 22.367188 146.125 22.546875 146.273438 22.726562 C 146.539062 22.738281 146.828125 22.828125 147.042969 22.734375 C 147.042969 22.734375 147.042969 22.734375 147.050781 22.726562 C 147.21875 22.648438 147.105469 22.410156 146.914062 22.316406 C 145.882812 20.226562 144.445312 18.425781 142.910156 16.703125 C 141.859375 15.523438 140.929688 14.300781 140.382812 12.808594 C 138.101562 10.285156 138.027344 7.585938 140.054688 5.234375 C 146.382812 7.675781 150.242188 12.691406 153.75 18.109375 C 155.054688 20.125 156.492188 22.046875 157.902344 23.992188 C 161.277344 28.644531 160.523438 28.160156 158.65625 32.449219 C 158.242188 33.40625 157.609375 34.253906 156.890625 35.03125 C 156.628906 35.316406 156.363281 35.554688 155.949219 35.554688 C 155.414062 36.621094 154.410156 36.632812 153.433594 36.597656 C 150.527344 36.492188 147.628906 36.347656 144.722656 36.214844 C 144.117188 36.550781 143.484375 36.449219 142.851562 36.316406 C 142.253906 36.675781 141.617188 36.5625 140.984375 36.480469 C 140.601562 36.800781 140.125 36.679688 139.691406 36.742188 C 133.789062 37.570312 128.070312 39.050781 122.617188 41.5 C 122.207031 41.683594 121.785156 41.832031 121.367188 42 C 120.871094 42.203125 120.308594 42.4375 119.917969 41.972656 C 119.617188 41.617188 119.703125 40.980469 119.964844 40.6875 C 121.121094 39.390625 121.292969 37.59375 122.300781 36.238281 C 122.75 35.636719 123.40625 35.269531 124.082031 34.902344 C 129.261719 32.070312 134.804688 30.234375 140.550781 28.957031 C 141.0625 28.84375 141.605469 28.808594 142.074219 28.59375 C 142.625 28.34375 142.46875 27.878906 142.195312 27.46875 C 141.597656 27.539062 141.175781 27.300781 140.902344 26.78125 C 140.347656 26.742188 139.808594 26.65625 139.527344 26.078125 C 139.390625 26.144531 139.300781 26.101562 139.261719 25.960938 C 138.730469 25.933594 138.242188 25.828125 137.953125 25.308594 C 137.597656 25.214844 137.21875 25.164062 136.886719 25.011719 C 133.21875 23.328125 129.578125 21.585938 125.894531 19.949219 C 122.546875 18.457031 119.160156 17.074219 115.789062 15.648438 C 114.851562 15.378906 113.910156 15.148438 112.992188 14.84375 C 104.03125 11.9375 94.859375 10.15625 85.441406 9.75 C 82.074219 9.605469 78.710938 9.566406 75.347656 9.480469 C 74.710938 9.839844 74.054688 9.695312 73.390625 9.566406 C 72.789062 9.921875 72.164062 9.796875 71.53125 9.679688 C 70.980469 10.058594 70.386719 9.898438 69.792969 9.839844 C 69.453125 10.125 69.078125 10.109375 68.691406 9.972656 C 68.558594 10.066406 68.429688 10.074219 68.292969 9.984375 C 67.910156 10.292969 67.4375 10.1875 67.007812 10.257812 C 64.886719 10.621094 62.707031 10.601562 60.625 11.230469 C 60.441406 11.054688 59.828125 10.96875 60.578125 10.652344 C 61.082031 10.4375 61.109375 10.285156 60.972656 10.160156 C 60.851562 10.054688 60.609375 9.964844 60.429688 9.875 C 53.761719 11.234375 47.335938 13.382812 41.050781 15.953125 C 40.488281 16.246094 39.921875 16.535156 39.363281 16.828125 C 36.011719 18.578125 32.652344 20.324219 29.300781 22.066406 C 29.234375 22.207031 29.140625 22.304688 29.019531 22.355469 C 28.9375 22.394531 28.847656 22.410156 28.746094 22.410156 C 28.636719 22.644531 28.453125 22.75 28.203125 22.746094 C 28.101562 22.984375 27.914062 23.089844 27.660156 23.078125 C 27.5625 23.324219 27.378906 23.429688 27.117188 23.417969 C 27.019531 23.664062 26.84375 23.78125 26.578125 23.765625 C 26.492188 24.015625 26.3125 24.128906 26.050781 24.109375 L 26.042969 24.117188 C 25.960938 24.359375 25.78125 24.480469 25.523438 24.460938 L 25.511719 24.46875 C 25.351562 24.59375 25.179688 24.710938 25 24.820312 L 24.980469 24.832031 C 24.898438 25.078125 24.730469 25.195312 24.46875 25.183594 L 24.449219 25.195312 C 24.367188 25.441406 24.199219 25.558594 23.9375 25.546875 L 23.917969 25.558594 C 23.917969 25.558594 23.914062 25.566406 23.914062 25.566406 C 23.914062 25.566406 23.917969 25.558594 23.917969 25.558594 C 23.84375 25.808594 23.667969 25.929688 23.40625 25.917969 L 23.394531 25.921875 C 23.316406 26.171875 23.144531 26.292969 22.882812 26.28125 L 22.875 26.285156 C 22.792969 26.539062 22.621094 26.664062 22.355469 26.65625 C 20.828125 27.890625 19.308594 29.125 17.78125 30.359375 C 16.785156 30.753906 16.101562 31.558594 15.332031 32.246094 C 15.359375 32.363281 15.414062 32.460938 15.480469 32.542969 C 15.582031 32.675781 15.710938 32.761719 15.890625 32.816406 C 15.367188 33.394531 14.882812 34.015625 14.125 34.320312 C 13.886719 34.390625 13.667969 34.492188 13.492188 34.683594 C 13.703125 34.5625 13.910156 34.4375 14.125 34.320312 C 13.996094 34.539062 13.84375 34.730469 13.566406 34.691406 C 13.492188 35.078125 13.25 35.308594 12.890625 35.453125 C 12.847656 35.703125 12.71875 35.859375 12.449219 35.871094 C 12.34375 36.109375 12.199219 36.292969 11.917969 36.324219 C 11.882812 36.449219 11.816406 36.542969 11.6875 36.597656 C 11.273438 37.253906 10.75 37.789062 10.09375 38.203125 C 9.777344 38.648438 9.472656 39.109375 8.953125 39.351562 C 8.859375 39.710938 8.566406 39.902344 8.296875 40.109375 C 7.058594 41.875 5.5 43.402344 4.550781 45.496094 C 4.03125 44.875 3.164062 44.984375 3.03125 44.175781 Z M 139.339844 25.519531 C 139.332031 25.519531 139.332031 25.519531 139.324219 25.519531 C 139.324219 25.511719 139.332031 25.511719 139.332031 25.511719 C 139.324219 25.511719 139.320312 25.519531 139.320312 25.519531 C 139.320312 25.519531 139.324219 25.519531 139.324219 25.519531 C 139.324219 25.523438 139.324219 25.53125 139.320312 25.535156 C 139.332031 25.53125 139.332031 25.523438 139.339844 25.519531 Z M 22.785156 24.832031 C 22.820312 24.796875 22.859375 24.761719 22.894531 24.722656 C 22.882812 24.730469 22.871094 24.738281 22.859375 24.742188 C 22.820312 24.765625 22.785156 24.789062 22.75 24.820312 C 22.757812 24.820312 22.769531 24.824219 22.785156 24.832031 Z M 29.265625 22.066406 C 29.265625 22.058594 29.257812 22.058594 29.257812 22.054688 C 29.246094 22.042969 29.238281 22.023438 29.226562 22.011719 L 29.1875 21.96875 L 29.257812 22.058594 C 29.257812 22.066406 29.253906 22.066406 29.253906 22.070312 C 29.253906 22.066406 29.257812 22.066406 29.265625 22.066406 Z M 22.566406 24.75 C 22.625 24.773438 22.683594 24.796875 22.738281 24.8125 C 22.773438 24.789062 22.808594 24.765625 22.847656 24.742188 C 22.761719 24.785156 22.667969 24.789062 22.566406 24.75 Z M 23.078125 24.570312 C 23.121094 24.539062 23.164062 24.511719 23.199219 24.480469 C 23.199219 24.472656 23.203125 24.472656 23.203125 24.46875 C 23.164062 24.503906 23.121094 24.539062 23.078125 24.570312 Z M 4.171875 40.257812 C 4.164062 40.257812 4.160156 40.265625 4.152344 40.265625 C 4.152344 40.265625 4.144531 40.269531 4.144531 40.269531 C 4.144531 40.277344 4.140625 40.285156 4.140625 40.289062 C 4.152344 40.285156 4.160156 40.269531 4.171875 40.257812 Z M 4.726562 39.476562 C 4.726562 39.464844 4.726562 39.453125 4.738281 39.449219 C 4.738281 39.460938 4.726562 39.472656 4.726562 39.476562 Z M 13.105469 34.726562 C 13.0625 34.707031 13.023438 34.683594 12.980469 34.648438 C 12.972656 34.675781 12.96875 34.707031 12.960938 34.738281 C 13.011719 34.730469 13.058594 34.730469 13.105469 34.726562 Z M 12.039062 36.042969 C 11.972656 36.089844 11.925781 36.164062 11.894531 36.253906 C 11.894531 36.253906 11.894531 36.253906 11.902344 36.253906 C 11.9375 36.167969 11.976562 36.097656 12.039062 36.042969 Z M 12.039062 36.042969 "/>
</g>
<path style=" stroke:none;fill-rule:nonzero;fill:#7C7AC4;fill-opacity:1;" d="M 24.964844 24.832031 C 25.136719 24.710938 25.308594 24.597656 25.476562 24.480469 C 25.394531 24.730469 25.21875 24.84375 24.964844 24.832031 Z M 24.964844 24.832031 "/>
</g>
</svg>
