<?xml version="1.0" encoding="UTF-8"?>
<svg xmlns="http://www.w3.org/2000/svg" xmlns:xlink="http://www.w3.org/1999/xlink" width="221.25pt" height="374.999989pt" viewBox="0 0 221.25 374.999989" version="1.2">
<defs>
<clipPath id="clip1">
  <path d="M 1 0.632812 L 220.503906 0.632812 L 220.503906 374 L 1 374 Z M 1 0.632812 "/>
</clipPath>
</defs>
<g id="surface1">
<g clip-path="url(#clip1)" clip-rule="nonzero">
<path style=" stroke:none;fill-rule:evenodd;fill:rgb(97.24884%,81.568909%,45.878601%);fill-opacity:1;" d="M 11.15625 190.144531 C 5.5625 169.089844 1.386719 151.109375 7.214844 129.359375 C 12.625 109.160156 28.609375 93.117188 46.710938 83.527344 C 88.78125 61.273438 141.6875 75.441406 166.984375 115.757812 C 177.875 133.105469 183.695312 154.996094 178.28125 175.199219 C 172.453125 196.945312 159.847656 210.433594 144.472656 225.867188 C 139.96875 230.390625 135.464844 234.910156 131.292969 239.75 C 129.367188 241.988281 127.308594 244.164062 125.296875 246.328125 C 122.949219 248.863281 120.605469 251.386719 118.296875 253.964844 C 115.015625 257.621094 108.289062 264.984375 106.488281 269.425781 C 105.445312 271.972656 104.597656 274.617188 103.742188 277.238281 C 99.554688 290.109375 94.550781 305.6875 77.503906 301.125 L 31.535156 288.800781 C 14.492188 284.238281 17.9375 268.234375 20.746094 255.003906 C 21.316406 252.296875 21.902344 249.59375 22.285156 246.851562 C 22.9375 242.109375 20.800781 232.367188 19.78125 227.554688 C 19.066406 224.191406 18.300781 220.828125 17.53125 217.453125 C 16.867188 214.574219 16.171875 211.660156 15.625 208.761719 C 14.441406 202.480469 12.792969 196.3125 11.15625 190.144531 Z M 111.429688 59.246094 L 126.015625 4.804688 C 129.941406 5.703125 133.832031 6.738281 137.679688 7.925781 L 123.085938 62.367188 C 119.261719 61.117188 115.371094 60.070312 111.429688 59.246094 Z M 25.519531 13.515625 C 29.269531 11.929688 33.03125 10.492188 36.832031 9.210938 L 51.453125 63.773438 C 47.691406 65.203125 43.972656 66.855469 40.320312 68.726562 Z M 74.8125 1.242188 C 78.835938 0.882812 82.851562 0.683594 86.871094 0.632812 L 86.871094 56.949219 C 82.851562 57.039062 78.828125 57.351562 74.820312 57.886719 Z M 173.667969 23.878906 C 177.121094 25.9375 180.5 28.128906 183.804688 30.441406 L 155.472656 79.503906 C 152.269531 77.027344 148.9375 74.75 145.503906 72.660156 Z M 212.703125 56.332031 C 215.351562 59.34375 217.898438 62.484375 220.347656 65.722656 L 179.929688 106.140625 C 177.703125 102.6875 175.308594 99.402344 172.753906 96.285156 Z M 33.527344 373.167969 C 29.539062 372.023438 26.46875 370.59375 24.683594 367.496094 C 23.042969 364.636719 20.082031 362.296875 17.886719 359.796875 C 17.386719 359.226562 17.320312 358.429688 17.722656 357.78125 C 18.121094 357.125 18.875 356.847656 19.609375 357.035156 L 36.660156 361.609375 L 53.714844 366.175781 C 54.449219 366.371094 54.949219 367.003906 54.976562 367.757812 C 55 368.519531 54.542969 369.179688 53.820312 369.421875 C 50.664062 370.496094 46.9375 371.042969 44.074219 372.703125 C 40.996094 374.484375 37.617188 374.183594 33.585938 373.1875 C 33.570312 373.175781 33.546875 373.167969 33.527344 373.167969 Z M 12.828125 336.089844 L 70.058594 351.429688 C 75.382812 352.855469 78.917969 357.082031 77.914062 360.816406 L 77.765625 361.378906 C 76.769531 365.109375 71.589844 366.996094 66.265625 365.570312 L 9.039062 350.238281 C 3.714844 348.804688 0.179688 344.582031 1.179688 340.851562 L 1.324219 340.289062 C 2.328125 336.554688 7.5 334.667969 12.828125 336.089844 Z M 17.683594 317.980469 L 74.902344 333.320312 C 80.230469 334.742188 83.765625 338.972656 82.769531 342.703125 L 82.617188 343.261719 C 81.617188 347 76.445312 348.886719 71.117188 347.460938 L 13.890625 332.128906 C 8.566406 330.695312 5.03125 326.472656 6.03125 322.746094 L 6.175781 322.1875 C 7.175781 318.449219 12.355469 316.558594 17.683594 317.980469 Z M 22.648438 299.441406 L 79.875 314.785156 C 85.195312 316.207031 88.738281 320.429688 87.734375 324.167969 L 87.585938 324.730469 C 86.589844 328.457031 81.410156 330.351562 76.082031 328.925781 L 18.855469 313.59375 C 13.535156 312.164062 9.992188 307.9375 10.996094 304.207031 L 11.144531 303.652344 C 12.148438 299.914062 17.320312 298.023438 22.648438 299.441406 Z M 34.601562 272.914062 C 34.972656 273.058594 35.425781 273.191406 35.691406 273.265625 L 81.671875 285.578125 C 81.941406 285.652344 82.398438 285.761719 82.785156 285.8125 C 84.902344 283.40625 87.578125 274.921875 88.441406 272.257812 C 89.421875 269.265625 90.398438 266.289062 91.578125 263.371094 C 94.449219 256.308594 101.179688 248.929688 106.324219 243.199219 C 108.691406 240.578125 111.09375 237.984375 113.507812 235.382812 C 115.390625 233.359375 117.296875 231.34375 119.101562 229.25 C 123.527344 224.117188 128.289062 219.304688 133.074219 214.507812 C 146.203125 201.335938 157.789062 189.511719 162.738281 171.035156 C 166.964844 155.28125 161.816406 137.785156 153.359375 124.324219 C 132.542969 91.121094 88.867188 79.425781 54.238281 97.753906 C 40.183594 105.195312 26.980469 117.769531 22.757812 133.519531 C 17.804688 152 21.925781 168.03125 26.707031 186.011719 C 28.449219 192.5625 30.175781 199.097656 31.4375 205.757812 C 31.949219 208.480469 32.601562 211.179688 33.214844 213.867188 C 34.003906 217.328125 34.789062 220.769531 35.527344 224.230469 C 37.113281 231.761719 39.261719 241.511719 38.21875 249.074219 C 37.785156 252.1875 37.132812 255.253906 36.480469 258.335938 C 35.910156 261.078125 33.976562 269.761719 34.601562 272.914062 Z M 34.601562 272.914062 "/>
</g>
</g>
</svg>
