<?xml version="1.0" encoding="UTF-8"?>
<svg xmlns="http://www.w3.org/2000/svg" xmlns:xlink="http://www.w3.org/1999/xlink" width="375pt" height="356.250003pt" viewBox="0 0 375 356.250003" version="1.2">
<defs>
<clipPath id="clip1">
  <path d="M 1 55 L 317 55 L 317 353.039062 L 1 353.039062 Z M 1 55 "/>
</clipPath>
<clipPath id="clip2">
  <path d="M 84.726562 2.484375 L 374.367188 2.484375 L 374.367188 277.902344 L 84.726562 277.902344 Z M 84.726562 2.484375 "/>
</clipPath>
</defs>
<g id="surface1">
<g clip-path="url(#clip1)" clip-rule="nonzero">
<path style=" stroke:none;fill-rule:nonzero;fill:rgb(79.998779%,98.429871%,94.509888%);fill-opacity:1;" d="M 282.984375 240.558594 C 283.367188 239.464844 283.746094 238.378906 284.097656 237.226562 C 283.828125 238.632812 283.5625 240.03125 283.261719 241.414062 C 283.210938 241.121094 283.113281 240.832031 282.984375 240.558594 Z M 316.097656 171.558594 C 314.367188 162.71875 311.390625 154.179688 307.269531 146.179688 C 299.515625 139.710938 296.53125 132.015625 293.015625 124.066406 C 290.046875 122.6875 287.253906 120.96875 284.683594 118.949219 C 282.292969 116.921875 281.035156 113.855469 281.316406 110.734375 C 281.675781 109.078125 281.21875 107.34375 280.078125 106.082031 C 278.894531 105.019531 277.496094 104.226562 275.976562 103.75 C 272.898438 102.535156 269.464844 101.851562 268.582031 98.753906 C 266.335938 96.832031 263.835938 95.222656 261.164062 93.96875 C 258.464844 92.742188 256.238281 90.675781 254.832031 88.070312 C 248.164062 83.734375 242.113281 78.304688 234.414062 75.6875 C 226.527344 73.640625 220.011719 69.1875 212.574219 66.308594 C 210.5625 66.246094 208.589844 65.671875 206.859375 64.644531 C 205.074219 63.707031 203.375 62.457031 201.589844 61.308594 C 199.859375 60.214844 197.957031 59.414062 195.960938 58.941406 C 193.785156 58.5625 191.546875 58.972656 189.644531 60.09375 C 187.671875 60.613281 185.613281 60.691406 183.609375 60.328125 C 181.65625 59.882812 179.726562 59.332031 177.839844 58.660156 C 174.003906 57.328125 169.988281 56.121094 165.988281 57.371094 C 164.199219 58.230469 162.257812 58.726562 160.273438 58.84375 C 158.339844 59.011719 156.398438 58.925781 154.492188 58.589844 C 152.558594 58.222656 150.59375 57.90625 148.605469 57.425781 L 145.589844 56.804688 C 144.640625 56.625 143.574219 56.460938 142.558594 56.324219 C 138.285156 54.457031 134.339844 55.375 130.539062 56.527344 C 126.734375 57.671875 123.121094 59.292969 118.871094 59.207031 C 110.441406 59.207031 102.820312 62.539062 95.535156 66.238281 C 87.578125 68.847656 80.074219 72.667969 73.28125 77.570312 C 67.03125 83.242188 61.164062 88.871094 53.066406 92.820312 C 46.398438 98.21875 41.132812 104.96875 35.53125 111.515625 C 33.429688 115.246094 32.402344 119.648438 30.746094 123.578125 C 29.925781 125.550781 28.800781 127.386719 27.414062 129.015625 C 25.707031 130.8125 23.648438 132.242188 21.363281 133.214844 C 20.511719 135.613281 19.28125 137.867188 17.710938 139.878906 C 16.195312 141.910156 14.378906 143.90625 12.964844 146.109375 C 11.371094 148.183594 10.167969 150.535156 9.417969 153.039062 C 8.65625 155.703125 8.800781 158.535156 9.816406 161.105469 C 8.480469 166.007812 6.597656 170.824219 5.25 175.824219 C 3.707031 180.785156 3.257812 186.019531 3.929688 191.171875 C 0.476562 196.171875 1.148438 201.535156 2.378906 206.652344 C 3.0625 209.21875 3.765625 211.75 4.261719 214.28125 C 4.832031 216.832031 4.878906 219.46875 4.398438 222.035156 C 4.144531 224.632812 4.332031 227.25 4.964844 229.78125 C 5.6875 232.273438 6.539062 234.726562 7.515625 237.128906 C 8.566406 239.484375 9.476562 241.902344 10.230469 244.363281 C 11.019531 246.859375 11.382812 249.476562 11.300781 252.09375 C 11.03125 255.550781 11.566406 259.027344 12.863281 262.242188 C 14.269531 265.484375 16.4375 268.347656 19.183594 270.574219 C 19.964844 273.90625 22.398438 276.503906 24.78125 278.90625 C 27.164062 281.308594 29.378906 283.90625 29.867188 287.488281 C 32.101562 290.039062 36.398438 290.921875 35.917969 295.304688 C 36.847656 298.636719 39.765625 300.589844 43.183594 301.839844 C 43.265625 303.304688 45.148438 303.273438 45.949219 304.136719 C 47.070312 309.949219 50.097656 315.230469 54.550781 319.136719 C 56.796875 320.886719 59.25 322.371094 61.847656 323.546875 C 64.550781 324.6875 67.335938 325.617188 70.183594 326.335938 C 72.871094 327.199219 75.398438 328.515625 77.652344 330.214844 C 79.917969 331.71875 81.953125 333.546875 84.136719 335.296875 C 86.246094 337.082031 88.523438 338.65625 90.933594 340.019531 C 93.382812 341.398438 96.101562 342.222656 98.902344 342.445312 C 100.335938 342.414062 101.765625 342.550781 103.171875 342.863281 C 104.515625 343.117188 105.828125 343.488281 107.105469 343.980469 C 108.355469 344.476562 109.585938 345.03125 110.785156 345.648438 C 112.003906 346.226562 113.21875 346.867188 114.4375 347.496094 C 116.820312 348.859375 119.332031 349.976562 121.9375 350.828125 C 124.59375 351.703125 127.417969 351.910156 130.175781 351.429688 C 135.460938 349.800781 141.097656 349.644531 146.46875 350.980469 C 149.054688 351.460938 151.652344 351.976562 154.269531 352.429688 C 156.894531 352.820312 159.550781 352.933594 162.1875 352.742188 C 164.816406 353.113281 167.480469 353.113281 170.113281 352.742188 C 172.742188 352.300781 175.339844 351.683594 177.890625 350.894531 L 185.425781 348.382812 C 187.847656 347.503906 190.347656 346.839844 192.894531 346.417969 C 198.191406 344.632812 199.378906 341.117188 198.042969 338.449219 C 196.707031 335.78125 193.042969 333.867188 188.210938 334.679688 C 186.660156 334.671875 185.125 334.855469 183.628906 335.214844 C 182.125 335.53125 180.605469 335.863281 179.089844 336.230469 C 176.074219 337.109375 172.886719 337.191406 169.824219 336.484375 C 168.28125 336.640625 166.726562 336.566406 165.207031 336.269531 C 163.671875 336.015625 162.140625 335.648438 160.625 335.265625 C 159.132812 334.894531 157.605469 334.707031 156.074219 334.710938 C 154.445312 334.699219 152.839844 335.058594 151.375 335.765625 C 149.855469 336.234375 148.246094 336.320312 146.691406 336.015625 C 145.15625 335.742188 143.644531 335.316406 142.1875 334.765625 C 140.167969 333.890625 138.066406 333.226562 135.902344 332.785156 C 136.222656 332.414062 136.46875 332.316406 136.585938 332.785156 C 140.324219 331.5625 144.105469 328.964844 147.484375 327.648438 C 149.003906 327 150.683594 326.84375 152.292969 327.199219 C 154.199219 327.929688 155.769531 329.335938 156.707031 331.144531 C 159.589844 336.144531 163.019531 335.117188 166.074219 332.433594 C 169.128906 329.753906 171.84375 325.632812 174.558594 324.699219 C 176.695312 327.136719 177.890625 326.121094 178.171875 324.035156 C 197.308594 322.019531 215.699219 315.574219 231.914062 305.21875 L 232.050781 305.21875 C 233.949219 304.945312 235.707031 304.054688 237.050781 302.671875 C 237.480469 302.164062 237.835938 301.605469 238.128906 301.007812 C 257.851562 286.6875 272.96875 266.921875 281.636719 244.148438 C 282.058594 243.984375 282.4375 243.730469 282.75 243.398438 C 281.875 247.601562 280.3125 251.632812 278.113281 255.324219 C 277.226562 256.988281 276.230469 258.65625 275.25 260.191406 C 274.265625 261.730469 273.113281 263.3125 272.148438 264.90625 C 271.113281 266.5 270.210938 268.171875 269.445312 269.90625 C 268.605469 271.707031 267.988281 273.609375 267.617188 275.554688 C 266.476562 279.472656 263.230469 281.855469 260.164062 284.207031 C 258.625 285.34375 257.214844 286.640625 255.949219 288.074219 C 255.339844 288.835938 254.824219 289.667969 254.414062 290.550781 C 253.9375 291.527344 253.601562 292.570312 253.410156 293.636719 C 252.316406 293.742188 251.242188 294.007812 250.226562 294.4375 C 249.320312 294.804688 248.476562 295.296875 247.714844 295.902344 C 246.253906 297.1875 244.984375 298.664062 243.929688 300.289062 C 241.710938 303.625 239.511719 307.320312 235.898438 308.933594 C 233.8125 315.800781 231.976562 318.730469 232.160156 318.933594 C 232.84375 320.117188 235.492188 319.148438 242.777344 319.433594 C 244.769531 315.445312 247.714844 312.007812 251.367188 309.4375 C 253.035156 308.230469 254.84375 307.054688 256.710938 305.933594 C 258.582031 304.820312 260.429688 303.734375 262.277344 302.601562 C 262.839844 301.675781 263.464844 300.785156 264.148438 299.9375 C 264.777344 299.074219 265.457031 298.246094 266.179688 297.453125 C 266.882812 296.671875 267.628906 295.902344 268.378906 295.15625 L 270.601562 292.855469 C 272.125 291.367188 273.535156 289.765625 274.832031 288.074219 C 276.167969 286.394531 277.261719 284.53125 278.0625 282.539062 C 283.707031 276.132812 287.710938 268.453125 289.726562 260.160156 C 289.910156 258.039062 290.5625 255.988281 291.636719 254.144531 C 292.625 252.277344 293.707031 250.453125 294.886719 248.695312 C 295.992188 246.894531 296.84375 244.949219 297.417969 242.910156 C 297.925781 240.695312 297.777344 238.378906 296.980469 236.246094 C 299.683594 228.34375 300.59375 219.9375 299.652344 211.632812 C 300.378906 210.773438 301.03125 209.84375 301.597656 208.867188 C 302.09375 207.949219 302.507812 206.992188 302.847656 206 C 303.503906 204.113281 303.832031 202.121094 303.816406 200.117188 C 303.804688 198.136719 303.570312 196.164062 303.113281 194.238281 C 302.613281 192.28125 302 190.359375 301.285156 188.472656 C 300.398438 180.738281 299.617188 173.003906 298.464844 165.140625 C 299.578125 167.453125 301.042969 169.582031 302.800781 171.457031 C 304.46875 173.539062 305.75 175.792969 305.261719 178.269531 C 306.136719 179.886719 307.496094 181.179688 309.148438 181.976562 C 310.328125 182.476562 311.683594 182.328125 312.71875 181.570312 C 317.550781 179.773438 313.585938 176.773438 316.097656 171.558594 "/>
</g>
<g clip-path="url(#clip2)" clip-rule="nonzero">
<path style=" stroke:none;fill-rule:evenodd;fill:rgb(7.839966%,72.158813%,65.098572%);fill-opacity:1;" d="M 87.628906 171.929688 C 89.25 172.320312 90.175781 169.492188 89.300781 169.082031 C 88.515625 169.816406 88.132812 170.925781 87.628906 171.929688 Z M 147.480469 248.289062 C 147.476562 248.402344 147.511719 248.515625 147.53125 248.632812 C 147.527344 248.632812 147.523438 248.632812 147.523438 248.632812 L 147.472656 250.074219 C 148.261719 250.128906 148.679688 250.46875 149 250.425781 C 149.667969 250.839844 150.347656 251.035156 150.550781 250.800781 C 149.796875 249.726562 149.960938 247.875 147.480469 248.289062 Z M 175.175781 267.539062 C 172.167969 271.238281 168.554688 274.347656 165.367188 277.867188 C 169.625 277.011719 170.792969 270.628906 174.53125 270.902344 C 174.332031 269.65625 176.484375 268.222656 175.175781 267.539062 Z M 167.953125 263.929688 C 165.984375 262.226562 166.125 263.625 164.851562 262.378906 C 164.738281 262.679688 164.523438 262.882812 164.28125 263.050781 C 164.113281 263.015625 163.929688 263 163.707031 263.007812 C 163.683594 263.179688 163.628906 263.308594 163.558594 263.429688 C 163.429688 263.4375 163.316406 263.441406 163.171875 263.464844 C 163.148438 263.574219 163.082031 263.625 163.039062 263.710938 C 162.820312 263.828125 162.628906 263.972656 162.464844 264.148438 C 161.855469 264.40625 161.296875 264.722656 161.523438 265.800781 C 161.96875 265.957031 162.363281 265.914062 162.714844 265.792969 C 163.78125 265.855469 163.859375 264.945312 164.71875 264.804688 C 164.75 264.804688 164.773438 264.796875 164.800781 264.789062 C 164.871094 264.785156 164.957031 264.796875 165.027344 264.804688 C 165.089844 264.847656 165.148438 264.878906 165.207031 264.960938 C 164.128906 265.066406 164.121094 266.207031 163.574219 266.820312 C 163.777344 266.777344 163.921875 266.667969 164.09375 266.59375 C 164.085938 266.757812 164.101562 266.953125 164.160156 267.195312 C 165.988281 266.65625 166.472656 264.804688 167.953125 263.929688 Z M 372.644531 9.3125 C 373.847656 8.503906 373.773438 6.433594 374.367188 5.015625 C 369.941406 5.164062 367.996094 10.394531 363.214844 8.527344 C 363.96875 8.4375 364.125 7.765625 364.820312 7.617188 C 364.023438 9 364.402344 8.148438 365.855469 8.128906 C 364.753906 6.71875 367.585938 5.792969 367.039062 4.300781 C 365.25 6.375 362.199219 7.195312 361.574219 10.410156 C 360.046875 9.914062 357.105469 12.160156 357.242188 14.148438 C 349.648438 15.894531 349.761719 24.992188 342.578125 28.1875 C 342.710938 27.136719 342.207031 26.632812 341.058594 26.6875 C 340.867188 27.632812 341.730469 27.671875 342.058594 28.167969 C 341.046875 28.34375 341.058594 29.519531 339.398438 29.050781 C 340.890625 28.527344 339.800781 25.457031 342.136719 25.753906 C 340.414062 23.855469 343.113281 23.84375 342.796875 21.90625 C 339.007812 22.996094 335.246094 24.5 332.609375 27.867188 C 333.140625 25.339844 336.40625 21.773438 337.667969 18.359375 C 335.25 17.808594 336.859375 21.226562 334.433594 20.675781 C 334.953125 18.269531 337.390625 17.757812 338.667969 16.101562 C 340.925781 15.457031 342.476562 14.128906 344.40625 13.160156 C 342.386719 13.429688 340.21875 14.101562 340.171875 14.9375 C 339.8125 14.953125 339.535156 14.894531 339.308594 14.800781 C 339.429688 14.328125 339.480469 13.785156 339.425781 13.132812 C 339.480469 13.121094 339.527344 13.101562 339.582031 13.089844 C 339.972656 13.101562 340.363281 13.078125 340.761719 13.015625 C 340.925781 13.027344 341.089844 13.03125 341.277344 13.058594 C 341.292969 12.996094 341.351562 12.929688 341.378906 12.863281 C 344.167969 12.164062 347.105469 9.929688 349.558594 8.582031 C 348.414062 8.917969 346.308594 9.660156 344.917969 9.878906 C 345.847656 9.308594 346.671875 8.816406 346.992188 8.476562 C 345.703125 8.464844 345.378906 9.394531 344.078125 9.375 C 346.089844 6.460938 350.628906 6.035156 352.382812 2.871094 C 348.914062 2.601562 347.714844 6.15625 343.9375 4.054688 C 338.148438 8.878906 333.074219 11.902344 327.71875 17.5625 C 327.636719 15.65625 330.007812 16.148438 329.929688 14.242188 C 328.890625 14.207031 329.308594 12.90625 327.867188 13.210938 C 329.09375 16.699219 325.664062 16.515625 324.515625 18.910156 C 325.421875 18.914062 325.847656 19.328125 326.0625 19.925781 C 325.183594 23.394531 319.382812 24.671875 318.984375 26.953125 C 319.4375 25.863281 320.039062 28.496094 319.957031 29.402344 C 318.960938 29.480469 318.816406 28.824219 317.871094 28.851562 C 318.789062 31.441406 320.148438 32.875 318.179688 35.144531 C 319.097656 32.617188 314.734375 34.355469 313.492188 34.03125 C 314.816406 32.050781 317.304688 34.242188 317.773438 31.75 C 315.980469 30.433594 314.476562 32.980469 312.003906 31.566406 C 310.695312 32.492188 312.820312 33.660156 310.871094 33.953125 C 311.078125 32.449219 309.316406 35.128906 309.3125 33.417969 C 310.453125 33.542969 310.992188 33.074219 310.933594 32.019531 C 309.433594 32.472656 308.730469 32.453125 307.265625 31.90625 C 307.226562 33.863281 305.597656 34.261719 304.019531 34.699219 C 301.84375 42.984375 293.726562 45.945312 290.726562 54.582031 C 290.917969 55.515625 292.191406 55.511719 291.6875 57.03125 C 290.234375 57.199219 291.261719 55.21875 290.183594 55.050781 C 284.085938 57.148438 281.765625 62.222656 276.664062 66.226562 C 276.476562 67.171875 277.339844 67.210938 277.667969 67.714844 C 276.671875 67.785156 276.527344 67.128906 275.585938 67.160156 C 275.542969 69.871094 279.089844 67.644531 279.226562 68.246094 C 279.210938 68.730469 278.78125 68.804688 278.667969 69.191406 C 281.214844 69.449219 280.382812 70.507812 282.339844 69.308594 C 280.957031 72.183594 279.054688 68.246094 276.011719 70.078125 C 276.652344 69.949219 277.769531 71.53125 276.484375 71.542969 C 275.257812 71.351562 275.359375 70.007812 274.453125 69.542969 C 273.714844 71.234375 273.207031 71.261719 273.792969 73.394531 C 271.46875 73.378906 270.398438 75.15625 270.546875 76.1875 C 269.566406 75.261719 270.160156 75.289062 268.46875 75.640625 C 261.734375 82.390625 256.382812 90.964844 251.300781 99.542969 C 251.269531 99.542969 251.25 99.535156 251.214844 99.542969 C 251.230469 99.578125 251.230469 99.597656 251.246094 99.636719 C 246.875 107.019531 242.699219 114.398438 238.023438 120.605469 C 235.679688 120.035156 236.265625 119.84375 233.863281 119.507812 C 237.222656 122.183594 232.660156 126.28125 230.855469 130.539062 C 229.21875 129.070312 228.523438 131.566406 227.136719 131.867188 C 226.707031 133.175781 228.144531 132.875 228.117188 133.832031 C 222.988281 139.109375 220.800781 147.28125 213.875 150.789062 C 214.386719 151.367188 214.5625 151.945312 214.523438 152.503906 C 214.101562 152.660156 213.800781 153.058594 213.890625 153.769531 C 213.964844 153.757812 214.023438 153.746094 214.097656 153.730469 C 213.246094 155.101562 211.339844 156.273438 209.988281 156.953125 C 210.339844 157.164062 210.425781 157.558594 210.335938 158.023438 C 210.121094 158.03125 209.875 158.011719 209.574219 157.933594 C 209.777344 158.335938 209.90625 158.648438 210 158.917969 C 209.230469 160.285156 207.414062 161.78125 205.621094 161.648438 C 204.847656 165.71875 198.683594 170.210938 198.285156 176.40625 C 194.988281 177.539062 191.574219 182.746094 186.984375 184.261719 C 186.503906 185.617188 187.679688 185.542969 187.425781 186.695312 C 184.6875 187.832031 182.09375 189.113281 181.457031 192.308594 C 181.433594 193.109375 182.902344 192.628906 182.992188 193.328125 C 180.871094 195.5625 181.15625 197.414062 180.679688 199.539062 C 179.992188 202.601562 173.902344 209.011719 173.003906 208.96875 C 171.914062 208.90625 169.101562 204.714844 170.832031 206.699219 C 165.582031 200.503906 158.070312 194.394531 156.980469 186.21875 C 156.003906 186.121094 155.238281 185.839844 154.917969 185.1875 C 152.242188 174.664062 142.523438 167.753906 141.160156 157.671875 C 137.699219 157.425781 141.0625 161.65625 139.964844 161.988281 C 139.871094 161.886719 139.808594 161.757812 139.71875 161.652344 C 139.675781 161.582031 139.628906 161.515625 139.585938 161.445312 L 139.582031 161.457031 C 138.507812 160.011719 137.941406 158.128906 137 156.574219 C 131.074219 155.15625 131.011719 147.777344 127.46875 143.699219 C 123.738281 139.410156 118.90625 133.824219 117.511719 127.910156 C 116.011719 128.261719 116.171875 127.1875 114.90625 127.34375 C 112.871094 128.179688 111.929688 130.078125 110.046875 131.054688 C 105 130.027344 99.796875 126.871094 93.871094 128.125 C 93.972656 128.882812 94.078125 129.554688 94.183594 130.199219 C 94.035156 130.253906 93.878906 130.304688 93.734375 130.375 C 94.375 133.019531 95.550781 136.316406 96.207031 139.492188 C 95.265625 140.921875 97.5 144.082031 95.90625 145.113281 C 95.945312 143.675781 96.054688 142.175781 94.433594 142.164062 C 94.648438 144.011719 95.421875 145.382812 95.839844 147.046875 C 94.632812 146.863281 95.210938 148.425781 94.214844 148.449219 C 93.511719 148.496094 92.703125 146.429688 92.136719 147.898438 C 94.355469 151.269531 91.363281 159.171875 85.539062 156.390625 C 84.796875 157.027344 84.921875 158.503906 84.90625 159.839844 C 84.804688 160.367188 84.761719 160.9375 84.832031 161.625 C 87.355469 162.722656 89.898438 163.8125 90.644531 166.441406 C 90.59375 166.679688 90.527344 166.929688 90.417969 167.1875 C 90.5625 167.347656 90.710938 167.46875 90.851562 167.566406 C 90.886719 168.003906 90.890625 168.464844 90.835938 168.980469 C 92.40625 169.167969 93.132812 169.832031 93.367188 170.726562 C 92.921875 173.40625 91.339844 174.964844 90.59375 177.34375 C 90.808594 177.292969 90.992188 177.265625 91.15625 177.257812 C 90.871094 177.765625 90.632812 178.207031 90.503906 178.519531 C 91.28125 178.4375 91.820312 178.558594 92.160156 178.847656 C 92.144531 179.003906 92.125 179.164062 92.097656 179.324219 L 92.464844 179.335938 C 92.492188 179.421875 92.542969 179.484375 92.558594 179.582031 C 92.550781 179.730469 92.5625 179.855469 92.539062 180.015625 C 92.535156 180.175781 92.558594 180.3125 92.523438 180.496094 L 95.644531 180.59375 C 96.308594 180.78125 96.871094 181.054688 97.382812 181.375 C 97.679688 182.09375 98.273438 182.699219 98.816406 183.007812 C 100.191406 184.980469 100.820312 187.128906 101.582031 189.855469 C 102.917969 194.625 107.140625 197.890625 110.648438 201.4375 C 111.171875 202.015625 111.691406 202.601562 112.214844 203.21875 C 113.085938 204.457031 113.917969 205.742188 114.804688 206.96875 C 114.886719 207.144531 114.980469 207.3125 115.050781 207.488281 C 114.394531 208.644531 114.796875 210.839844 114.589844 212.429688 C 114.816406 212.832031 115.074219 213.210938 115.308594 213.609375 C 116.628906 219.125 120.785156 223.160156 124.683594 226.832031 C 125.488281 227.828125 126.296875 228.8125 127.121094 229.785156 C 128.589844 232.308594 130.371094 234.5625 132.292969 236.691406 C 132.292969 236.695312 132.292969 236.695312 132.292969 236.695312 C 132.316406 236.71875 132.347656 236.75 132.375 236.777344 C 134.574219 239.203125 136.9375 241.496094 139.164062 243.902344 C 138.992188 244.300781 138.5625 244.4375 138.664062 245.109375 C 138.691406 245.125 138.730469 245.136719 138.761719 245.15625 C 138.761719 245.269531 138.761719 245.378906 138.765625 245.496094 C 139.945312 245.453125 140.976562 247.863281 141.859375 246.550781 C 141.664062 246.503906 141.460938 246.386719 141.304688 246.253906 C 141.992188 246.511719 142.695312 246.75 143.398438 246.992188 C 143.695312 247.226562 143.910156 247.539062 143.886719 248.046875 C 144.425781 248.03125 144.824219 247.867188 145.144531 247.644531 C 145.230469 247.679688 145.320312 247.703125 145.402344 247.742188 C 146.195312 246.914062 146.785156 245.890625 148.085938 245.5625 C 148.136719 245.589844 148.183594 245.617188 148.234375 245.648438 C 148.199219 245.695312 148.175781 245.746094 148.136719 245.792969 L 148.5 245.800781 C 151.148438 247.34375 153.550781 248.976562 155.324219 250.683594 C 155.625 251.246094 155.808594 251.816406 155.742188 252.421875 C 156.230469 252.425781 156.65625 252.496094 157.039062 252.59375 C 157.488281 253.222656 157.796875 253.867188 158.015625 254.511719 C 157.507812 255.054688 157.226562 255.832031 156.660156 256.316406 C 157.847656 255.726562 158.671875 254.769531 159.851562 254.160156 C 160.824219 253.988281 161.570312 253.726562 162.117188 254.351562 C 161.667969 254.878906 161.117188 255.402344 161.9375 255.515625 C 162.835938 254.628906 163.507812 253.511719 164.78125 252.988281 C 164.996094 253.035156 165.183594 253.132812 165.355469 253.273438 C 164.769531 254.144531 164.199219 255.015625 163.621094 255.886719 C 163.5625 255.953125 163.507812 256.019531 163.460938 256.082031 C 161.605469 258.214844 159.671875 260.253906 157.890625 262.453125 C 157.109375 263.039062 156.28125 263.582031 155.34375 264.015625 C 155.46875 265.132812 155.195312 265.863281 154.734375 266.410156 C 160.84375 266.757812 162.292969 262.53125 166.476562 260.980469 C 165.863281 260.878906 164.984375 261.011719 164.917969 260.445312 C 166.152344 260.5 166.492188 259.667969 168.085938 260.058594 C 168.554688 257.65625 166.128906 260.640625 166.019531 259.03125 C 167.121094 257.132812 169.605469 256.226562 168.941406 253.71875 C 169.113281 253.53125 169.296875 253.367188 169.484375 253.25 C 169.746094 253.179688 170.015625 253.09375 170.292969 253 C 170.671875 253 171.101562 253.160156 171.578125 253.511719 C 171.277344 253.796875 171.007812 254.132812 170.78125 254.511719 C 168.992188 256.128906 169.417969 257.902344 168.445312 261.722656 C 168.671875 261.710938 168.847656 261.738281 169.011719 261.785156 C 169.023438 262.023438 169.023438 262.265625 169.050781 262.511719 C 172.660156 263.449219 173.355469 259.285156 175.015625 259.257812 C 175.152344 259.28125 175.296875 259.320312 175.445312 259.382812 C 175.296875 259.789062 175.15625 260.164062 175.015625 260.527344 C 174.757812 260.527344 174.5 260.515625 174.222656 260.476562 C 172.773438 264.390625 173.628906 264.625 171.371094 267.546875 C 171.652344 267.582031 171.898438 267.570312 172.136719 267.546875 C 172.09375 267.671875 172.054688 267.785156 172.011719 267.925781 C 173.621094 267.40625 175.117188 266.886719 176.476562 266.714844 C 176.527344 266.738281 176.566406 266.738281 176.613281 266.765625 C 176.617188 266.742188 176.628906 266.726562 176.632812 266.703125 C 177.046875 266.65625 177.445312 266.632812 177.832031 266.664062 C 178.246094 262.832031 181.851562 262.144531 184.203125 260.222656 C 184.199219 261.15625 183.578125 262.625 184.570312 262.710938 C 184.632812 262.621094 184.675781 262.511719 184.734375 262.410156 C 184.757812 262.449219 184.773438 262.492188 184.804688 262.53125 C 186.550781 262.414062 187.128906 261.152344 188.035156 260.214844 C 186.746094 259.535156 186.324219 262.070312 185.921875 260.628906 C 187.207031 257.886719 189.324219 255.957031 191.605469 254.1875 C 191.667969 254.144531 191.730469 254.097656 191.792969 254.050781 C 194.660156 251.847656 197.742188 249.855469 199.820312 246.871094 C 200.0625 246.757812 200.3125 246.664062 200.5625 246.589844 L 201.632812 246.617188 C 203.164062 241.105469 210.492188 236.0625 212.558594 234.398438 C 211.144531 234.054688 210.023438 236.503906 209.378906 235.265625 C 228.96875 209.917969 245.765625 181.824219 267.1875 158.28125 L 267.269531 155.867188 C 275.539062 146.695312 280.960938 134.71875 289.085938 125.40625 C 289.203125 125.308594 289.324219 125.207031 289.4375 125.113281 C 289.457031 125.0625 289.453125 125.027344 289.464844 124.980469 C 291.707031 122.453125 294.152344 120.121094 296.933594 118.121094 C 297.050781 113.851562 302.617188 112.492188 301.460938 108.601562 C 299.847656 109.34375 298.984375 110.824219 297.671875 111.863281 C 299.679688 105.648438 305.226562 99.964844 310.863281 94.875 C 309.898438 93.59375 306.636719 96.523438 306.15625 94.242188 C 309.851562 90.773438 311.792969 86.964844 314.433594 83.242188 C 314.574219 83.058594 314.714844 82.871094 314.835938 82.679688 C 315.585938 81.660156 316.386719 80.652344 317.304688 79.65625 L 318.121094 79.679688 C 318.117188 78.8125 318.511719 78.683594 318.53125 78.410156 C 318.734375 78.214844 318.953125 78.023438 319.167969 77.828125 C 319.84375 77.675781 320.347656 77.152344 320.53125 76.683594 C 320.675781 76.566406 320.808594 76.449219 320.960938 76.335938 C 321.386719 76.367188 321.472656 76.703125 321.617188 76.984375 C 321.257812 77.359375 320.917969 77.75 320.773438 78.335938 C 321.394531 78.0625 321.835938 77.726562 322.222656 77.371094 C 322.304688 77.371094 322.386719 77.375 322.496094 77.351562 C 323.777344 75.664062 324.949219 73.878906 326.480469 72.4375 C 326.566406 72.398438 326.625 72.347656 326.71875 72.308594 C 325.386719 73.417969 326.761719 74.292969 327.46875 75 C 326.828125 76.703125 326.023438 78.339844 326.625 79.414062 C 327.007812 78.347656 327.722656 77.605469 328.492188 76.921875 C 328.824219 77.121094 329.09375 77.171875 329.171875 76.6875 C 329.054688 76.648438 328.992188 76.59375 328.917969 76.539062 C 329.253906 76.25 329.589844 75.957031 329.910156 75.652344 C 329.484375 75.976562 328.652344 78.308594 329.8125 78.550781 C 331.046875 76.796875 330.777344 75.945312 332.582031 74.285156 C 332.09375 74.085938 331.667969 73.828125 331.316406 73.507812 C 331.332031 73.46875 331.355469 73.460938 331.371094 73.417969 C 331.285156 73.398438 331.246094 73.347656 331.183594 73.304688 C 335.0625 74.578125 334.78125 66.777344 339.175781 65.792969 C 339.304688 65.179688 338.976562 64.949219 338.644531 64.726562 C 339.285156 64.582031 340.066406 64.667969 341.042969 65.121094 C 341.503906 64.550781 341.929688 63.980469 342.324219 63.40625 C 342.355469 63.433594 342.378906 63.449219 342.410156 63.472656 C 345.566406 58.753906 349.570312 54.867188 350.8125 48.269531 C 349.363281 47.671875 348.105469 47.632812 346.617188 48.136719 C 347.027344 45.589844 349.832031 43.152344 348.964844 40.957031 C 350.671875 41.5 353.902344 36.941406 353.363281 35.296875 C 352.835938 37.269531 351.988281 37.433594 350.65625 37.628906 C 352.046875 34.792969 353.855469 32.199219 355.863281 29.742188 C 358.207031 28.949219 359.046875 26.6875 360.277344 24.808594 C 362.476562 22.507812 364.730469 20.285156 366.839844 18.054688 C 366.921875 18.117188 367.023438 18.167969 367.171875 18.179688 C 367.050781 17.242188 367.90625 17.261719 368.261719 16.777344 C 368.191406 16.765625 368.144531 16.726562 368.082031 16.707031 C 370.164062 14.414062 372.050781 12.097656 373.507812 9.644531 C 373.226562 9.828125 372.71875 9.757812 372.644531 9.3125 Z M 158.273438 254.296875 L 158.277344 254.242188 C 158.308594 254.242188 158.339844 254.242188 158.367188 254.242188 C 158.339844 254.261719 158.300781 254.273438 158.273438 254.296875 Z M 183.371094 252.164062 C 181.789062 253.707031 180.597656 256.339844 179.027344 258.242188 C 179.015625 258.242188 179.007812 258.238281 178.996094 258.238281 C 178.996094 258.257812 178.984375 258.265625 178.980469 258.289062 C 178.085938 259.074219 177.101562 259.773438 175.953125 260.3125 C 178.210938 256.351562 179.378906 253.871094 181.339844 250.269531 C 181.359375 250.261719 181.375 250.253906 181.394531 250.246094 C 181.761719 251.128906 183.96875 250.449219 183.371094 252.164062 Z M 199.050781 190.558594 C 198.832031 190.839844 198.632812 191.128906 198.507812 191.5 C 198.53125 191.496094 198.542969 191.484375 198.566406 191.476562 C 198.40625 191.785156 198.246094 192.09375 198.085938 192.398438 C 197.539062 193.398438 196.992188 194.40625 196.445312 195.40625 C 195.667969 196.46875 195.023438 197.621094 194.628906 198.691406 C 192.445312 202.597656 190.15625 206.390625 187.449219 209.78125 C 187.121094 210.816406 186.621094 212.144531 186.003906 213.601562 C 183.785156 217.207031 181.503906 220.785156 179.160156 224.335938 C 179.144531 224.332031 179.140625 224.324219 179.121094 224.324219 C 179.128906 224.347656 179.125 224.363281 179.132812 224.382812 C 178.847656 224.816406 178.5625 225.246094 178.273438 225.675781 C 178.179688 225.757812 178.109375 225.863281 178.066406 225.992188 C 177.90625 226.230469 177.75 226.46875 177.59375 226.707031 C 177.273438 227.035156 176.96875 227.332031 176.683594 227.59375 C 173.9375 228.503906 171.324219 227.042969 170.332031 225.324219 C 170.996094 223.957031 172.054688 222.757812 173.253906 221.632812 C 173.332031 221.667969 173.394531 221.71875 173.476562 221.753906 C 173.722656 221.527344 173.851562 221.289062 173.917969 221.046875 C 175.332031 220.242188 176.710938 219.359375 177.417969 218.082031 C 179.890625 215.941406 181.871094 213.714844 181.34375 210.679688 C 182.914062 209.664062 184.230469 210.246094 185.117188 207.898438 C 181.222656 206.824219 178.644531 211.789062 173.34375 214.292969 C 174.074219 211.519531 177.34375 205.382812 178.96875 203.351562 C 179.679688 203.523438 179.367188 204.578125 179.429688 205.300781 C 182.589844 201.582031 185.753906 197.875 188.75 193.988281 C 190.097656 195.027344 187.582031 196.480469 187.566406 197.828125 C 192.320312 193.640625 197.179688 188.023438 202.214844 184.261719 C 201.191406 186.367188 200.128906 188.464844 199.050781 190.558594 Z M 305.921875 55.550781 C 304.984375 52.609375 307.960938 48.558594 311.40625 47.054688 C 311.363281 47.335938 311.34375 47.632812 311.394531 47.941406 C 311.496094 47.925781 311.589844 47.871094 311.679688 47.796875 C 311.679688 49.996094 307.390625 53.398438 305.921875 55.550781 Z M 319.179688 36.628906 C 318.953125 34.894531 320.941406 31.046875 323.082031 29.984375 C 323.089844 28.277344 321.316406 30.957031 321.527344 29.453125 C 321.636719 29.046875 321.339844 28.988281 321.023438 28.953125 C 321.460938 27.300781 322.609375 28.679688 323.644531 29.035156 C 322.621094 28.417969 323.832031 27.375 324.183594 28.566406 C 325.609375 27.78125 326.070312 26.046875 327.300781 25.074219 C 327.394531 25.96875 326.566406 25.96875 326.214844 26.433594 C 327.117188 26.109375 327.949219 26.5 328.605469 26.757812 C 327.054688 30.734375 321.8125 33.304688 319.179688 36.628906 Z M 328.816406 26.132812 C 328.324219 26.070312 327.835938 25.996094 327.8125 25.535156 C 327.792969 25.25 327.746094 24.992188 327.351562 25.03125 C 327.617188 24.835938 327.90625 24.652344 328.265625 24.539062 C 328.492188 24.722656 328.738281 24.894531 329.011719 25.039062 C 328.976562 25.417969 328.917969 25.78125 328.816406 26.132812 Z M 355.929688 29.664062 C 356.203125 29.335938 356.480469 29.011719 356.761719 28.6875 C 356.574219 29.050781 356.320312 29.386719 355.929688 29.664062 Z M 302.660156 28.371094 C 304.851562 28.527344 304.441406 26.125 305.402344 25.074219 C 303.636719 25.003906 302.601562 25.652344 301.675781 26.40625 C 304.984375 26.5 302.558594 26.433594 302.660156 28.371094 Z M 109.738281 124.761719 C 107.804688 123.933594 107.515625 121.679688 105.136719 121.230469 C 106.039062 122.898438 107.855469 126.808594 109.738281 124.761719 Z M 308.171875 20.808594 C 307.425781 19.65625 308.421875 18.734375 307.730469 18.375 C 307.09375 20.078125 305.417969 20.761719 304.957031 22.644531 C 306.84375 22.832031 306.449219 20.777344 308.171875 20.808594 Z M 177.765625 268.585938 C 175.90625 270.601562 172.65625 273.878906 172.78125 276.167969 C 174.253906 273.785156 177.664062 270.664062 177.765625 268.585938 Z M 298.179688 36.449219 C 300.621094 34.6875 302.003906 31.886719 303.167969 28.871094 C 299.613281 29.207031 298.777344 34.859375 298.179688 36.449219 Z M 294.78125 43.59375 C 295.390625 41.03125 297.371094 39.8125 298.144531 37.417969 C 295.164062 38.1875 296.265625 36.933594 297.164062 35.445312 C 294.492188 35.691406 295.128906 37.808594 295.980469 39.277344 C 294.628906 37.792969 294.207031 43.265625 294.78125 43.59375 Z M 156.125 271.769531 C 157.902344 271.667969 161.144531 270.417969 159.894531 268.992188 C 159.179688 270.445312 156.84375 270.320312 156.125 271.769531 Z M 187.824219 205.566406 C 189.425781 205.132812 191.25 202.308594 190.089844 200.804688 C 189.238281 202.308594 188.417969 203.820312 187.824219 205.566406 Z M 338.09375 21.273438 C 339.398438 21.035156 342.222656 19.714844 341.324219 18.957031 C 340.523438 20.007812 338.476562 19.824219 338.09375 21.273438 Z M 343.402344 19.507812 C 343.363281 20.464844 341.953125 20.078125 342.289062 21.410156 C 343.230469 21.167969 344.472656 21.230469 344.941406 20.527344 C 343.910156 20.636719 343.925781 19.835938 343.402344 19.507812 Z M 213.585938 250.386719 C 212.789062 251.125 212.367188 254.183594 214.515625 253.804688 C 213.613281 252.546875 215.605469 251.09375 213.585938 250.386719 Z M 177.738281 208.632812 C 179.273438 209.105469 176.5 209.320312 177.148438 210.550781 C 179.078125 211.121094 178.230469 208.953125 179.3125 208.683594 C 179.335938 208.980469 179.371094 209.261719 179.820312 209.183594 C 180.707031 207.863281 177.605469 207.769531 177.738281 208.632812 Z M 346.210938 14.277344 C 344.542969 13.941406 344.558594 15.132812 343.589844 14.195312 C 344.59375 16.234375 340.667969 15.917969 342.441406 17.058594 C 343.976562 16.410156 346.085938 16.320312 346.210938 14.277344 Z M 348.03125 68.007812 C 349.550781 68.496094 348.121094 69.785156 349.015625 69.972656 C 349.265625 68.371094 352.347656 66.953125 350.753906 65.191406 C 351.082031 67.34375 348.511719 66.644531 348.03125 68.007812 Z M 170.832031 206.699219 C 171.050781 206.957031 171.265625 207.210938 171.476562 207.46875 C 171.207031 207.136719 171.007812 206.902344 170.832031 206.699219 Z M 317.902344 88.8125 C 321.46875 85.960938 320.5 83.191406 321.238281 79.53125 C 320.292969 82.878906 315.898438 86.164062 317.902344 88.8125 Z M 349.675781 11.414062 C 351.917969 10.15625 354.25 8.984375 355.070312 6.332031 C 355 6.339844 354.945312 6.363281 354.875 6.375 C 356.523438 5.1875 357.832031 3.871094 356.59375 2.519531 C 354 4.230469 352.394531 5.359375 351.78125 8.085938 C 350.9375 9.058594 350.351562 10.277344 349.675781 11.414062 Z M 347.015625 8.058594 C 347.199219 8.148438 347.164062 8.289062 346.992188 8.476562 C 347.054688 8.476562 347.105469 8.464844 347.171875 8.472656 C 347.234375 8.226562 347.152344 8.125 347.015625 8.058594 Z M 108.988281 126.558594 C 107.636719 125.847656 106.28125 122.722656 104.921875 123.566406 C 106.632812 123.964844 107.085938 127.851562 108.988281 126.558594 Z M 156.464844 185.867188 C 158.621094 185.285156 157.929688 189.507812 159.527344 187.878906 C 158.699219 187.882812 158.398438 186.851562 158.144531 185.957031 C 160.058594 187.601562 161.226562 190.9375 163.125 190.757812 C 159.914062 188.21875 158.976562 183.714844 156.65625 180.402344 C 156.722656 182.574219 157.683594 183.070312 157.148438 184.832031 C 157.109375 184.863281 157.070312 184.886719 157.023438 184.929688 C 157.054688 184.929688 157.082031 184.9375 157.113281 184.941406 C 157.078125 185.046875 157.0625 185.136719 157.015625 185.253906 C 157.148438 185.304688 157.28125 185.371094 157.40625 185.4375 C 157.007812 185.496094 156.496094 185.445312 156.464844 185.867188 "/>
</g>
</g>
</svg>
