<?xml version="1.0" encoding="UTF-8"?>
<svg xmlns="http://www.w3.org/2000/svg" xmlns:xlink="http://www.w3.org/1999/xlink" width="375pt" height="374.999991pt" viewBox="0 0 375 374.999991" version="1.2">
<defs>
<clipPath id="clip1">
  <path d="M 0 1.640625 L 375 1.640625 L 375 373.640625 L 0 373.640625 Z M 0 1.640625 "/>
</clipPath>
</defs>
<g id="surface1">
<g clip-path="url(#clip1)" clip-rule="nonzero">
<path style=" stroke:none;fill-rule:nonzero;fill:#e0d7fc;fill-opacity:0.9;" d="M 1.191406 373.640625 C 0.613281 373.640625 0.144531 373.320312 0.144531 372.742188 C 0.144531 372.703125 0.15625 368.992188 0.542969 362.351562 C 0.574219 361.773438 1.078125 361.371094 1.648438 361.402344 C 2.226562 361.4375 2.667969 361.949219 2.636719 362.53125 C 2.253906 369.109375 2.242188 372.699219 2.242188 372.738281 C 2.242188 373.3125 1.769531 373.640625 1.191406 373.640625 Z M 2.179688 355.109375 C 2.152344 355.109375 2.125 355.109375 2.09375 355.105469 C 1.515625 355.058594 1.085938 354.550781 1.132812 353.972656 C 1.40625 350.621094 1.734375 347.152344 2.105469 343.671875 C 2.164062 343.097656 2.675781 342.683594 3.257812 342.738281 C 3.835938 342.800781 4.25 343.316406 4.191406 343.894531 C 3.820312 347.359375 3.496094 350.808594 3.226562 354.144531 C 3.179688 354.691406 2.71875 355.109375 2.179688 355.109375 Z M 4.117188 336.46875 C 4.074219 336.46875 4.03125 336.464844 3.988281 336.457031 C 3.410156 336.386719 3.003906 335.863281 3.078125 335.289062 C 3.5 331.910156 3.96875 328.46875 4.472656 325.058594 C 4.558594 324.480469 5.09375 324.085938 5.664062 324.171875 C 6.238281 324.257812 6.632812 324.789062 6.550781 325.363281 C 6.046875 328.761719 5.578125 332.1875 5.160156 335.546875 C 5.089844 336.078125 4.640625 336.46875 4.117188 336.46875 Z M 6.8125 317.945312 C 6.757812 317.945312 6.699219 317.941406 6.640625 317.933594 C 6.070312 317.835938 5.683594 317.296875 5.777344 316.726562 C 6.335938 313.355469 6.941406 309.9375 7.570312 306.566406 C 7.679688 305.996094 8.226562 305.621094 8.796875 305.730469 C 9.363281 305.835938 9.742188 306.382812 9.632812 306.957031 C 9.003906 310.3125 8.40625 313.714844 7.847656 317.070312 C 7.761719 317.582031 7.320312 317.945312 6.8125 317.945312 Z M 10.222656 299.558594 C 10.152344 299.558594 10.082031 299.550781 10.011719 299.535156 C 9.445312 299.417969 9.078125 298.867188 9.195312 298.296875 C 9.882812 294.949219 10.613281 291.558594 11.371094 288.21875 C 11.5 287.652344 12.066406 287.300781 12.628906 287.429688 C 13.191406 287.558594 13.546875 288.121094 13.417969 288.683594 C 12.664062 292.007812 11.933594 295.386719 11.25 298.71875 C 11.148438 299.214844 10.710938 299.558594 10.222656 299.558594 Z M 14.332031 281.320312 C 14.246094 281.320312 14.164062 281.308594 14.082031 281.289062 C 13.519531 281.152344 13.175781 280.582031 13.3125 280.019531 C 14.128906 276.691406 14.992188 273.332031 15.878906 270.039062 C 16.027344 269.476562 16.605469 269.148438 17.164062 269.296875 C 17.722656 269.445312 18.054688 270.023438 17.902344 270.582031 C 17.023438 273.863281 16.164062 277.210938 15.347656 280.523438 C 15.230469 281 14.804688 281.320312 14.332031 281.320312 Z M 19.144531 263.261719 C 19.046875 263.261719 18.949219 263.246094 18.851562 263.21875 C 18.296875 263.058594 17.976562 262.476562 18.136719 261.921875 C 19.085938 258.621094 20.082031 255.300781 21.09375 252.050781 C 21.269531 251.496094 21.855469 251.1875 22.40625 251.359375 C 22.960938 251.53125 23.269531 252.121094 23.097656 252.675781 C 22.085938 255.910156 21.097656 259.21875 20.152344 262.503906 C 20.019531 262.960938 19.597656 263.261719 19.144531 263.261719 Z M 24.671875 245.414062 C 24.5625 245.414062 24.453125 245.398438 24.339844 245.363281 C 23.792969 245.179688 23.496094 244.585938 23.675781 244.035156 C 24.761719 240.773438 25.894531 237.496094 27.039062 234.296875 C 27.234375 233.75 27.835938 233.464844 28.378906 233.664062 C 28.925781 233.859375 29.210938 234.457031 29.015625 235.003906 C 27.871094 238.1875 26.746094 241.453125 25.667969 244.699219 C 25.519531 245.136719 25.113281 245.414062 24.671875 245.414062 Z M 30.933594 227.816406 C 30.8125 227.816406 30.683594 227.796875 30.5625 227.75 C 30.019531 227.542969 29.75 226.9375 29.957031 226.394531 C 31.171875 223.191406 32.441406 219.96875 33.730469 216.808594 C 33.949219 216.273438 34.5625 216.015625 35.097656 216.234375 C 35.632812 216.453125 35.890625 217.066406 35.671875 217.601562 C 34.390625 220.746094 33.125 223.953125 31.914062 227.140625 C 31.757812 227.558594 31.359375 227.816406 30.933594 227.816406 Z M 37.953125 210.511719 C 37.8125 210.511719 37.671875 210.484375 37.539062 210.425781 C 37.003906 210.195312 36.761719 209.578125 36.992188 209.042969 C 38.351562 205.894531 39.761719 202.730469 41.191406 199.636719 C 41.433594 199.113281 42.058594 198.882812 42.582031 199.125 C 43.109375 199.367188 43.339844 199.992188 43.097656 200.515625 C 41.675781 203.59375 40.269531 206.738281 38.917969 209.875 C 38.746094 210.273438 38.359375 210.511719 37.953125 210.511719 Z M 45.746094 193.542969 C 45.589844 193.542969 45.433594 193.507812 45.285156 193.4375 C 44.765625 193.183594 44.546875 192.550781 44.800781 192.03125 C 46.304688 188.949219 47.867188 185.855469 49.441406 182.835938 C 49.707031 182.320312 50.339844 182.121094 50.855469 182.390625 C 51.367188 182.65625 51.566406 183.289062 51.300781 183.804688 C 49.734375 186.808594 48.183594 189.886719 46.6875 192.953125 C 46.503906 193.328125 46.132812 193.542969 45.746094 193.542969 Z M 54.332031 176.96875 C 54.160156 176.96875 53.984375 176.925781 53.824219 176.839844 C 53.320312 176.558594 53.132812 175.921875 53.414062 175.414062 C 55.0625 172.410156 56.773438 169.394531 58.496094 166.457031 C 58.789062 165.957031 59.429688 165.789062 59.929688 166.082031 C 60.429688 166.375 60.597656 167.019531 60.304688 167.519531 C 58.59375 170.441406 56.890625 173.4375 55.25 176.425781 C 55.058594 176.773438 54.699219 176.96875 54.332031 176.96875 Z M 63.726562 160.84375 C 63.539062 160.84375 63.351562 160.792969 63.179688 160.6875 C 62.683594 160.382812 62.53125 159.734375 62.835938 159.242188 C 64.636719 156.328125 66.5 153.410156 68.375 150.5625 C 68.695312 150.078125 69.34375 149.941406 69.828125 150.261719 C 70.3125 150.582031 70.445312 151.230469 70.125 151.714844 C 68.261719 154.546875 66.410156 157.449219 64.621094 160.347656 C 64.421875 160.667969 64.078125 160.84375 63.726562 160.84375 Z M 73.949219 145.234375 C 73.742188 145.234375 73.535156 145.171875 73.351562 145.046875 C 72.875 144.714844 72.757812 144.0625 73.089844 143.585938 C 75.042969 140.769531 77.0625 137.953125 79.085938 135.214844 C 79.429688 134.75 80.085938 134.648438 80.550781 134.996094 C 81.015625 135.339844 81.117188 135.996094 80.769531 136.464844 C 78.761719 139.183594 76.753906 141.980469 74.8125 144.78125 C 74.609375 145.078125 74.28125 145.234375 73.949219 145.234375 Z M 85 130.203125 C 84.773438 130.203125 84.546875 130.132812 84.355469 129.980469 C 83.898438 129.625 83.816406 128.964844 84.171875 128.507812 C 86.277344 125.808594 88.449219 123.109375 90.625 120.484375 C 90.996094 120.039062 91.65625 119.980469 92.101562 120.347656 C 92.546875 120.71875 92.609375 121.382812 92.238281 121.828125 C 90.074219 124.433594 87.917969 127.113281 85.828125 129.796875 C 85.621094 130.066406 85.3125 130.203125 85 130.203125 Z M 96.875 115.824219 C 96.632812 115.824219 96.386719 115.738281 96.1875 115.5625 C 95.75 115.179688 95.707031 114.515625 96.089844 114.082031 C 98.34375 111.503906 100.664062 108.933594 102.992188 106.445312 C 103.386719 106.023438 104.050781 106 104.472656 106.394531 C 104.898438 106.792969 104.921875 107.457031 104.523438 107.878906 C 102.214844 110.351562 99.90625 112.90625 97.664062 115.464844 C 97.457031 115.699219 97.167969 115.824219 96.875 115.824219 Z M 109.566406 102.15625 C 109.300781 102.15625 109.035156 102.054688 108.828125 101.855469 C 108.417969 101.449219 108.410156 100.78125 108.820312 100.371094 C 111.21875 97.933594 113.6875 95.507812 116.160156 93.15625 C 116.582031 92.757812 117.246094 92.777344 117.644531 93.195312 C 118.042969 93.613281 118.027344 94.28125 117.605469 94.679688 C 115.148438 97.015625 112.695312 99.425781 110.3125 101.84375 C 110.105469 102.050781 109.835938 102.15625 109.566406 102.15625 Z M 123.039062 89.273438 C 122.753906 89.273438 122.46875 89.15625 122.261719 88.925781 C 121.871094 88.492188 121.910156 87.832031 122.339844 87.441406 C 124.882812 85.152344 127.496094 82.878906 130.101562 80.6875 C 130.546875 80.3125 131.207031 80.371094 131.582031 80.816406 C 131.953125 81.257812 131.894531 81.921875 131.453125 82.292969 C 128.863281 84.472656 126.269531 86.730469 123.742188 89.003906 C 123.542969 89.183594 123.289062 89.273438 123.039062 89.273438 Z M 137.269531 77.230469 C 136.960938 77.230469 136.652344 77.09375 136.445312 76.832031 C 136.085938 76.378906 136.160156 75.71875 136.613281 75.359375 C 139.289062 73.230469 142.035156 71.121094 144.773438 69.089844 C 145.238281 68.742188 145.894531 68.839844 146.242188 69.304688 C 146.585938 69.773438 146.488281 70.429688 146.023438 70.773438 C 143.304688 72.792969 140.578125 74.886719 137.917969 77.003906 C 137.726562 77.152344 137.496094 77.230469 137.269531 77.230469 Z M 152.199219 66.074219 C 151.871094 66.074219 151.542969 65.917969 151.339844 65.628906 C 151.007812 65.152344 151.125 64.5 151.597656 64.167969 C 154.394531 62.207031 157.261719 60.269531 160.121094 58.402344 C 160.609375 58.085938 161.257812 58.226562 161.574219 58.710938 C 161.890625 59.195312 161.753906 59.847656 161.265625 60.164062 C 158.425781 62.015625 155.578125 63.941406 152.800781 65.886719 C 152.617188 66.015625 152.410156 66.074219 152.199219 66.074219 Z M 167.78125 55.851562 C 167.425781 55.851562 167.082031 55.671875 166.886719 55.351562 C 166.582031 54.855469 166.738281 54.210938 167.230469 53.90625 C 170.128906 52.128906 173.105469 50.367188 176.085938 48.667969 C 176.589844 48.382812 177.230469 48.558594 177.515625 49.0625 C 177.800781 49.566406 177.625 50.207031 177.125 50.492188 C 174.164062 52.179688 171.207031 53.929688 168.328125 55.695312 C 168.15625 55.800781 167.96875 55.851562 167.78125 55.851562 Z M 183.945312 46.582031 C 183.570312 46.582031 183.207031 46.378906 183.019531 46.023438 C 182.746094 45.515625 182.9375 44.878906 183.449219 44.605469 C 186.445312 43.003906 189.523438 41.421875 192.597656 39.902344 C 193.117188 39.644531 193.746094 39.859375 194.003906 40.378906 C 194.257812 40.898438 194.046875 41.527344 193.527344 41.78125 C 190.46875 43.292969 187.414062 44.863281 184.4375 46.457031 C 184.28125 46.539062 184.109375 46.582031 183.945312 46.582031 Z M 200.625 38.277344 C 200.226562 38.277344 199.847656 38.050781 199.671875 37.667969 C 199.429688 37.144531 199.65625 36.519531 200.183594 36.277344 C 203.265625 34.851562 206.425781 33.449219 209.585938 32.109375 C 210.121094 31.878906 210.734375 32.128906 210.960938 32.664062 C 211.1875 33.195312 210.9375 33.8125 210.40625 34.039062 C 207.269531 35.371094 204.125 36.765625 201.066406 38.179688 C 200.921875 38.246094 200.769531 38.277344 200.625 38.277344 Z M 217.75 30.941406 C 217.328125 30.941406 216.9375 30.6875 216.773438 30.277344 C 216.5625 29.738281 216.824219 29.128906 217.359375 28.914062 C 220.515625 27.664062 223.753906 26.441406 226.980469 25.273438 C 227.523438 25.078125 228.125 25.359375 228.324219 25.90625 C 228.519531 26.449219 228.238281 27.050781 227.691406 27.25 C 224.484375 28.410156 221.269531 29.625 218.132812 30.867188 C 218.007812 30.917969 217.878906 30.941406 217.75 30.941406 Z M 235.253906 24.554688 C 234.8125 24.554688 234.40625 24.277344 234.257812 23.839844 C 234.074219 23.289062 234.367188 22.695312 234.921875 22.511719 C 238.136719 21.4375 241.429688 20.386719 244.714844 19.390625 C 245.273438 19.222656 245.855469 19.535156 246.023438 20.089844 C 246.191406 20.644531 245.878906 21.230469 245.324219 21.398438 C 242.058594 22.386719 238.78125 23.433594 235.585938 24.503906 C 235.476562 24.539062 235.363281 24.554688 235.253906 24.554688 Z M 253.066406 19.101562 C 252.609375 19.101562 252.1875 18.796875 252.058594 18.335938 C 251.902344 17.777344 252.230469 17.199219 252.789062 17.042969 C 256.058594 16.132812 259.402344 15.25 262.726562 14.417969 C 263.292969 14.277344 263.859375 14.621094 263.996094 15.183594 C 264.136719 15.746094 263.796875 16.316406 263.234375 16.457031 C 259.925781 17.28125 256.601562 18.160156 253.347656 19.0625 C 253.253906 19.089844 253.160156 19.101562 253.066406 19.101562 Z M 271.136719 14.546875 C 270.65625 14.546875 270.222656 14.214844 270.113281 13.726562 C 269.984375 13.164062 270.339844 12.601562 270.90625 12.472656 C 274.222656 11.722656 277.601562 11 280.957031 10.332031 C 281.523438 10.21875 282.078125 10.585938 282.191406 11.152344 C 282.304688 11.722656 281.933594 12.273438 281.367188 12.386719 C 278.027344 13.054688 274.664062 13.773438 271.367188 14.519531 C 271.289062 14.539062 271.210938 14.546875 271.136719 14.546875 Z M 289.394531 10.851562 C 288.898438 10.851562 288.457031 10.492188 288.367188 9.984375 C 288.261719 9.414062 288.644531 8.871094 289.214844 8.765625 C 292.554688 8.167969 295.96875 7.601562 299.351562 7.082031 C 299.921875 6.992188 300.460938 7.386719 300.550781 7.960938 C 300.640625 8.53125 300.246094 9.066406 299.671875 9.15625 C 296.300781 9.675781 292.910156 10.238281 289.582031 10.835938 C 289.519531 10.84375 289.457031 10.851562 289.394531 10.851562 Z M 307.808594 7.972656 C 307.289062 7.972656 306.835938 7.589844 306.765625 7.0625 C 306.6875 6.488281 307.09375 5.960938 307.667969 5.882812 C 311.03125 5.429688 314.464844 5.011719 317.867188 4.628906 C 318.445312 4.566406 318.960938 4.980469 319.027344 5.558594 C 319.089844 6.132812 318.675781 6.652344 318.101562 6.71875 C 314.714844 7.09375 311.296875 7.511719 307.949219 7.964844 C 307.902344 7.96875 307.855469 7.972656 307.808594 7.972656 Z M 326.324219 5.871094 C 325.789062 5.871094 325.332031 5.460938 325.28125 4.917969 C 325.230469 4.34375 325.652344 3.832031 326.230469 3.777344 C 329.601562 3.464844 333.046875 3.179688 336.472656 2.933594 C 337.0625 2.890625 337.554688 3.328125 337.59375 3.90625 C 337.636719 4.480469 337.199219 4.984375 336.625 5.027344 C 333.210938 5.273438 329.777344 5.554688 326.425781 5.867188 C 326.390625 5.871094 326.355469 5.871094 326.324219 5.871094 Z M 344.914062 4.5 C 344.363281 4.5 343.898438 4.066406 343.867188 3.507812 C 343.835938 2.929688 344.28125 2.433594 344.859375 2.402344 C 348.246094 2.214844 351.699219 2.058594 355.128906 1.941406 C 355.683594 1.921875 356.195312 2.375 356.210938 2.953125 C 356.234375 3.53125 355.78125 4.019531 355.203125 4.039062 C 351.789062 4.15625 348.347656 4.3125 344.976562 4.496094 C 344.953125 4.496094 344.933594 4.5 344.914062 4.5 Z M 363.550781 4.179688 C 362.980469 4.179688 362.511719 3.539062 362.503906 2.964844 C 362.492188 2.386719 362.953125 1.816406 363.53125 1.804688 C 366.917969 1.738281 370.378906 1.660156 373.8125 1.65625 C 374.390625 1.65625 374.859375 2.105469 374.859375 2.683594 C 374.859375 3.265625 374.390625 3.90625 373.8125 3.90625 C 370.390625 3.90625 366.941406 3.433594 363.570312 4.179688 C 363.5625 4.179688 363.554688 4.179688 363.550781 4.179688 Z M 363.550781 4.179688 "/>
</g>
</g>
</svg>
