<?xml version="1.0" encoding="UTF-8"?>
<svg xmlns="http://www.w3.org/2000/svg" xmlns:xlink="http://www.w3.org/1999/xlink" width="114pt" height="168.749997pt" viewBox="0 0 114 168.749997" version="1.2">
<defs>
<clipPath id="clip1">
  <path d="M 98 0.0859375 L 104 0.0859375 L 104 6 L 98 6 Z M 98 0.0859375 "/>
</clipPath>
<clipPath id="clip2">
  <path d="M 84 0.0859375 L 91 0.0859375 L 91 6 L 84 6 Z M 84 0.0859375 "/>
</clipPath>
<clipPath id="clip3">
  <path d="M 38.164062 162.777344 L 43.4375 162.777344 L 43.4375 168.347656 L 38.164062 168.347656 Z M 38.164062 162.777344 "/>
</clipPath>
<clipPath id="clip4">
  <path d="M 0.0859375 110 L 6 110 L 6 116 L 0.0859375 116 Z M 0.0859375 110 "/>
</clipPath>
<clipPath id="clip5">
  <path d="M 108.46875 10 L 113.894531 10 L 113.894531 15.574219 L 108.46875 15.574219 Z M 108.46875 10 "/>
</clipPath>
</defs>
<g id="surface1">
<path style=" stroke:none;fill-rule:nonzero;fill:rgb(38.42926%,37.649536%,70.979309%);fill-opacity:1;" d="M 16.761719 148.417969 C 18.179688 148.417969 19.066406 149.394531 19.066406 150.8125 C 19.066406 152.226562 18.179688 153.214844 16.761719 153.214844 C 15.347656 153.214844 14.40625 152.226562 14.40625 150.8125 C 14.40625 149.394531 15.347656 148.417969 16.761719 148.417969 "/>
<path style=" stroke:none;fill-rule:nonzero;fill:rgb(38.42926%,37.649536%,70.979309%);fill-opacity:1;" d="M 74.4375 91.382812 C 75.855469 91.382812 76.746094 92.230469 76.746094 93.648438 C 76.746094 95.066406 75.855469 96.121094 74.4375 96.121094 C 73.023438 96.121094 71.773438 95.066406 71.773438 93.648438 C 71.773438 92.230469 73.023438 91.382812 74.4375 91.382812 "/>
<path style=" stroke:none;fill-rule:nonzero;fill:rgb(38.42926%,37.649536%,70.979309%);fill-opacity:1;" d="M 32.796875 149.742188 C 34.210938 149.742188 35.316406 151.019531 35.316406 152.433594 C 35.316406 153.851562 34.210938 154.882812 32.796875 154.882812 C 31.382812 154.882812 30.519531 153.851562 30.519531 152.433594 C 30.519531 151.019531 31.382812 149.742188 32.796875 149.742188 "/>
<path style=" stroke:none;fill-rule:nonzero;fill:rgb(38.42926%,37.649536%,70.979309%);fill-opacity:1;" d="M 79.308594 26.316406 C 80.722656 26.316406 81.558594 27.667969 81.558594 29.082031 C 81.558594 30.5 80.722656 31.875 79.308594 31.875 C 77.890625 31.875 76.773438 30.5 76.773438 29.082031 C 76.773438 27.667969 77.890625 26.316406 79.308594 26.316406 "/>
<path style=" stroke:none;fill-rule:nonzero;fill:rgb(38.42926%,37.649536%,70.979309%);fill-opacity:1;" d="M 31.460938 133.457031 C 32.875 133.457031 34.011719 134.300781 34.011719 135.714844 C 34.011719 137.132812 32.875 138.390625 31.460938 138.390625 C 30.046875 138.390625 28.808594 137.132812 28.808594 135.714844 C 28.808594 134.300781 30.046875 133.457031 31.460938 133.457031 "/>
<path style=" stroke:none;fill-rule:nonzero;fill:rgb(38.42926%,37.649536%,70.979309%);fill-opacity:1;" d="M 55.675781 138.507812 C 57.089844 138.507812 58.53125 139.953125 58.53125 141.371094 C 58.53125 142.789062 57.089844 143.769531 55.675781 143.769531 C 54.257812 143.769531 53.101562 142.789062 53.101562 141.371094 C 53.101562 139.953125 54.257812 138.507812 55.675781 138.507812 "/>
<path style=" stroke:none;fill-rule:nonzero;fill:rgb(38.42926%,37.649536%,70.979309%);fill-opacity:1;" d="M 95.578125 15.164062 C 96.996094 15.164062 98.316406 16.621094 98.316406 18.039062 C 98.316406 19.457031 96.996094 20.550781 95.578125 20.550781 C 94.164062 20.550781 93.328125 19.457031 93.328125 18.039062 C 93.328125 16.621094 94.164062 15.164062 95.578125 15.164062 "/>
<path style=" stroke:none;fill-rule:nonzero;fill:rgb(38.42926%,37.649536%,70.979309%);fill-opacity:1;" d="M 14.851562 111.597656 C 16.265625 111.597656 17.613281 112.765625 17.613281 114.183594 C 17.613281 115.601562 16.265625 116.691406 14.851562 116.691406 C 13.433594 116.691406 12.410156 115.601562 12.410156 114.183594 C 12.410156 112.765625 13.433594 111.597656 14.851562 111.597656 "/>
<path style=" stroke:none;fill-rule:nonzero;fill:rgb(38.42926%,37.649536%,70.979309%);fill-opacity:1;" d="M 78.164062 55.082031 C 79.578125 55.082031 80.949219 56.28125 80.949219 57.699219 C 80.949219 59.113281 79.578125 60.019531 78.164062 60.019531 C 76.746094 60.019531 75.546875 59.113281 75.546875 57.699219 C 75.546875 56.28125 76.746094 55.082031 78.164062 55.082031 "/>
<path style=" stroke:none;fill-rule:nonzero;fill:rgb(38.42926%,37.649536%,70.979309%);fill-opacity:1;" d="M 58.851562 88.550781 C 60.265625 88.550781 61.183594 89.886719 61.183594 91.304688 C 61.183594 92.71875 60.265625 94.03125 58.851562 94.03125 C 57.433594 94.03125 56.464844 92.71875 56.464844 91.304688 C 56.464844 89.886719 57.433594 88.550781 58.851562 88.550781 "/>
<path style=" stroke:none;fill-rule:nonzero;fill:rgb(38.42926%,37.649536%,70.979309%);fill-opacity:1;" d="M 92.859375 46.890625 C 94.277344 46.890625 95.621094 48.238281 95.621094 49.65625 C 95.621094 51.074219 94.277344 52.375 92.859375 52.375 C 91.445312 52.375 90.359375 51.074219 90.359375 49.65625 C 90.359375 48.238281 91.445312 46.890625 92.859375 46.890625 "/>
<path style=" stroke:none;fill-rule:nonzero;fill:rgb(38.42926%,37.649536%,70.979309%);fill-opacity:1;" d="M 46.710938 32.089844 C 48.125 32.089844 49.144531 33.058594 49.144531 34.476562 C 49.144531 35.894531 48.125 36.96875 46.710938 36.96875 C 45.296875 36.96875 43.839844 35.894531 43.839844 34.476562 C 43.839844 33.058594 45.296875 32.089844 46.710938 32.089844 "/>
<path style=" stroke:none;fill-rule:nonzero;fill:rgb(38.42926%,37.649536%,70.979309%);fill-opacity:1;" d="M 21.875 159.808594 C 23.289062 159.808594 24.480469 161.1875 24.480469 162.605469 C 24.480469 164.023438 23.289062 165.121094 21.875 165.121094 C 20.457031 165.121094 19.410156 164.023438 19.410156 162.605469 C 19.410156 161.1875 20.457031 159.808594 21.875 159.808594 "/>
<path style=" stroke:none;fill-rule:nonzero;fill:rgb(38.42926%,37.649536%,70.979309%);fill-opacity:1;" d="M 48.734375 18.792969 C 50.148438 18.792969 51.613281 20.226562 51.613281 21.644531 C 51.613281 23.058594 50.148438 24.140625 48.734375 24.140625 C 47.320312 24.140625 45.929688 23.058594 45.929688 21.644531 C 45.929688 20.226562 47.320312 18.792969 48.734375 18.792969 "/>
<path style=" stroke:none;fill-rule:nonzero;fill:rgb(38.42926%,37.649536%,70.979309%);fill-opacity:1;" d="M 46.402344 69.707031 C 47.816406 69.707031 49.152344 70.542969 49.152344 71.960938 C 49.152344 73.378906 47.816406 74.289062 46.402344 74.289062 C 44.988281 74.289062 43.660156 73.378906 43.660156 71.960938 C 43.660156 70.542969 44.988281 69.707031 46.402344 69.707031 "/>
<path style=" stroke:none;fill-rule:nonzero;fill:rgb(38.42926%,37.649536%,70.979309%);fill-opacity:1;" d="M 42.671875 96.855469 C 44.085938 96.855469 45.414062 98.125 45.414062 99.542969 C 45.414062 100.957031 44.085938 102.367188 42.671875 102.367188 C 41.257812 102.367188 40.023438 100.957031 40.023438 99.542969 C 40.023438 98.125 41.257812 96.855469 42.671875 96.855469 "/>
<path style=" stroke:none;fill-rule:nonzero;fill:rgb(38.42926%,37.649536%,70.979309%);fill-opacity:1;" d="M 7.3125 142.644531 C 8.726562 142.644531 9.632812 144.066406 9.632812 145.484375 C 9.632812 146.902344 8.726562 148.109375 7.3125 148.109375 C 5.894531 148.109375 4.6875 146.902344 4.6875 145.484375 C 4.6875 144.066406 5.894531 142.644531 7.3125 142.644531 "/>
<path style=" stroke:none;fill-rule:nonzero;fill:rgb(38.42926%,37.649536%,70.979309%);fill-opacity:1;" d="M 56.140625 119.644531 C 57.554688 119.644531 58.671875 120.753906 58.671875 122.171875 C 58.671875 123.585938 57.554688 125.046875 56.140625 125.046875 C 54.722656 125.046875 53.558594 123.585938 53.558594 122.171875 C 53.558594 120.753906 54.722656 119.644531 56.140625 119.644531 "/>
<path style=" stroke:none;fill-rule:nonzero;fill:rgb(38.42926%,37.649536%,70.979309%);fill-opacity:1;" d="M 67.078125 62.257812 C 68.492188 62.257812 69.363281 63.648438 69.363281 65.0625 C 69.363281 66.480469 68.492188 67.636719 67.078125 67.636719 C 65.660156 67.636719 64.199219 66.480469 64.199219 65.0625 C 64.199219 63.648438 65.660156 62.257812 67.078125 62.257812 "/>
<path style=" stroke:none;fill-rule:nonzero;fill:rgb(38.42926%,37.649536%,70.979309%);fill-opacity:1;" d="M 57.894531 51.195312 C 59.3125 51.195312 60.144531 52.355469 60.144531 53.773438 C 60.144531 55.191406 59.3125 56.636719 57.894531 56.636719 C 56.480469 56.636719 55.523438 55.191406 55.523438 53.773438 C 55.523438 52.355469 56.480469 51.195312 57.894531 51.195312 "/>
<path style=" stroke:none;fill-rule:nonzero;fill:rgb(38.42926%,37.649536%,70.979309%);fill-opacity:1;" d="M 79.777344 11.996094 C 81.191406 11.996094 82.523438 13.339844 82.523438 14.757812 C 82.523438 16.175781 81.191406 17.597656 79.777344 17.597656 C 78.359375 17.597656 77.316406 16.175781 77.316406 14.757812 C 77.316406 13.339844 78.359375 11.996094 79.777344 11.996094 "/>
<path style=" stroke:none;fill-rule:nonzero;fill:rgb(38.42926%,37.649536%,70.979309%);fill-opacity:1;" d="M 85.390625 37.574219 C 86.808594 37.574219 87.671875 38.664062 87.671875 40.078125 C 87.671875 41.496094 86.808594 42.9375 85.390625 42.9375 C 83.976562 42.9375 83.027344 41.496094 83.027344 40.078125 C 83.027344 38.664062 83.976562 37.574219 85.390625 37.574219 "/>
<path style=" stroke:none;fill-rule:nonzero;fill:rgb(38.42926%,37.649536%,70.979309%);fill-opacity:1;" d="M 19.785156 73.171875 C 21.203125 73.171875 22.070312 74.085938 22.070312 75.503906 C 22.070312 76.917969 21.203125 78.125 19.785156 78.125 C 18.371094 78.125 17.320312 76.917969 17.320312 75.503906 C 17.320312 74.085938 18.371094 73.171875 19.785156 73.171875 "/>
<path style=" stroke:none;fill-rule:nonzero;fill:rgb(38.42926%,37.649536%,70.979309%);fill-opacity:1;" d="M 58.945312 102.90625 C 60.359375 102.90625 61.570312 104.320312 61.570312 105.734375 C 61.570312 107.152344 60.359375 108.589844 58.945312 108.589844 C 57.53125 108.589844 56.160156 107.152344 56.160156 105.734375 C 56.160156 104.320312 57.53125 102.90625 58.945312 102.90625 "/>
<path style=" stroke:none;fill-rule:nonzero;fill:rgb(38.42926%,37.649536%,70.979309%);fill-opacity:1;" d="M 93.15625 61.910156 C 94.574219 61.910156 95.605469 63.195312 95.605469 64.613281 C 95.605469 66.03125 94.574219 67.128906 93.15625 67.128906 C 91.742188 67.128906 90.546875 66.03125 90.546875 64.613281 C 90.546875 63.195312 91.742188 61.910156 93.15625 61.910156 "/>
<path style=" stroke:none;fill-rule:nonzero;fill:rgb(38.42926%,37.649536%,70.979309%);fill-opacity:1;" d="M 59.898438 152.199219 C 61.316406 152.199219 62.179688 153.105469 62.179688 154.519531 C 62.179688 155.9375 61.316406 156.933594 59.898438 156.933594 C 58.484375 156.933594 57.585938 155.9375 57.585938 154.519531 C 57.585938 153.105469 58.484375 152.199219 59.898438 152.199219 "/>
<g clip-path="url(#clip1)" clip-rule="nonzero">
<path style=" stroke:none;fill-rule:nonzero;fill:rgb(38.42926%,37.649536%,70.979309%);fill-opacity:1;" d="M 101.234375 0.328125 C 102.648438 0.328125 103.835938 1.527344 103.835938 2.945312 C 103.835938 4.359375 102.648438 5.617188 101.234375 5.617188 C 99.820312 5.617188 98.378906 4.359375 98.378906 2.945312 C 98.378906 1.527344 99.820312 0.328125 101.234375 0.328125 "/>
</g>
<path style=" stroke:none;fill-rule:nonzero;fill:rgb(38.42926%,37.649536%,70.979309%);fill-opacity:1;" d="M 17.789062 93.164062 C 19.203125 93.164062 20.390625 94.578125 20.390625 95.996094 C 20.390625 97.414062 19.203125 98.257812 17.789062 98.257812 C 16.375 98.257812 15.160156 97.414062 15.160156 95.996094 C 15.160156 94.578125 16.375 93.164062 17.789062 93.164062 "/>
<path style=" stroke:none;fill-rule:nonzero;fill:rgb(38.42926%,37.649536%,70.979309%);fill-opacity:1;" d="M 35.261719 83.636719 C 36.675781 83.636719 37.863281 84.71875 37.863281 86.132812 C 37.863281 87.550781 36.675781 88.957031 35.261719 88.957031 C 33.847656 88.957031 32.753906 87.550781 32.753906 86.132812 C 32.753906 84.71875 33.847656 83.636719 35.261719 83.636719 "/>
<path style=" stroke:none;fill-rule:nonzero;fill:rgb(38.42926%,37.649536%,70.979309%);fill-opacity:1;" d="M 20.691406 124.558594 C 22.105469 124.558594 23.394531 125.648438 23.394531 127.0625 C 23.394531 128.480469 22.105469 129.742188 20.691406 129.742188 C 19.277344 129.742188 18.039062 128.480469 18.039062 127.0625 C 18.039062 125.648438 19.277344 124.558594 20.691406 124.558594 "/>
<g clip-path="url(#clip2)" clip-rule="nonzero">
<path style=" stroke:none;fill-rule:nonzero;fill:rgb(38.42926%,37.649536%,70.979309%);fill-opacity:1;" d="M 87.5625 0.527344 C 88.976562 0.527344 90.421875 1.457031 90.421875 2.875 C 90.421875 4.292969 88.976562 5.449219 87.5625 5.449219 C 86.148438 5.449219 84.71875 4.292969 84.71875 2.875 C 84.71875 1.457031 86.148438 0.527344 87.5625 0.527344 "/>
</g>
<path style=" stroke:none;fill-rule:nonzero;fill:rgb(38.42926%,37.649536%,70.979309%);fill-opacity:1;" d="M 109.285156 36.914062 C 110.699219 36.914062 111.992188 38.035156 111.992188 39.453125 C 111.992188 40.871094 110.699219 42.1875 109.285156 42.1875 C 107.871094 42.1875 106.972656 40.871094 106.972656 39.453125 C 106.972656 38.035156 107.871094 36.914062 109.285156 36.914062 "/>
<path style=" stroke:none;fill-rule:nonzero;fill:rgb(38.42926%,37.649536%,70.979309%);fill-opacity:1;" d="M 102.382812 25.929688 C 103.800781 25.929688 105.042969 26.859375 105.042969 28.277344 C 105.042969 29.695312 103.800781 30.898438 102.382812 30.898438 C 100.96875 30.898438 100.054688 29.695312 100.054688 28.277344 C 100.054688 26.859375 100.96875 25.929688 102.382812 25.929688 "/>
<path style=" stroke:none;fill-rule:nonzero;fill:rgb(38.42926%,37.649536%,70.979309%);fill-opacity:1;" d="M 45.53125 126.148438 C 46.949219 126.148438 48.3125 127.371094 48.3125 128.785156 C 48.3125 130.203125 46.949219 131.058594 45.53125 131.058594 C 44.117188 131.058594 42.738281 130.203125 42.738281 128.785156 C 42.738281 127.371094 44.117188 126.148438 45.53125 126.148438 "/>
<path style=" stroke:none;fill-rule:nonzero;fill:rgb(38.42926%,37.649536%,70.979309%);fill-opacity:1;" d="M 109.507812 52.175781 C 110.921875 52.175781 112.082031 53.351562 112.082031 54.769531 C 112.082031 56.1875 110.921875 57.488281 109.507812 57.488281 C 108.09375 57.488281 107.132812 56.1875 107.132812 54.769531 C 107.132812 53.351562 108.09375 52.175781 109.507812 52.175781 "/>
<path style=" stroke:none;fill-rule:nonzero;fill:rgb(38.42926%,37.649536%,70.979309%);fill-opacity:1;" d="M 71.886719 75.777344 C 73.300781 75.777344 74.570312 77.203125 74.570312 78.621094 C 74.570312 80.035156 73.300781 81.5 71.886719 81.5 C 70.46875 81.5 69.5 80.035156 69.5 78.621094 C 69.5 77.203125 70.46875 75.777344 71.886719 75.777344 "/>
<path style=" stroke:none;fill-rule:nonzero;fill:rgb(38.42926%,37.649536%,70.979309%);fill-opacity:1;" d="M 68.136719 40.335938 C 69.550781 40.335938 70.417969 41.359375 70.417969 42.777344 C 70.417969 44.195312 69.550781 45.457031 68.136719 45.457031 C 66.71875 45.457031 65.574219 44.195312 65.574219 42.777344 C 65.574219 41.359375 66.71875 40.335938 68.136719 40.335938 "/>
<path style=" stroke:none;fill-rule:nonzero;fill:rgb(38.42926%,37.649536%,70.979309%);fill-opacity:1;" d="M 57 76.890625 C 58.414062 76.890625 59.300781 77.859375 59.300781 79.273438 C 59.300781 80.691406 58.414062 81.777344 57 81.777344 C 55.582031 81.777344 54.121094 80.691406 54.121094 79.273438 C 54.121094 77.859375 55.582031 76.890625 57 76.890625 "/>
<path style=" stroke:none;fill-rule:nonzero;fill:rgb(38.42926%,37.649536%,70.979309%);fill-opacity:1;" d="M 39.960938 43.054688 C 41.375 43.054688 42.242188 44.160156 42.242188 45.574219 C 42.242188 46.992188 41.375 48.449219 39.960938 48.449219 C 38.542969 48.449219 37.335938 46.992188 37.335938 45.574219 C 37.335938 44.160156 38.542969 43.054688 39.960938 43.054688 "/>
<path style=" stroke:none;fill-rule:nonzero;fill:rgb(38.42926%,37.649536%,70.979309%);fill-opacity:1;" d="M 29.660156 63.394531 C 31.074219 63.394531 32.21875 64.726562 32.21875 66.144531 C 32.21875 67.5625 31.074219 68.511719 29.660156 68.511719 C 28.246094 68.511719 27.164062 67.5625 27.164062 66.144531 C 27.164062 64.726562 28.246094 63.394531 29.660156 63.394531 "/>
<g clip-path="url(#clip3)" clip-rule="nonzero">
<path style=" stroke:none;fill-rule:nonzero;fill:rgb(38.42926%,37.649536%,70.979309%);fill-opacity:1;" d="M 40.566406 162.859375 C 41.980469 162.859375 43.421875 164.167969 43.421875 165.585938 C 43.421875 167 41.980469 168.347656 40.566406 168.347656 C 39.152344 168.347656 38.277344 167 38.277344 165.585938 C 38.277344 164.167969 39.152344 162.859375 40.566406 162.859375 "/>
</g>
<path style=" stroke:none;fill-rule:nonzero;fill:rgb(38.42926%,37.649536%,70.979309%);fill-opacity:1;" d="M 47.945312 152.003906 C 49.359375 152.003906 50.457031 153.316406 50.457031 154.734375 C 50.457031 156.152344 49.359375 157.347656 47.945312 157.347656 C 46.527344 157.347656 45.109375 156.152344 45.109375 154.734375 C 45.109375 153.316406 46.527344 152.003906 47.945312 152.003906 "/>
<path style=" stroke:none;fill-rule:nonzero;fill:rgb(38.42926%,37.649536%,70.979309%);fill-opacity:1;" d="M 37.136719 112.101562 C 38.554688 112.101562 39.609375 113.367188 39.609375 114.78125 C 39.609375 116.199219 38.554688 117.226562 37.136719 117.226562 C 35.722656 117.226562 34.476562 116.199219 34.476562 114.78125 C 34.476562 113.367188 35.722656 112.101562 37.136719 112.101562 "/>
<path style=" stroke:none;fill-rule:nonzero;fill:rgb(38.42926%,37.649536%,70.979309%);fill-opacity:1;" d="M 87.089844 73.144531 C 88.503906 73.144531 89.609375 74.085938 89.609375 75.503906 C 89.609375 76.921875 88.503906 77.808594 87.089844 77.808594 C 85.675781 77.808594 84.242188 76.921875 84.242188 75.503906 C 84.242188 74.085938 85.675781 73.144531 87.089844 73.144531 "/>
<path style=" stroke:none;fill-rule:nonzero;fill:rgb(38.42926%,37.649536%,70.979309%);fill-opacity:1;" d="M 27.558594 99.753906 C 28.972656 99.753906 29.8125 101.191406 29.8125 102.609375 C 29.8125 104.027344 28.972656 105.359375 27.558594 105.359375 C 26.140625 105.359375 25.007812 104.027344 25.007812 102.609375 C 25.007812 101.191406 26.140625 99.753906 27.558594 99.753906 "/>
<g clip-path="url(#clip4)" clip-rule="nonzero">
<path style=" stroke:none;fill-rule:nonzero;fill:rgb(38.42926%,37.649536%,70.979309%);fill-opacity:1;" d="M 2.957031 110.699219 C 4.371094 110.699219 5.660156 111.605469 5.660156 113.023438 C 5.660156 114.441406 4.371094 115.285156 2.957031 115.285156 C 1.542969 115.285156 0.0859375 114.441406 0.0859375 113.023438 C 0.0859375 111.605469 1.542969 110.699219 2.957031 110.699219 "/>
</g>
<path style=" stroke:none;fill-rule:nonzero;fill:rgb(38.42926%,37.649536%,70.979309%);fill-opacity:1;" d="M 10.386719 83.707031 C 11.800781 83.707031 12.855469 85.144531 12.855469 86.5625 C 12.855469 87.980469 11.800781 89.382812 10.386719 89.382812 C 8.96875 89.382812 8.046875 87.980469 8.046875 86.5625 C 8.046875 85.144531 8.96875 83.707031 10.386719 83.707031 "/>
<path style=" stroke:none;fill-rule:nonzero;fill:rgb(38.42926%,37.649536%,70.979309%);fill-opacity:1;" d="M 70.574219 3.265625 C 71.992188 3.265625 73.273438 4.171875 73.273438 5.585938 C 73.273438 7.003906 71.992188 7.9375 70.574219 7.9375 C 69.160156 7.9375 67.769531 7.003906 67.769531 5.585938 C 67.769531 4.171875 69.160156 3.265625 70.574219 3.265625 "/>
<path style=" stroke:none;fill-rule:nonzero;fill:rgb(38.42926%,37.649536%,70.979309%);fill-opacity:1;" d="M 106.914062 69.175781 C 108.332031 69.175781 109.4375 70.386719 109.4375 71.804688 C 109.4375 73.21875 108.332031 74.410156 106.914062 74.410156 C 105.5 74.410156 104.25 73.21875 104.25 71.804688 C 104.25 70.386719 105.5 69.175781 106.914062 69.175781 "/>
<path style=" stroke:none;fill-rule:nonzero;fill:rgb(38.42926%,37.649536%,70.979309%);fill-opacity:1;" d="M 6.363281 129.699219 C 7.777344 129.699219 8.859375 130.972656 8.859375 132.390625 C 8.859375 133.808594 7.777344 134.863281 6.363281 134.863281 C 4.945312 134.863281 3.589844 133.808594 3.589844 132.390625 C 3.589844 130.972656 4.945312 129.699219 6.363281 129.699219 "/>
<path style=" stroke:none;fill-rule:nonzero;fill:rgb(38.42926%,37.649536%,70.979309%);fill-opacity:1;" d="M 43.179688 55.097656 C 44.597656 55.097656 45.773438 56.375 45.773438 57.792969 C 45.773438 59.210938 44.597656 60.585938 43.179688 60.585938 C 41.765625 60.585938 40.355469 59.210938 40.355469 57.792969 C 40.355469 56.375 41.765625 55.097656 43.179688 55.097656 "/>
<path style=" stroke:none;fill-rule:nonzero;fill:rgb(38.42926%,37.649536%,70.979309%);fill-opacity:1;" d="M 91.292969 83.722656 C 92.707031 83.722656 93.714844 85.078125 93.714844 86.496094 C 93.714844 87.914062 92.707031 89.074219 91.292969 89.074219 C 89.875 89.074219 88.878906 87.914062 88.878906 86.496094 C 88.878906 85.078125 89.875 83.722656 91.292969 83.722656 "/>
<path style=" stroke:none;fill-rule:nonzero;fill:rgb(38.42926%,37.649536%,70.979309%);fill-opacity:1;" d="M 65.523438 26.210938 C 66.941406 26.210938 67.929688 27.054688 67.929688 28.46875 C 67.929688 29.886719 66.941406 31.285156 65.523438 31.285156 C 64.109375 31.285156 62.714844 29.886719 62.714844 28.46875 C 62.714844 27.054688 64.109375 26.210938 65.523438 26.210938 "/>
<g clip-path="url(#clip5)" clip-rule="nonzero">
<path style=" stroke:none;fill-rule:nonzero;fill:rgb(38.42926%,37.649536%,70.979309%);fill-opacity:1;" d="M 111.390625 10.121094 C 112.804688 10.121094 113.894531 11.367188 113.894531 12.785156 C 113.894531 14.203125 112.804688 15.308594 111.390625 15.308594 C 109.972656 15.308594 108.773438 14.203125 108.773438 12.785156 C 108.773438 11.367188 109.972656 10.121094 111.390625 10.121094 "/>
</g>
<path style=" stroke:none;fill-rule:nonzero;fill:rgb(38.42926%,37.649536%,70.979309%);fill-opacity:1;" d="M 59.886719 12.042969 C 61.304688 12.042969 62.40625 13.015625 62.40625 14.433594 C 62.40625 15.851562 61.304688 17.035156 59.886719 17.035156 C 58.472656 17.035156 57.28125 15.851562 57.28125 14.433594 C 57.28125 13.015625 58.472656 12.042969 59.886719 12.042969 "/>
</g>
</svg>
