<?xml version="1.0" encoding="UTF-8"?>
<svg xmlns="http://www.w3.org/2000/svg" xmlns:xlink="http://www.w3.org/1999/xlink" width="277.5pt" height="283.500005pt" viewBox="0 0 277.5 283.500005" version="1.2">
<defs>
<clipPath id="clip1">
  <path d="M 174 264 L 189 264 L 189 282.996094 L 174 282.996094 Z M 174 264 "/>
</clipPath>
<clipPath id="clip2">
  <path d="M 107 0.00390625 L 120 0.00390625 L 120 13 L 107 13 Z M 107 0.00390625 "/>
</clipPath>
</defs>
<g id="surface1">
<g clip-path="url(#clip1)" clip-rule="nonzero">
<path style=" stroke:none;fill-rule:nonzero;fill:rgb(38.42926%,37.649536%,70.979309%);fill-opacity:1;" d="M 187.996094 276.605469 C 187.964844 277.464844 187.800781 278.296875 187.5 279.101562 C 186.214844 282.339844 183.121094 283.527344 180.835938 281.074219 C 178.144531 278.253906 176.179688 274.992188 174.945312 271.292969 C 174.429688 269.609375 176.492188 266.539062 178.1875 264.949219 C 179.996094 263.253906 182.046875 264.734375 183.871094 266.257812 C 184.640625 266.859375 185.320312 267.554688 185.910156 268.335938 C 186.496094 269.117188 186.972656 269.964844 187.332031 270.875 C 187.695312 271.78125 187.933594 272.722656 188.046875 273.695312 C 188.160156 274.667969 188.140625 275.636719 187.996094 276.605469 Z M 187.996094 276.605469 "/>
</g>
<path style=" stroke:none;fill-rule:nonzero;fill:rgb(38.42926%,37.649536%,70.979309%);fill-opacity:1;" d="M 239.03125 145.085938 C 238.453125 145.097656 237.882812 145.042969 237.316406 144.929688 C 236.75 144.816406 236.203125 144.644531 235.671875 144.410156 C 235.144531 144.179688 234.644531 143.890625 234.179688 143.550781 C 233.714844 143.210938 233.289062 142.824219 232.90625 142.390625 C 232.523438 141.957031 232.191406 141.488281 231.910156 140.984375 C 231.632812 140.476562 231.410156 139.949219 231.242188 139.394531 C 231.078125 138.839844 230.972656 138.277344 230.933594 137.699219 C 230.890625 137.125 230.910156 136.550781 230.992188 135.980469 C 231.058594 135.660156 231.15625 135.351562 231.28125 135.050781 C 231.40625 134.75 231.558594 134.464844 231.734375 134.191406 C 231.914062 133.917969 232.117188 133.667969 232.34375 133.433594 C 232.570312 133.199219 232.816406 132.988281 233.082031 132.800781 C 233.347656 132.613281 233.628906 132.449219 233.925781 132.316406 C 234.222656 132.179688 234.53125 132.074219 234.847656 131.996094 C 235.164062 131.917969 235.484375 131.871094 235.808594 131.855469 C 236.132812 131.835938 236.457031 131.851562 236.78125 131.894531 C 237.789062 132.121094 238.742188 132.492188 239.640625 133 C 240.542969 133.511719 241.347656 134.140625 242.0625 134.886719 C 242.773438 135.636719 243.363281 136.472656 243.832031 137.394531 C 244.296875 138.316406 244.621094 139.285156 244.800781 140.300781 C 244.796875 140.660156 244.753906 141.011719 244.675781 141.359375 C 244.597656 141.707031 244.480469 142.042969 244.328125 142.363281 C 244.175781 142.6875 243.988281 142.988281 243.769531 143.269531 C 243.550781 143.550781 243.304688 143.804688 243.027344 144.035156 C 242.753906 144.261719 242.457031 144.457031 242.140625 144.621094 C 241.824219 144.78125 241.492188 144.910156 241.148438 145 C 240.800781 145.089844 240.449219 145.144531 240.09375 145.160156 C 239.738281 145.171875 239.382812 145.148438 239.03125 145.085938 Z M 239.03125 145.085938 "/>
<path style=" stroke:none;fill-rule:nonzero;fill:rgb(38.42926%,37.649536%,70.979309%);fill-opacity:1;" d="M 246.097656 215.078125 C 246.238281 217.710938 245.816406 220.054688 242.5625 220.304688 C 241.988281 220.269531 241.421875 220.183594 240.863281 220.046875 C 240.304688 219.90625 239.761719 219.722656 239.238281 219.484375 C 238.710938 219.25 238.210938 218.96875 237.738281 218.644531 C 237.265625 218.316406 236.824219 217.953125 236.414062 217.546875 C 236.007812 217.140625 235.636719 216.703125 235.308594 216.230469 C 234.980469 215.757812 234.699219 215.261719 234.457031 214.738281 C 234.21875 214.214844 234.03125 213.671875 233.890625 213.117188 C 233.75 212.558594 233.660156 211.992188 233.621094 211.417969 C 233.632812 211.066406 233.675781 210.714844 233.757812 210.371094 C 233.835938 210.023438 233.945312 209.6875 234.085938 209.363281 C 234.226562 209.039062 234.394531 208.730469 234.59375 208.4375 C 234.792969 208.144531 235.019531 207.871094 235.269531 207.621094 C 235.519531 207.371094 235.789062 207.144531 236.082031 206.945312 C 236.375 206.746094 236.679688 206.574219 237.003906 206.429688 C 237.328125 206.289062 237.664062 206.175781 238.011719 206.097656 C 238.355469 206.015625 238.703125 205.96875 239.058594 205.953125 C 242.492188 206.136719 246 210.683594 246.097656 215.078125 Z M 246.097656 215.078125 "/>
<path style=" stroke:none;fill-rule:nonzero;fill:rgb(38.42926%,37.649536%,70.979309%);fill-opacity:1;" d="M 118.199219 244.128906 C 117.84375 245.644531 117.328125 247.105469 116.660156 248.511719 C 116.347656 249.175781 115.886719 249.714844 115.277344 250.121094 C 114.667969 250.53125 113.996094 250.757812 113.261719 250.796875 C 112.527344 250.835938 111.835938 250.683594 111.1875 250.34375 C 110.535156 250 110.019531 249.515625 109.636719 248.886719 C 109.074219 248.214844 108.601562 247.484375 108.214844 246.699219 C 107.828125 245.914062 107.539062 245.089844 107.347656 244.234375 C 107.15625 243.378906 107.070312 242.511719 107.089844 241.636719 C 107.109375 240.761719 107.230469 239.898438 107.453125 239.050781 C 108 237.164062 108.449219 234.738281 110.992188 235.171875 C 112.015625 235.3125 112.988281 235.621094 113.90625 236.097656 C 114.824219 236.574219 115.636719 237.1875 116.34375 237.941406 C 117.339844 239.894531 117.957031 241.957031 118.199219 244.128906 Z M 118.199219 244.128906 "/>
<path style=" stroke:none;fill-rule:nonzero;fill:rgb(38.42926%,37.649536%,70.979309%);fill-opacity:1;" d="M 208.921875 129.976562 C 208.878906 130.324219 208.808594 130.664062 208.703125 130.996094 C 208.597656 131.328125 208.460938 131.648438 208.292969 131.953125 C 208.125 132.261719 207.929688 132.546875 207.707031 132.816406 C 207.484375 133.085938 207.238281 133.328125 206.96875 133.550781 C 206.699219 133.773438 206.410156 133.964844 206.101562 134.128906 C 205.796875 134.296875 205.476562 134.429688 205.140625 134.535156 C 204.808594 134.636719 204.46875 134.707031 204.121094 134.746094 C 203.773438 134.785156 203.425781 134.789062 203.078125 134.761719 C 202.59375 134.777344 202.109375 134.746094 201.625 134.671875 C 201.144531 134.59375 200.675781 134.472656 200.21875 134.308594 C 199.757812 134.140625 199.320312 133.933594 198.902344 133.683594 C 198.484375 133.433594 198.09375 133.144531 197.730469 132.820312 C 197.367188 132.496094 197.039062 132.136719 196.746094 131.75 C 196.449219 131.363281 196.195312 130.949219 195.980469 130.511719 C 195.765625 130.074219 195.59375 129.621094 195.464844 129.152344 C 195.335938 128.683594 195.253906 128.203125 195.21875 127.71875 C 195.171875 127.339844 195.167969 126.960938 195.207031 126.578125 C 195.246094 126.199219 195.328125 125.828125 195.453125 125.464844 C 195.574219 125.105469 195.738281 124.761719 195.941406 124.4375 C 196.140625 124.113281 196.378906 123.8125 196.648438 123.542969 C 196.917969 123.269531 197.210938 123.03125 197.535156 122.828125 C 197.859375 122.625 198.203125 122.460938 198.5625 122.332031 C 198.921875 122.207031 199.292969 122.121094 199.675781 122.078125 C 200.054688 122.035156 200.433594 122.035156 200.816406 122.082031 C 201.328125 122.113281 201.835938 122.195312 202.335938 122.316406 C 202.835938 122.441406 203.320312 122.609375 203.789062 122.816406 C 204.257812 123.027344 204.707031 123.277344 205.132812 123.566406 C 205.558594 123.851562 205.957031 124.175781 206.324219 124.535156 C 206.691406 124.894531 207.027344 125.285156 207.328125 125.703125 C 207.625 126.121094 207.886719 126.5625 208.109375 127.027344 C 208.328125 127.488281 208.507812 127.96875 208.644531 128.464844 C 208.78125 128.960938 208.875 129.464844 208.921875 129.976562 Z M 208.921875 129.976562 "/>
<path style=" stroke:none;fill-rule:nonzero;fill:rgb(38.42926%,37.649536%,70.979309%);fill-opacity:1;" d="M 118.667969 118.707031 C 118.648438 114.625 120.867188 111.714844 123.980469 111.738281 C 124.980469 111.976562 125.921875 112.363281 126.804688 112.898438 C 127.683594 113.429688 128.460938 114.085938 129.132812 114.867188 C 129.808594 115.644531 130.34375 116.507812 130.746094 117.457031 C 131.148438 118.402344 131.394531 119.390625 131.484375 120.414062 C 131.488281 120.773438 131.453125 121.125 131.382812 121.476562 C 131.3125 121.824219 131.203125 122.164062 131.058594 122.488281 C 130.917969 122.816406 130.742188 123.125 130.53125 123.414062 C 130.324219 123.703125 130.089844 123.96875 129.824219 124.207031 C 129.558594 124.445312 129.273438 124.65625 128.964844 124.835938 C 128.65625 125.011719 128.332031 125.15625 127.992188 125.269531 C 127.652344 125.378906 127.304688 125.453125 126.949219 125.488281 C 126.59375 125.523438 126.238281 125.523438 125.882812 125.484375 C 125.421875 125.515625 124.960938 125.496094 124.5 125.433594 C 124.039062 125.367188 123.589844 125.257812 123.15625 125.101562 C 122.71875 124.941406 122.300781 124.742188 121.90625 124.5 C 121.507812 124.257812 121.140625 123.976562 120.804688 123.660156 C 120.464844 123.34375 120.164062 122.992188 119.898438 122.613281 C 119.628906 122.234375 119.40625 121.832031 119.222656 121.40625 C 119.039062 120.976562 118.898438 120.539062 118.808594 120.082031 C 118.714844 119.628906 118.667969 119.167969 118.667969 118.707031 Z M 118.667969 118.707031 "/>
<path style=" stroke:none;fill-rule:nonzero;fill:rgb(38.42926%,37.649536%,70.979309%);fill-opacity:1;" d="M 141.839844 265.160156 C 143.582031 262.964844 144.734375 260.136719 146.726562 259.351562 C 149.210938 258.359375 151.289062 260.90625 151.996094 263.207031 C 152.992188 266.117188 153.421875 269.105469 153.28125 272.179688 C 153.292969 272.566406 153.242188 272.949219 153.125 273.324219 C 153.011719 273.695312 152.839844 274.039062 152.613281 274.355469 C 152.382812 274.671875 152.113281 274.945312 151.792969 275.171875 C 151.476562 275.398438 151.132812 275.570312 150.757812 275.683594 C 150.386719 275.796875 150.003906 275.847656 149.613281 275.835938 C 149.222656 275.824219 148.84375 275.75 148.480469 275.617188 C 148.113281 275.480469 147.777344 275.289062 147.476562 275.042969 C 147.171875 274.796875 146.917969 274.511719 146.707031 274.179688 C 144.804688 271.324219 143.183594 268.316406 141.839844 265.160156 Z M 141.839844 265.160156 "/>
<path style=" stroke:none;fill-rule:nonzero;fill:rgb(38.42926%,37.649536%,70.979309%);fill-opacity:1;" d="M 31.410156 137.3125 C 31.4375 133.320312 33.226562 130.867188 36.210938 130.730469 C 39.691406 130.574219 42.675781 134.34375 42.761719 139.007812 C 42.835938 142.972656 40.953125 145.160156 37.613281 144.976562 C 37.152344 144.949219 36.695312 144.871094 36.25 144.75 C 35.804688 144.625 35.375 144.457031 34.960938 144.246094 C 34.550781 144.03125 34.164062 143.78125 33.804688 143.488281 C 33.445312 143.195312 33.117188 142.867188 32.828125 142.507812 C 32.535156 142.148438 32.285156 141.761719 32.074219 141.347656 C 31.859375 140.9375 31.695312 140.507812 31.574219 140.058594 C 31.449219 139.613281 31.375 139.15625 31.347656 138.695312 C 31.320312 138.230469 31.34375 137.773438 31.410156 137.3125 Z M 31.410156 137.3125 "/>
<path style=" stroke:none;fill-rule:nonzero;fill:rgb(38.42926%,37.649536%,70.979309%);fill-opacity:1;" d="M 179.875 237.21875 C 179.777344 240.625 178.359375 242.140625 175.238281 242.164062 C 174.753906 242.152344 174.273438 242.09375 173.800781 241.992188 C 173.328125 241.890625 172.867188 241.746094 172.421875 241.5625 C 171.976562 241.375 171.550781 241.152344 171.144531 240.886719 C 170.738281 240.621094 170.363281 240.324219 170.011719 239.988281 C 169.664062 239.65625 169.347656 239.289062 169.0625 238.898438 C 168.78125 238.507812 168.535156 238.089844 168.328125 237.652344 C 168.125 237.214844 167.960938 236.761719 167.835938 236.296875 C 167.714844 235.828125 167.636719 235.351562 167.601562 234.871094 C 167.585938 234.492188 167.601562 234.117188 167.65625 233.746094 C 167.707031 233.371094 167.792969 233.007812 167.914062 232.648438 C 168.03125 232.289062 168.183594 231.945312 168.367188 231.617188 C 168.550781 231.289062 168.761719 230.976562 169 230.683594 C 169.238281 230.394531 169.503906 230.128906 169.792969 229.882812 C 170.082031 229.640625 170.390625 229.425781 170.71875 229.242188 C 171.046875 229.054688 171.386719 228.898438 171.742188 228.777344 C 172.101562 228.652344 172.464844 228.5625 172.839844 228.503906 C 173.347656 228.582031 173.84375 228.703125 174.332031 228.871094 C 174.820312 229.035156 175.285156 229.25 175.730469 229.503906 C 176.179688 229.757812 176.597656 230.050781 176.992188 230.386719 C 177.382812 230.71875 177.738281 231.085938 178.0625 231.488281 C 178.386719 231.886719 178.671875 232.3125 178.914062 232.765625 C 179.15625 233.21875 179.355469 233.691406 179.511719 234.183594 C 179.664062 234.671875 179.773438 235.171875 179.835938 235.683594 C 179.898438 236.195312 179.910156 236.707031 179.875 237.21875 Z M 179.875 237.21875 "/>
<path style=" stroke:none;fill-rule:nonzero;fill:rgb(38.42926%,37.649536%,70.979309%);fill-opacity:1;" d="M 95.410156 60.261719 C 95.386719 59.824219 95.40625 59.386719 95.476562 58.953125 C 95.542969 58.523438 95.65625 58.101562 95.8125 57.691406 C 95.972656 57.28125 96.167969 56.894531 96.40625 56.527344 C 96.644531 56.160156 96.921875 55.820312 97.230469 55.511719 C 97.539062 55.199219 97.878906 54.925781 98.246094 54.6875 C 98.613281 54.449219 99.003906 54.25 99.414062 54.09375 C 99.820312 53.933594 100.242188 53.820312 100.675781 53.753906 C 101.109375 53.683594 101.542969 53.660156 101.984375 53.683594 C 104.671875 53.875 108.953125 58.410156 108.761719 60.863281 C 108.539062 61.648438 108.210938 62.386719 107.777344 63.082031 C 107.347656 63.773438 106.828125 64.394531 106.222656 64.945312 C 105.617188 65.492188 104.949219 65.949219 104.214844 66.308594 C 103.484375 66.671875 102.714844 66.925781 101.910156 67.074219 C 101.472656 67.074219 101.035156 67.027344 100.605469 66.941406 C 100.171875 66.851562 99.757812 66.71875 99.351562 66.546875 C 98.945312 66.371094 98.5625 66.160156 98.203125 65.910156 C 97.839844 65.65625 97.507812 65.375 97.203125 65.054688 C 96.902344 64.738281 96.632812 64.390625 96.398438 64.019531 C 96.164062 63.644531 95.96875 63.253906 95.816406 62.839844 C 95.660156 62.429688 95.550781 62.007812 95.480469 61.570312 C 95.414062 61.136719 95.386719 60.699219 95.410156 60.261719 Z M 95.410156 60.261719 "/>
<path style=" stroke:none;fill-rule:nonzero;fill:rgb(38.42926%,37.649536%,70.979309%);fill-opacity:1;" d="M 86.375 24.433594 C 85.96875 24.449219 85.558594 24.425781 85.15625 24.355469 C 84.753906 24.285156 84.359375 24.175781 83.980469 24.023438 C 83.597656 23.875 83.238281 23.683594 82.898438 23.457031 C 82.554688 23.230469 82.242188 22.96875 81.957031 22.675781 C 81.671875 22.382812 81.417969 22.0625 81.203125 21.714844 C 80.984375 21.367188 80.804688 21 80.664062 20.617188 C 80.519531 20.234375 80.421875 19.835938 80.363281 19.433594 C 80.304688 19.027344 80.292969 18.621094 80.320312 18.210938 C 80.324219 17.808594 80.367188 17.410156 80.445312 17.011719 C 80.523438 16.617188 80.636719 16.234375 80.789062 15.859375 C 80.9375 15.484375 81.121094 15.128906 81.335938 14.785156 C 81.554688 14.445312 81.796875 14.128906 82.074219 13.835938 C 82.347656 13.539062 82.648438 13.273438 82.972656 13.035156 C 83.296875 12.792969 83.640625 12.585938 84.003906 12.410156 C 84.367188 12.234375 84.746094 12.09375 85.132812 11.988281 C 85.523438 11.882812 85.917969 11.816406 86.320312 11.78125 C 87.183594 11.890625 88.007812 12.140625 88.789062 12.523438 C 89.566406 12.910156 90.265625 13.410156 90.875 14.027344 C 91.488281 14.648438 91.984375 15.347656 92.359375 16.132812 C 92.738281 16.914062 92.976562 17.738281 93.078125 18.601562 C 93.039062 19.011719 92.964844 19.414062 92.851562 19.808594 C 92.738281 20.203125 92.589844 20.582031 92.402344 20.945312 C 92.21875 21.3125 91.996094 21.65625 91.746094 21.980469 C 91.492188 22.304688 91.210938 22.597656 90.902344 22.867188 C 90.59375 23.136719 90.261719 23.375 89.90625 23.582031 C 89.550781 23.785156 89.179688 23.957031 88.792969 24.089844 C 88.402344 24.222656 88.007812 24.320312 87.601562 24.378906 C 87.195312 24.4375 86.785156 24.453125 86.375 24.433594 Z M 86.375 24.433594 "/>
<path style=" stroke:none;fill-rule:nonzero;fill:rgb(38.42926%,37.649536%,70.979309%);fill-opacity:1;" d="M 132.695312 42.113281 C 132.257812 42.167969 131.820312 42.179688 131.382812 42.148438 C 130.941406 42.113281 130.511719 42.035156 130.089844 41.914062 C 129.667969 41.792969 129.261719 41.632812 128.871094 41.425781 C 128.480469 41.222656 128.117188 40.980469 127.777344 40.699219 C 127.4375 40.421875 127.128906 40.109375 126.855469 39.765625 C 126.578125 39.425781 126.339844 39.058594 126.140625 38.667969 C 125.941406 38.273438 125.78125 37.867188 125.664062 37.445312 C 125.546875 37.019531 125.476562 36.589844 125.445312 36.148438 C 125.441406 35.765625 125.472656 35.386719 125.535156 35.011719 C 125.601562 34.632812 125.699219 34.265625 125.832031 33.90625 C 125.960938 33.546875 126.125 33.199219 126.320312 32.871094 C 126.515625 32.542969 126.738281 32.234375 126.992188 31.945312 C 127.242188 31.65625 127.515625 31.390625 127.816406 31.152344 C 128.117188 30.914062 128.4375 30.707031 128.773438 30.527344 C 129.113281 30.347656 129.464844 30.199219 129.828125 30.082031 C 130.195312 29.964844 130.566406 29.886719 130.945312 29.835938 C 131.410156 29.832031 131.875 29.867188 132.332031 29.945312 C 132.789062 30.023438 133.238281 30.140625 133.675781 30.300781 C 134.113281 30.457031 134.53125 30.652344 134.933594 30.886719 C 135.335938 31.121094 135.714844 31.386719 136.070312 31.691406 C 136.421875 31.992188 136.746094 32.320312 137.042969 32.679688 C 137.335938 33.039062 137.597656 33.421875 137.824219 33.828125 C 138.050781 34.238281 138.238281 34.660156 138.386719 35.097656 C 138.535156 35.539062 138.644531 35.988281 138.714844 36.449219 C 138.707031 36.832031 138.660156 37.214844 138.578125 37.589844 C 138.492188 37.964844 138.375 38.328125 138.21875 38.679688 C 138.0625 39.03125 137.871094 39.363281 137.648438 39.679688 C 137.425781 39.992188 137.175781 40.28125 136.894531 40.542969 C 136.613281 40.808594 136.308594 41.042969 135.984375 41.246094 C 135.65625 41.449219 135.3125 41.617188 134.953125 41.75 C 134.589844 41.886719 134.222656 41.984375 133.839844 42.042969 C 133.460938 42.105469 133.078125 42.128906 132.695312 42.113281 Z M 132.695312 42.113281 "/>
<path style=" stroke:none;fill-rule:nonzero;fill:rgb(38.42926%,37.649536%,70.979309%);fill-opacity:1;" d="M 95.847656 212.851562 C 95.808594 212.164062 95.882812 211.488281 96.0625 210.824219 C 96.246094 210.160156 96.53125 209.539062 96.914062 208.96875 C 97.300781 208.398438 97.769531 207.902344 98.316406 207.484375 C 98.863281 207.066406 99.464844 206.746094 100.117188 206.523438 C 103.011719 205.640625 104.386719 208.054688 105.316406 210.363281 C 106.519531 213.371094 108.097656 216.347656 105.65625 219.601562 C 103.472656 222.496094 100.738281 222.90625 98.796875 219.941406 C 97.582031 217.675781 96.601562 215.3125 95.847656 212.851562 Z M 95.847656 212.851562 "/>
<path style=" stroke:none;fill-rule:nonzero;fill:rgb(38.42926%,37.649536%,70.979309%);fill-opacity:1;" d="M 136.636719 191.730469 C 136.839844 191.386719 137.316406 189.480469 138.34375 189.109375 C 139.132812 188.882812 139.933594 188.8125 140.75 188.894531 C 141.566406 188.976562 142.339844 189.207031 143.066406 189.582031 C 143.511719 189.890625 143.929688 190.230469 144.320312 190.605469 C 144.710938 190.976562 145.070312 191.378906 145.394531 191.8125 C 145.71875 192.242188 146.007812 192.699219 146.257812 193.175781 C 146.511719 193.65625 146.722656 194.148438 146.894531 194.664062 C 147.066406 195.175781 147.195312 195.699219 147.28125 196.230469 C 147.371094 196.765625 147.414062 197.300781 147.414062 197.839844 C 147.414062 198.382812 147.371094 198.917969 147.285156 199.453125 C 147.199219 199.984375 147.070312 200.507812 146.902344 201.019531 C 146.84375 201.289062 146.757812 201.546875 146.632812 201.792969 C 146.511719 202.039062 146.359375 202.265625 146.179688 202.472656 C 145.996094 202.675781 145.792969 202.855469 145.5625 203.007812 C 145.335938 203.160156 145.089844 203.28125 144.832031 203.371094 C 144.570312 203.460938 144.304688 203.511719 144.027344 203.53125 C 143.753906 203.550781 143.484375 203.535156 143.214844 203.480469 C 142.941406 203.429688 142.683594 203.34375 142.4375 203.222656 C 142.191406 203.105469 141.960938 202.953125 141.753906 202.777344 C 140.863281 202.179688 140.066406 201.472656 139.371094 200.65625 C 138.671875 199.839844 138.097656 198.945312 137.644531 197.96875 C 137.195312 196.996094 136.882812 195.980469 136.710938 194.921875 C 136.539062 193.859375 136.515625 192.796875 136.636719 191.730469 Z M 136.636719 191.730469 "/>
<path style=" stroke:none;fill-rule:nonzero;fill:rgb(38.42926%,37.649536%,70.979309%);fill-opacity:1;" d="M 146.347656 232.800781 C 145.886719 237.058594 144.039062 239.082031 140.964844 238.691406 C 140.507812 238.636719 140.058594 238.542969 139.621094 238.40625 C 139.183594 238.273438 138.757812 238.101562 138.351562 237.890625 C 137.945312 237.679688 137.558594 237.433594 137.195312 237.152344 C 136.832031 236.871094 136.496094 236.5625 136.1875 236.222656 C 135.878906 235.882812 135.605469 235.515625 135.363281 235.128906 C 135.121094 234.738281 134.914062 234.328125 134.746094 233.902344 C 134.574219 233.476562 134.445312 233.039062 134.355469 232.589844 C 134.265625 232.136719 134.21875 231.683594 134.207031 231.226562 C 134.25 230.851562 134.324219 230.480469 134.429688 230.121094 C 134.539062 229.761719 134.679688 229.410156 134.851562 229.074219 C 135.023438 228.742188 135.222656 228.421875 135.453125 228.125 C 135.683594 227.824219 135.9375 227.550781 136.21875 227.296875 C 136.5 227.046875 136.800781 226.820312 137.121094 226.625 C 137.445312 226.425781 137.78125 226.261719 138.132812 226.125 C 138.484375 225.988281 138.847656 225.886719 139.21875 225.816406 C 139.585938 225.75 139.960938 225.714844 140.339844 225.710938 C 140.765625 225.753906 141.1875 225.835938 141.597656 225.960938 C 142.007812 226.082031 142.40625 226.246094 142.785156 226.445312 C 143.167969 226.644531 143.523438 226.878906 143.859375 227.144531 C 144.195312 227.414062 144.503906 227.710938 144.78125 228.039062 C 145.058594 228.367188 145.300781 228.71875 145.511719 229.09375 C 145.722656 229.46875 145.894531 229.859375 146.027344 230.265625 C 146.160156 230.675781 146.257812 231.09375 146.308594 231.519531 C 146.363281 231.945312 146.375 232.371094 146.347656 232.800781 Z M 146.347656 232.800781 "/>
<path style=" stroke:none;fill-rule:nonzero;fill:rgb(38.42926%,37.649536%,70.979309%);fill-opacity:1;" d="M 92.433594 99.128906 C 88.121094 98.585938 85.773438 96.378906 86.0625 93.140625 C 86.386719 89.539062 89.441406 86.464844 92.347656 86.808594 C 93.148438 87.125 93.894531 87.546875 94.582031 88.066406 C 95.269531 88.585938 95.878906 89.1875 96.402344 89.871094 C 96.929688 90.554688 97.355469 91.292969 97.683594 92.09375 C 98.011719 92.890625 98.226562 93.71875 98.332031 94.574219 C 98.320312 94.929688 98.273438 95.28125 98.183594 95.625 C 98.09375 95.96875 97.96875 96.300781 97.808594 96.617188 C 97.648438 96.9375 97.453125 97.230469 97.226562 97.507812 C 96.996094 97.78125 96.742188 98.027344 96.460938 98.246094 C 96.179688 98.464844 95.875 98.648438 95.554688 98.796875 C 95.230469 98.949219 94.894531 99.0625 94.546875 99.140625 C 94.199219 99.214844 93.84375 99.253906 93.488281 99.253906 C 93.132812 99.25 92.78125 99.210938 92.433594 99.128906 Z M 92.433594 99.128906 "/>
<path style=" stroke:none;fill-rule:nonzero;fill:rgb(38.42926%,37.649536%,70.979309%);fill-opacity:1;" d="M 242.472656 109.746094 C 242.445312 109.441406 242.453125 109.140625 242.496094 108.84375 C 242.535156 108.542969 242.609375 108.25 242.71875 107.96875 C 242.828125 107.683594 242.964844 107.417969 243.132812 107.164062 C 243.300781 106.914062 243.496094 106.683594 243.71875 106.476562 C 243.9375 106.269531 244.179688 106.089844 244.441406 105.9375 C 244.703125 105.785156 244.980469 105.664062 245.269531 105.570312 C 245.558594 105.480469 245.851562 105.425781 246.15625 105.402344 C 246.457031 105.378906 246.757812 105.390625 247.058594 105.433594 C 247.984375 105.53125 248.871094 105.777344 249.714844 106.171875 C 250.558594 106.566406 251.316406 107.085938 251.984375 107.734375 C 252.65625 108.382812 253.203125 109.121094 253.625 109.949219 C 254.046875 110.777344 254.324219 111.652344 254.457031 112.574219 C 254.363281 113.28125 254.148438 113.945312 253.8125 114.574219 C 253.480469 115.199219 253.046875 115.75 252.515625 116.222656 C 251.984375 116.695312 251.386719 117.058594 250.726562 117.316406 C 250.0625 117.574219 249.375 117.707031 248.667969 117.71875 C 248.207031 117.644531 247.761719 117.527344 247.324219 117.367188 C 246.890625 117.207031 246.472656 117.007812 246.074219 116.769531 C 245.675781 116.535156 245.300781 116.261719 244.953125 115.953125 C 244.605469 115.648438 244.289062 115.3125 244.003906 114.945312 C 243.722656 114.578125 243.472656 114.1875 243.261719 113.777344 C 243.050781 113.363281 242.878906 112.933594 242.746094 112.488281 C 242.617188 112.042969 242.527344 111.589844 242.480469 111.128906 C 242.433594 110.667969 242.429688 110.207031 242.472656 109.746094 Z M 242.472656 109.746094 "/>
<path style=" stroke:none;fill-rule:nonzero;fill:rgb(38.42926%,37.649536%,70.979309%);fill-opacity:1;" d="M 157.882812 73.167969 C 157.238281 74.601562 157.007812 76.164062 156.335938 76.382812 C 154.378906 77.144531 152.355469 77.46875 150.257812 77.347656 C 147.957031 77.0625 145.433594 76.285156 144.96875 73.285156 C 144.808594 72.703125 144.734375 72.109375 144.75 71.507812 C 144.765625 70.902344 144.867188 70.3125 145.058594 69.742188 C 145.25 69.167969 145.523438 68.636719 145.875 68.144531 C 146.226562 67.652344 146.640625 67.222656 147.121094 66.855469 C 147.367188 66.675781 147.625 66.515625 147.898438 66.382812 C 148.171875 66.25 148.453125 66.144531 148.746094 66.066406 C 149.039062 65.988281 149.339844 65.9375 149.640625 65.914062 C 149.945312 65.894531 150.246094 65.898438 150.550781 65.933594 C 150.851562 65.96875 151.148438 66.03125 151.4375 66.125 C 151.726562 66.214844 152.003906 66.332031 152.273438 66.476562 C 152.539062 66.621094 152.789062 66.792969 153.027344 66.984375 C 153.261719 67.175781 153.476562 67.386719 153.671875 67.621094 C 155.226562 69.355469 156.632812 71.203125 157.882812 73.167969 Z M 157.882812 73.167969 "/>
<path style=" stroke:none;fill-rule:nonzero;fill:rgb(38.42926%,37.649536%,70.979309%);fill-opacity:1;" d="M 186.125 72.78125 C 185.308594 72.6875 184.527344 72.472656 183.78125 72.128906 C 183.035156 71.78125 182.359375 71.328125 181.761719 70.765625 C 181.160156 70.203125 180.667969 69.5625 180.277344 68.839844 C 179.886719 68.117188 179.617188 67.351562 179.476562 66.542969 C 179.472656 66.160156 179.503906 65.777344 179.574219 65.402344 C 179.640625 65.027344 179.746094 64.660156 179.882812 64.300781 C 180.023438 63.945312 180.195312 63.605469 180.398438 63.28125 C 180.601562 62.957031 180.835938 62.65625 181.097656 62.375 C 181.359375 62.097656 181.644531 61.84375 181.953125 61.621094 C 182.265625 61.394531 182.59375 61.203125 182.9375 61.039062 C 183.285156 60.878906 183.644531 60.75 184.015625 60.65625 C 184.386719 60.5625 184.765625 60.507812 185.148438 60.484375 C 186.011719 60.589844 186.832031 60.835938 187.617188 61.21875 C 188.398438 61.597656 189.097656 62.097656 189.710938 62.710938 C 190.324219 63.328125 190.824219 64.023438 191.203125 64.808594 C 191.585938 65.589844 191.828125 66.410156 191.933594 67.273438 C 191.757812 67.957031 191.488281 68.605469 191.128906 69.214844 C 190.769531 69.824219 190.332031 70.375 189.820312 70.859375 C 189.308594 71.347656 188.734375 71.753906 188.109375 72.078125 C 187.480469 72.40625 186.820312 72.640625 186.125 72.78125 Z M 186.125 72.78125 "/>
<path style=" stroke:none;fill-rule:nonzero;fill:rgb(38.42926%,37.649536%,70.979309%);fill-opacity:1;" d="M 139.246094 97.441406 C 139.253906 97.039062 139.296875 96.636719 139.386719 96.242188 C 139.472656 95.847656 139.597656 95.464844 139.757812 95.09375 C 139.921875 94.722656 140.117188 94.371094 140.351562 94.039062 C 140.582031 93.707031 140.84375 93.398438 141.136719 93.121094 C 141.433594 92.839844 141.75 92.589844 142.089844 92.375 C 142.433594 92.15625 142.792969 91.976562 143.171875 91.832031 C 143.550781 91.6875 143.941406 91.578125 144.339844 91.511719 C 144.738281 91.441406 145.140625 91.414062 145.546875 91.425781 C 146.289062 91.597656 146.988281 91.882812 147.636719 92.28125 C 148.289062 92.675781 148.859375 93.164062 149.351562 93.746094 C 149.847656 94.328125 150.234375 94.972656 150.519531 95.679688 C 150.800781 96.390625 150.96875 97.121094 151.015625 97.882812 C 151.027344 98.265625 151.003906 98.648438 150.941406 99.027344 C 150.878906 99.40625 150.777344 99.773438 150.636719 100.128906 C 150.496094 100.488281 150.324219 100.828125 150.113281 101.148438 C 149.90625 101.472656 149.667969 101.769531 149.394531 102.039062 C 149.125 102.3125 148.832031 102.554688 148.511719 102.769531 C 148.191406 102.980469 147.855469 103.15625 147.496094 103.300781 C 147.140625 103.445312 146.773438 103.546875 146.394531 103.617188 C 146.019531 103.683594 145.636719 103.710938 145.253906 103.703125 C 144.84375 103.714844 144.4375 103.6875 144.035156 103.617188 C 143.632812 103.542969 143.238281 103.433594 142.859375 103.277344 C 142.480469 103.125 142.121094 102.933594 141.78125 102.703125 C 141.445312 102.472656 141.132812 102.210938 140.847656 101.914062 C 140.566406 101.621094 140.316406 101.296875 140.101562 100.949219 C 139.886719 100.601562 139.707031 100.234375 139.570312 99.851562 C 139.429688 99.464844 139.335938 99.070312 139.28125 98.664062 C 139.226562 98.257812 139.214844 97.851562 139.246094 97.441406 Z M 139.246094 97.441406 "/>
<path style=" stroke:none;fill-rule:nonzero;fill:rgb(38.42926%,37.649536%,70.979309%);fill-opacity:1;" d="M 215.960938 92.375 C 216.8125 92.511719 217.628906 92.769531 218.40625 93.144531 C 219.183594 93.523438 219.886719 94.003906 220.523438 94.589844 C 221.15625 95.175781 221.695312 95.839844 222.132812 96.582031 C 222.570312 97.324219 222.894531 98.117188 223.097656 98.953125 C 223.109375 99.332031 223.078125 99.710938 223.015625 100.085938 C 222.949219 100.460938 222.84375 100.824219 222.707031 101.179688 C 222.570312 101.53125 222.394531 101.867188 222.191406 102.1875 C 221.984375 102.507812 221.75 102.804688 221.484375 103.078125 C 221.21875 103.347656 220.929688 103.59375 220.617188 103.808594 C 220.304688 104.023438 219.972656 104.203125 219.621094 104.355469 C 219.269531 104.503906 218.910156 104.617188 218.539062 104.691406 C 218.164062 104.769531 217.789062 104.808594 217.410156 104.808594 C 217.003906 104.824219 216.601562 104.800781 216.199219 104.734375 C 215.800781 104.671875 215.410156 104.570312 215.03125 104.433594 C 214.648438 104.292969 214.285156 104.121094 213.9375 103.910156 C 213.59375 103.703125 213.269531 103.460938 212.96875 103.191406 C 212.667969 102.917969 212.394531 102.621094 212.152344 102.296875 C 211.90625 101.976562 211.699219 101.632812 211.519531 101.265625 C 211.34375 100.902344 211.203125 100.523438 211.097656 100.132812 C 210.996094 99.742188 210.929688 99.34375 210.902344 98.941406 C 210.867188 98.183594 210.964844 97.441406 211.195312 96.71875 C 211.421875 95.996094 211.769531 95.335938 212.230469 94.734375 C 212.695312 94.132812 213.246094 93.628906 213.886719 93.222656 C 214.527344 92.820312 215.21875 92.535156 215.960938 92.375 Z M 215.960938 92.375 "/>
<g clip-path="url(#clip2)" clip-rule="nonzero">
<path style=" stroke:none;fill-rule:nonzero;fill:rgb(38.42926%,37.649536%,70.979309%);fill-opacity:1;" d="M 119.96875 6.898438 C 119.769531 7.640625 119.453125 8.332031 119.023438 8.96875 C 118.597656 9.609375 118.078125 10.160156 117.46875 10.628906 C 116.855469 11.09375 116.1875 11.453125 115.460938 11.699219 C 114.730469 11.949219 113.984375 12.074219 113.214844 12.074219 C 112.5 12.023438 111.820312 11.851562 111.167969 11.558594 C 110.519531 11.261719 109.941406 10.863281 109.433594 10.359375 C 108.925781 9.855469 108.523438 9.28125 108.222656 8.632812 C 107.921875 7.984375 107.746094 7.304688 107.691406 6.589844 C 107.761719 3.605469 110.699219 0.00390625 113.074219 0.00390625 C 113.933594 0.15625 114.75 0.433594 115.523438 0.835938 C 116.296875 1.238281 116.992188 1.746094 117.609375 2.363281 C 118.226562 2.980469 118.738281 3.675781 119.140625 4.449219 C 119.542969 5.222656 119.820312 6.039062 119.96875 6.898438 Z M 119.96875 6.898438 "/>
</g>
<path style=" stroke:none;fill-rule:nonzero;fill:rgb(38.42926%,37.649536%,70.979309%);fill-opacity:1;" d="M 25.566406 69.5 C 25.15625 69.496094 24.75 69.453125 24.351562 69.367188 C 23.949219 69.277344 23.5625 69.148438 23.191406 68.980469 C 22.816406 68.808594 22.464844 68.601562 22.136719 68.359375 C 21.808594 68.113281 21.507812 67.835938 21.238281 67.527344 C 20.96875 67.21875 20.734375 66.886719 20.539062 66.527344 C 20.339844 66.167969 20.179688 65.792969 20.0625 65.402344 C 19.945312 65.011719 19.867188 64.609375 19.835938 64.203125 C 19.800781 63.792969 19.8125 63.386719 19.867188 62.980469 C 19.859375 62.625 19.886719 62.277344 19.957031 61.929688 C 20.023438 61.582031 20.128906 61.246094 20.269531 60.921875 C 20.40625 60.597656 20.582031 60.292969 20.785156 60.007812 C 20.992188 59.71875 21.226562 59.457031 21.488281 59.222656 C 21.753906 58.984375 22.039062 58.777344 22.34375 58.605469 C 22.652344 58.429688 22.972656 58.289062 23.3125 58.183594 C 23.648438 58.078125 23.992188 58.007812 24.34375 57.976562 C 24.695312 57.945312 25.046875 57.953125 25.398438 57.996094 C 28.570312 58.25 31.976562 61.550781 31.804688 64.207031 C 31.777344 64.585938 31.710938 64.960938 31.609375 65.324219 C 31.503906 65.691406 31.367188 66.042969 31.195312 66.382812 C 31.019531 66.722656 30.816406 67.039062 30.582031 67.339844 C 30.34375 67.636719 30.082031 67.910156 29.792969 68.15625 C 29.5 68.402344 29.191406 68.617188 28.855469 68.800781 C 28.523438 68.984375 28.175781 69.132812 27.8125 69.25 C 27.449219 69.363281 27.082031 69.445312 26.703125 69.484375 C 26.324219 69.527344 25.945312 69.53125 25.566406 69.5 Z M 25.566406 69.5 "/>
<path style=" stroke:none;fill-rule:nonzero;fill:rgb(38.42926%,37.649536%,70.979309%);fill-opacity:1;" d="M 200.925781 85.65625 C 200.496094 85.601562 200.074219 85.503906 199.667969 85.363281 C 199.257812 85.222656 198.867188 85.042969 198.492188 84.824219 C 198.121094 84.605469 197.773438 84.351562 197.453125 84.0625 C 197.128906 83.773438 196.839844 83.453125 196.582031 83.105469 C 196.328125 82.757812 196.105469 82.386719 195.925781 81.996094 C 195.742188 81.601562 195.601562 81.195312 195.503906 80.777344 C 195.402344 80.355469 195.347656 79.929688 195.332031 79.496094 C 195.320312 79.0625 195.351562 78.636719 195.425781 78.207031 C 195.453125 77.882812 195.511719 77.5625 195.605469 77.25 C 195.695312 76.9375 195.816406 76.636719 195.964844 76.34375 C 196.117188 76.054688 196.292969 75.78125 196.496094 75.527344 C 196.699219 75.269531 196.925781 75.039062 197.171875 74.824219 C 197.421875 74.613281 197.691406 74.429688 197.976562 74.269531 C 198.257812 74.109375 198.558594 73.980469 198.867188 73.878906 C 199.179688 73.777344 199.496094 73.707031 199.820312 73.664062 C 200.144531 73.625 200.46875 73.617188 200.796875 73.640625 C 201.683594 73.871094 202.519531 74.234375 203.292969 74.726562 C 204.070312 75.222656 204.75 75.820312 205.339844 76.527344 C 205.925781 77.234375 206.390625 78.011719 206.734375 78.867188 C 207.074219 79.71875 207.28125 80.601562 207.34375 81.519531 C 207.257812 81.859375 207.144531 82.191406 206.996094 82.511719 C 206.847656 82.828125 206.671875 83.132812 206.46875 83.417969 C 206.265625 83.703125 206.035156 83.96875 205.78125 84.210938 C 205.527344 84.453125 205.25 84.667969 204.953125 84.859375 C 204.660156 85.050781 204.347656 85.210938 204.023438 85.34375 C 203.695312 85.476562 203.359375 85.574219 203.015625 85.644531 C 202.671875 85.710938 202.320312 85.746094 201.96875 85.75 C 201.617188 85.75 201.269531 85.71875 200.925781 85.65625 Z M 200.925781 85.65625 "/>
<path style=" stroke:none;fill-rule:nonzero;fill:rgb(38.42926%,37.649536%,70.979309%);fill-opacity:1;" d="M 71.304688 35.800781 C 71.707031 35.839844 72.101562 35.914062 72.488281 36.027344 C 72.875 36.140625 73.25 36.289062 73.609375 36.472656 C 73.96875 36.652344 74.308594 36.867188 74.628906 37.117188 C 74.949219 37.363281 75.242188 37.636719 75.511719 37.9375 C 75.78125 38.242188 76.015625 38.566406 76.222656 38.910156 C 76.433594 39.257812 76.605469 39.621094 76.746094 40 C 76.882812 40.378906 76.984375 40.765625 77.050781 41.164062 C 77.117188 41.5625 77.148438 41.964844 77.140625 42.367188 C 77.179688 42.71875 77.179688 43.070312 77.144531 43.421875 C 77.113281 43.773438 77.039062 44.117188 76.933594 44.453125 C 76.824219 44.789062 76.683594 45.109375 76.503906 45.417969 C 76.328125 45.722656 76.121094 46.007812 75.886719 46.269531 C 75.648438 46.53125 75.386719 46.765625 75.101562 46.972656 C 74.816406 47.179688 74.507812 47.355469 74.1875 47.496094 C 73.863281 47.640625 73.527344 47.746094 73.179688 47.816406 C 72.835938 47.886719 72.484375 47.921875 72.128906 47.917969 C 71.753906 47.929688 71.375 47.90625 71.003906 47.847656 C 70.628906 47.789062 70.261719 47.699219 69.90625 47.574219 C 69.550781 47.449219 69.207031 47.292969 68.878906 47.109375 C 68.550781 46.921875 68.238281 46.707031 67.949219 46.460938 C 67.660156 46.21875 67.398438 45.949219 67.15625 45.660156 C 66.917969 45.367188 66.703125 45.054688 66.523438 44.722656 C 66.339844 44.394531 66.1875 44.050781 66.066406 43.691406 C 65.945312 43.332031 65.859375 42.964844 65.808594 42.589844 C 65.757812 42.1875 65.753906 41.78125 65.785156 41.378906 C 65.820312 40.972656 65.894531 40.574219 66.007812 40.183594 C 66.121094 39.792969 66.269531 39.414062 66.457031 39.054688 C 66.648438 38.695312 66.867188 38.355469 67.125 38.039062 C 67.382812 37.722656 67.667969 37.433594 67.980469 37.175781 C 68.292969 36.917969 68.628906 36.691406 68.988281 36.496094 C 69.347656 36.304688 69.722656 36.152344 70.109375 36.035156 C 70.5 35.914062 70.898438 35.835938 71.304688 35.800781 Z M 71.304688 35.800781 "/>
<path style=" stroke:none;fill-rule:nonzero;fill:rgb(38.42926%,37.649536%,70.979309%);fill-opacity:1;" d="M 266.445312 185.03125 C 265.726562 185.027344 265.03125 184.898438 264.359375 184.644531 C 263.6875 184.390625 263.078125 184.027344 262.539062 183.554688 C 262 183.085938 261.558594 182.53125 261.214844 181.898438 C 260.875 181.269531 260.65625 180.597656 260.558594 179.886719 C 260.324219 179.007812 260.273438 178.117188 260.402344 177.21875 C 260.53125 176.316406 260.828125 175.476562 261.296875 174.699219 C 261.511719 174.492188 261.746094 174.304688 262 174.140625 C 262.253906 173.976562 262.519531 173.839844 262.796875 173.726562 C 263.074219 173.613281 263.363281 173.53125 263.65625 173.472656 C 263.953125 173.414062 264.25 173.386719 264.550781 173.386719 C 264.851562 173.386719 265.148438 173.414062 265.445312 173.472656 C 265.738281 173.53125 266.027344 173.613281 266.304688 173.726562 C 266.582031 173.839844 266.847656 173.976562 267.101562 174.140625 C 267.351562 174.304688 267.585938 174.492188 267.804688 174.699219 C 269.289062 175.980469 270.484375 177.488281 271.386719 179.230469 C 273.308594 183.050781 271.394531 185.53125 266.445312 185.03125 Z M 266.445312 185.03125 "/>
<path style=" stroke:none;fill-rule:nonzero;fill:rgb(38.42926%,37.649536%,70.979309%);fill-opacity:1;" d="M 61.589844 190.410156 C 61.589844 194.246094 59.476562 196.875 56.558594 196.640625 C 54.144531 196.453125 51.09375 192.195312 51.21875 189.167969 C 51.304688 188.46875 51.496094 187.796875 51.792969 187.152344 C 52.085938 186.507812 52.46875 185.925781 52.945312 185.402344 C 53.417969 184.875 53.960938 184.433594 54.570312 184.074219 C 55.179688 183.714844 55.828125 183.457031 56.519531 183.296875 C 59.410156 183.125 61.582031 186.171875 61.589844 190.410156 Z M 61.589844 190.410156 "/>
<path style=" stroke:none;fill-rule:nonzero;fill:rgb(38.42926%,37.649536%,70.979309%);fill-opacity:1;" d="M 276.46875 217.613281 C 276.34375 220.023438 274.488281 220.945312 272.078125 221.023438 C 271.539062 220.964844 271.011719 220.855469 270.492188 220.695312 C 269.972656 220.535156 269.476562 220.328125 268.996094 220.070312 C 268.519531 219.816406 268.070312 219.519531 267.648438 219.175781 C 267.226562 218.835938 266.839844 218.457031 266.492188 218.039062 C 266.144531 217.625 265.839844 217.179688 265.574219 216.707031 C 265.3125 216.230469 265.097656 215.738281 264.929688 215.222656 C 264.761719 214.707031 264.640625 214.179688 264.574219 213.640625 C 264.507812 213.101562 264.492188 212.5625 264.53125 212.023438 C 264.976562 209.941406 266.0625 208.4375 268.609375 208.699219 C 269.652344 208.929688 270.632812 209.320312 271.550781 209.863281 C 272.46875 210.40625 273.285156 211.078125 273.988281 211.878906 C 274.695312 212.679688 275.261719 213.570312 275.683594 214.550781 C 276.109375 215.527344 276.371094 216.550781 276.46875 217.613281 Z M 276.46875 217.613281 "/>
<path style=" stroke:none;fill-rule:nonzero;fill:rgb(38.42926%,37.649536%,70.979309%);fill-opacity:1;" d="M 174.425781 101.40625 C 174.839844 101.4375 175.246094 101.503906 175.644531 101.605469 C 176.042969 101.710938 176.429688 101.851562 176.804688 102.027344 C 177.179688 102.199219 177.535156 102.410156 177.871094 102.648438 C 178.207031 102.890625 178.515625 103.160156 178.800781 103.457031 C 179.085938 103.757812 179.34375 104.078125 179.570312 104.425781 C 179.796875 104.769531 179.988281 105.132812 180.148438 105.515625 C 180.308594 105.894531 180.429688 106.289062 180.515625 106.691406 C 180.601562 107.09375 180.652344 107.503906 180.664062 107.914062 C 180.6875 108.269531 180.671875 108.625 180.625 108.976562 C 180.574219 109.332031 180.492188 109.675781 180.375 110.011719 C 180.253906 110.347656 180.105469 110.667969 179.921875 110.972656 C 179.738281 111.28125 179.527344 111.5625 179.289062 111.828125 C 179.046875 112.089844 178.785156 112.328125 178.496094 112.539062 C 178.207031 112.746094 177.902344 112.925781 177.578125 113.078125 C 177.253906 113.226562 176.917969 113.339844 176.570312 113.421875 C 176.226562 113.503906 175.875 113.550781 175.515625 113.558594 C 175.109375 113.527344 174.703125 113.457031 174.304688 113.351562 C 173.910156 113.246094 173.523438 113.105469 173.152344 112.929688 C 172.78125 112.753906 172.429688 112.546875 172.09375 112.304688 C 171.757812 112.066406 171.449219 111.800781 171.164062 111.503906 C 170.878906 111.207031 170.621094 110.890625 170.394531 110.546875 C 170.164062 110.207031 169.96875 109.847656 169.804688 109.46875 C 169.644531 109.089844 169.515625 108.703125 169.421875 108.300781 C 169.328125 107.902344 169.273438 107.496094 169.253906 107.085938 C 169.234375 106.730469 169.25 106.375 169.296875 106.019531 C 169.347656 105.664062 169.433594 105.320312 169.554688 104.980469 C 169.671875 104.644531 169.824219 104.324219 170.007812 104.015625 C 170.191406 103.707031 170.402344 103.421875 170.644531 103.15625 C 170.886719 102.894531 171.148438 102.65625 171.4375 102.445312 C 171.726562 102.230469 172.035156 102.050781 172.359375 101.902344 C 172.683594 101.75 173.019531 101.632812 173.367188 101.550781 C 173.714844 101.46875 174.070312 101.417969 174.425781 101.40625 Z M 174.425781 101.40625 "/>
<path style=" stroke:none;fill-rule:nonzero;fill:rgb(38.42926%,37.649536%,70.979309%);fill-opacity:1;" d="M 209.777344 203.523438 C 209.265625 203.511719 208.761719 203.441406 208.265625 203.316406 C 207.773438 203.1875 207.296875 203.007812 206.84375 202.773438 C 206.390625 202.535156 205.972656 202.25 205.585938 201.917969 C 205.195312 201.585938 204.851562 201.214844 204.546875 200.804688 C 204.246094 200.394531 203.992188 199.953125 203.792969 199.484375 C 203.589844 199.015625 203.445312 198.527344 203.355469 198.027344 C 203.265625 197.523438 203.234375 197.015625 203.257812 196.507812 C 203.285156 195.996094 203.367188 195.496094 203.511719 195.007812 C 204.027344 194.242188 204.679688 193.621094 205.472656 193.148438 C 206.261719 192.671875 207.117188 192.386719 208.035156 192.289062 C 210.761719 192.058594 215.152344 197.203125 215.144531 199.929688 C 215.140625 202.078125 212.988281 203.519531 209.777344 203.523438 Z M 209.777344 203.523438 "/>
<path style=" stroke:none;fill-rule:nonzero;fill:rgb(38.42926%,37.649536%,70.979309%);fill-opacity:1;" d="M 73.5625 83.742188 C 73.59375 84.066406 73.589844 84.390625 73.554688 84.71875 C 73.519531 85.042969 73.449219 85.359375 73.351562 85.671875 C 73.25 85.984375 73.121094 86.28125 72.960938 86.566406 C 72.800781 86.851562 72.613281 87.117188 72.398438 87.367188 C 72.183594 87.613281 71.949219 87.835938 71.6875 88.035156 C 71.429688 88.234375 71.152344 88.40625 70.859375 88.550781 C 70.566406 88.695312 70.261719 88.808594 69.945312 88.890625 C 69.628906 88.972656 69.304688 89.023438 68.980469 89.042969 C 68.570312 89.097656 68.164062 89.109375 67.753906 89.082031 C 67.347656 89.054688 66.945312 88.988281 66.546875 88.878906 C 66.152344 88.769531 65.773438 88.621094 65.40625 88.4375 C 65.042969 88.25 64.699219 88.03125 64.378906 87.773438 C 64.058594 87.519531 63.765625 87.234375 63.503906 86.921875 C 63.238281 86.605469 63.011719 86.269531 62.816406 85.90625 C 62.621094 85.546875 62.464844 85.171875 62.347656 84.777344 C 62.230469 84.386719 62.152344 83.984375 62.113281 83.578125 C 62.054688 83.199219 62.035156 82.820312 62.054688 82.4375 C 62.074219 82.058594 62.132812 81.683594 62.234375 81.3125 C 62.332031 80.945312 62.46875 80.589844 62.644531 80.25 C 62.816406 79.910156 63.023438 79.59375 63.265625 79.296875 C 63.507812 79 63.777344 78.730469 64.074219 78.492188 C 64.371094 78.253906 64.691406 78.046875 65.03125 77.875 C 65.371094 77.699219 65.726562 77.566406 66.097656 77.46875 C 66.464844 77.371094 66.839844 77.3125 67.222656 77.292969 C 68.035156 77.394531 68.8125 77.628906 69.546875 77.992188 C 70.285156 78.355469 70.941406 78.828125 71.515625 79.414062 C 72.089844 80 72.554688 80.664062 72.90625 81.40625 C 73.253906 82.144531 73.472656 82.925781 73.5625 83.742188 Z M 73.5625 83.742188 "/>
<path style=" stroke:none;fill-rule:nonzero;fill:rgb(38.42926%,37.649536%,70.979309%);fill-opacity:1;" d="M 186.097656 194.640625 C 181.960938 194.140625 178.304688 193.058594 176.726562 189.175781 C 176.476562 188.390625 176.417969 187.59375 176.542969 186.78125 C 176.671875 185.96875 176.972656 185.230469 177.449219 184.558594 C 178.378906 183.597656 181.148438 182.925781 181.972656 183.574219 C 184.539062 185.550781 186.691406 187.910156 188.425781 190.644531 C 188.6875 191.054688 188.824219 191.503906 188.832031 191.992188 C 188.84375 192.476562 188.726562 192.929688 188.480469 193.351562 C 188.234375 193.773438 187.898438 194.097656 187.46875 194.332031 C 187.039062 194.5625 186.582031 194.664062 186.097656 194.640625 Z M 186.097656 194.640625 "/>
<path style=" stroke:none;fill-rule:nonzero;fill:rgb(38.42926%,37.649536%,70.979309%);fill-opacity:1;" d="M 17.207031 132.980469 C 17.640625 133.054688 18.0625 133.167969 18.472656 133.320312 C 18.882812 133.476562 19.277344 133.671875 19.648438 133.902344 C 20.023438 134.132812 20.371094 134.398438 20.691406 134.699219 C 21.011719 135 21.300781 135.328125 21.558594 135.683594 C 21.816406 136.039062 22.035156 136.417969 22.21875 136.816406 C 22.402344 137.214844 22.542969 137.628906 22.644531 138.054688 C 22.746094 138.480469 22.808594 138.914062 22.824219 139.355469 C 22.84375 139.792969 22.816406 140.230469 22.75 140.664062 C 22.679688 141.265625 22.511719 141.839844 22.242188 142.382812 C 21.96875 142.925781 21.613281 143.40625 21.171875 143.820312 C 20.730469 144.238281 20.230469 144.566406 19.671875 144.804688 C 19.113281 145.042969 18.53125 145.179688 17.921875 145.210938 C 17.496094 145.125 17.074219 145.003906 16.667969 144.84375 C 16.261719 144.6875 15.867188 144.496094 15.492188 144.269531 C 15.117188 144.046875 14.765625 143.789062 14.433594 143.503906 C 14.105469 143.214844 13.800781 142.902344 13.523438 142.566406 C 13.246094 142.226562 13.003906 141.867188 12.789062 141.484375 C 12.574219 141.105469 12.394531 140.707031 12.246094 140.296875 C 12.101562 139.882812 11.992188 139.460938 11.917969 139.03125 C 11.847656 138.597656 11.808594 138.164062 11.8125 137.726562 C 11.894531 137.070312 12.09375 136.453125 12.402344 135.867188 C 12.710938 135.28125 13.113281 134.773438 13.613281 134.335938 C 14.109375 133.898438 14.664062 133.5625 15.285156 133.328125 C 15.902344 133.097656 16.542969 132.980469 17.207031 132.980469 Z M 17.207031 132.980469 "/>
<path style=" stroke:none;fill-rule:nonzero;fill:rgb(38.42926%,37.649536%,70.979309%);fill-opacity:1;" d="M 179.730469 207.132812 C 179.679688 203.953125 181.4375 201.71875 184.003906 201.667969 C 184.457031 201.742188 184.898438 201.851562 185.332031 202.003906 C 185.765625 202.152344 186.179688 202.335938 186.582031 202.558594 C 186.980469 202.78125 187.359375 203.039062 187.714844 203.328125 C 188.066406 203.613281 188.394531 203.933594 188.695312 204.277344 C 188.992188 204.625 189.261719 204.992188 189.496094 205.386719 C 189.730469 205.777344 189.929688 206.1875 190.089844 206.617188 C 190.253906 207.042969 190.378906 207.480469 190.464844 207.929688 C 190.550781 208.378906 190.597656 208.832031 190.601562 209.289062 C 190.644531 209.585938 190.652344 209.882812 190.625 210.183594 C 190.597656 210.480469 190.539062 210.769531 190.445312 211.054688 C 190.351562 211.339844 190.226562 211.609375 190.074219 211.863281 C 189.917969 212.121094 189.734375 212.355469 189.527344 212.570312 C 189.316406 212.785156 189.085938 212.972656 188.835938 213.132812 C 188.582031 213.292969 188.316406 213.425781 188.035156 213.523438 C 187.753906 213.625 187.460938 213.691406 187.164062 213.726562 C 186.867188 213.761719 186.570312 213.761719 186.273438 213.726562 C 185.839844 213.734375 185.410156 213.699219 184.980469 213.617188 C 184.554688 213.539062 184.140625 213.417969 183.738281 213.253906 C 183.335938 213.089844 182.957031 212.890625 182.59375 212.648438 C 182.234375 212.40625 181.898438 212.132812 181.59375 211.824219 C 181.289062 211.519531 181.015625 211.183594 180.777344 210.820312 C 180.542969 210.457031 180.34375 210.074219 180.183594 209.671875 C 180.023438 209.265625 179.902344 208.851562 179.828125 208.425781 C 179.753906 207.996094 179.71875 207.566406 179.730469 207.132812 Z M 179.730469 207.132812 "/>
<path style=" stroke:none;fill-rule:nonzero;fill:rgb(38.42926%,37.649536%,70.979309%);fill-opacity:1;" d="M 133.386719 88.804688 C 133.371094 89.175781 133.320312 89.539062 133.234375 89.898438 C 133.148438 90.257812 133.027344 90.605469 132.875 90.941406 C 132.71875 91.277344 132.535156 91.597656 132.316406 91.894531 C 132.101562 92.195312 131.855469 92.46875 131.585938 92.722656 C 131.3125 92.972656 131.019531 93.195312 130.707031 93.386719 C 130.390625 93.582031 130.058594 93.742188 129.710938 93.871094 C 129.367188 94 129.007812 94.09375 128.644531 94.152344 C 128.277344 94.210938 127.910156 94.230469 127.542969 94.21875 C 127.171875 94.203125 126.808594 94.152344 126.449219 94.066406 C 126.089844 93.980469 125.742188 93.863281 125.40625 93.707031 C 125.070312 93.554688 124.75 93.367188 124.449219 93.152344 C 124.152344 92.933594 123.875 92.691406 123.625 92.417969 C 123.375 92.148438 123.152344 91.855469 122.957031 91.539062 C 122.761719 91.226562 122.601562 90.894531 122.472656 90.546875 C 122.34375 90.203125 122.253906 89.84375 122.195312 89.480469 C 122.136719 89.117188 122.113281 88.75 122.128906 88.378906 C 122.109375 88.027344 122.125 87.675781 122.175781 87.328125 C 122.230469 86.980469 122.316406 86.640625 122.4375 86.3125 C 122.5625 85.980469 122.714844 85.667969 122.902344 85.367188 C 123.089844 85.070312 123.304688 84.792969 123.550781 84.539062 C 123.792969 84.285156 124.058594 84.058594 124.351562 83.855469 C 124.640625 83.65625 124.949219 83.488281 125.273438 83.355469 C 125.597656 83.21875 125.933594 83.117188 126.28125 83.046875 C 126.625 82.980469 126.976562 82.949219 127.328125 82.953125 C 128.078125 83.0625 128.789062 83.28125 129.46875 83.613281 C 130.148438 83.945312 130.761719 84.375 131.304688 84.902344 C 131.847656 85.425781 132.296875 86.023438 132.652344 86.691406 C 133.007812 87.355469 133.253906 88.0625 133.386719 88.804688 Z M 133.386719 88.804688 "/>
<path style=" stroke:none;fill-rule:nonzero;fill:rgb(38.42926%,37.649536%,70.979309%);fill-opacity:1;" d="M 73.421875 131.328125 C 73.417969 130.972656 73.453125 130.621094 73.523438 130.273438 C 73.597656 129.925781 73.703125 129.589844 73.839844 129.261719 C 73.980469 128.9375 74.152344 128.628906 74.355469 128.335938 C 74.558594 128.046875 74.789062 127.777344 75.046875 127.535156 C 75.304688 127.289062 75.582031 127.074219 75.886719 126.886719 C 76.1875 126.699219 76.503906 126.542969 76.839844 126.421875 C 77.171875 126.300781 77.515625 126.210938 77.863281 126.160156 C 78.214844 126.109375 78.570312 126.089844 78.925781 126.113281 C 79.320312 126.210938 79.707031 126.347656 80.078125 126.515625 C 80.453125 126.6875 80.808594 126.886719 81.144531 127.121094 C 81.480469 127.355469 81.792969 127.617188 82.082031 127.90625 C 82.371094 128.199219 82.632812 128.511719 82.867188 128.847656 C 83.097656 129.1875 83.300781 129.542969 83.46875 129.914062 C 83.636719 130.289062 83.769531 130.671875 83.867188 131.070312 C 83.96875 131.46875 84.027344 131.871094 84.054688 132.28125 C 84.082031 132.691406 84.070312 133.097656 84.023438 133.503906 C 84.007812 133.832031 83.953125 134.15625 83.867188 134.472656 C 83.777344 134.792969 83.65625 135.09375 83.5 135.386719 C 83.34375 135.675781 83.15625 135.945312 82.941406 136.195312 C 82.726562 136.441406 82.484375 136.664062 82.21875 136.859375 C 81.953125 137.054688 81.671875 137.21875 81.367188 137.351562 C 81.066406 137.480469 80.753906 137.578125 80.429688 137.640625 C 80.105469 137.703125 79.777344 137.726562 79.449219 137.71875 C 79.121094 137.707031 78.796875 137.660156 78.476562 137.578125 C 78.089844 137.578125 77.710938 137.539062 77.332031 137.453125 C 76.953125 137.371094 76.59375 137.246094 76.242188 137.082031 C 75.894531 136.917969 75.566406 136.714844 75.265625 136.476562 C 74.960938 136.238281 74.6875 135.96875 74.445312 135.667969 C 74.203125 135.367188 73.996094 135.042969 73.824219 134.699219 C 73.65625 134.351562 73.527344 133.992188 73.4375 133.613281 C 73.347656 133.238281 73.304688 132.859375 73.300781 132.472656 C 73.296875 132.085938 73.335938 131.707031 73.421875 131.328125 Z M 73.421875 131.328125 "/>
<path style=" stroke:none;fill-rule:nonzero;fill:rgb(38.42926%,37.649536%,70.979309%);fill-opacity:1;" d="M 196.191406 161.316406 C 196.464844 158.300781 198.011719 156.816406 200.695312 157.027344 C 201.542969 157.195312 202.347656 157.488281 203.105469 157.90625 C 203.859375 158.320312 204.535156 158.84375 205.128906 159.472656 C 205.722656 160.101562 206.207031 160.804688 206.582031 161.585938 C 206.957031 162.363281 207.203125 163.179688 207.320312 164.035156 C 207.285156 164.355469 207.21875 164.667969 207.121094 164.976562 C 207.023438 165.28125 206.898438 165.574219 206.746094 165.859375 C 206.59375 166.140625 206.417969 166.40625 206.214844 166.65625 C 206.011719 166.90625 205.789062 167.136719 205.542969 167.34375 C 205.296875 167.550781 205.035156 167.730469 204.753906 167.890625 C 204.472656 168.046875 204.179688 168.175781 203.875 168.277344 C 203.570312 168.382812 203.261719 168.453125 202.941406 168.496094 C 202.625 168.539062 202.304688 168.554688 201.980469 168.535156 C 201.546875 168.507812 201.121094 168.4375 200.699219 168.320312 C 200.28125 168.203125 199.878906 168.046875 199.492188 167.84375 C 199.105469 167.644531 198.742188 167.40625 198.40625 167.128906 C 198.066406 166.855469 197.761719 166.546875 197.492188 166.207031 C 197.21875 165.867188 196.984375 165.5 196.789062 165.113281 C 196.589844 164.722656 196.4375 164.320312 196.324219 163.898438 C 196.214844 163.476562 196.148438 163.050781 196.125 162.613281 C 196.101562 162.179688 196.125 161.746094 196.191406 161.316406 Z M 196.191406 161.316406 "/>
<path style=" stroke:none;fill-rule:nonzero;fill:rgb(38.42926%,37.649536%,70.979309%);fill-opacity:1;" d="M 114.054688 181.105469 C 114.128906 184.574219 112.65625 186.570312 109.953125 186.628906 C 109.574219 186.613281 109.199219 186.5625 108.832031 186.480469 C 108.460938 186.398438 108.101562 186.28125 107.753906 186.132812 C 107.40625 185.984375 107.074219 185.808594 106.757812 185.597656 C 106.441406 185.390625 106.144531 185.15625 105.871094 184.894531 C 105.597656 184.636719 105.347656 184.351562 105.125 184.046875 C 104.898438 183.742188 104.707031 183.417969 104.539062 183.078125 C 104.375 182.738281 104.242188 182.386719 104.136719 182.019531 C 104.035156 181.65625 103.96875 181.285156 103.933594 180.910156 C 103.964844 180.207031 104.105469 179.53125 104.351562 178.871094 C 104.597656 178.214844 104.941406 177.613281 105.375 177.0625 C 105.808594 176.511719 106.316406 176.039062 106.898438 175.648438 C 107.480469 175.253906 108.109375 174.960938 108.78125 174.761719 C 111.308594 174.5625 113.984375 177.785156 114.054688 181.105469 Z M 114.054688 181.105469 "/>
<path style=" stroke:none;fill-rule:nonzero;fill:rgb(38.42926%,37.649536%,70.979309%);fill-opacity:1;" d="M 54.703125 251.40625 C 53.898438 252.253906 52.953125 252.898438 51.875 253.351562 C 48.890625 254.039062 47.03125 252.066406 45.3125 249.953125 C 44.886719 249.511719 44.550781 249.015625 44.296875 248.460938 C 44.042969 247.910156 43.886719 247.328125 43.832031 246.722656 C 43.777344 246.113281 43.820312 245.515625 43.96875 244.925781 C 44.121094 244.332031 44.363281 243.785156 44.699219 243.277344 C 45.15625 242.75 45.710938 242.355469 46.359375 242.09375 C 47.011719 241.832031 47.683594 241.734375 48.378906 241.796875 C 50.75 242.269531 54.691406 248.148438 54.703125 251.40625 Z M 54.703125 251.40625 "/>
<path style=" stroke:none;fill-rule:nonzero;fill:rgb(38.42926%,37.649536%,70.979309%);fill-opacity:1;" d="M 11.910156 102.542969 C 11.933594 102.839844 11.929688 103.140625 11.894531 103.441406 C 11.859375 103.738281 11.792969 104.03125 11.695312 104.316406 C 11.601562 104.601562 11.476562 104.875 11.324219 105.136719 C 11.171875 105.394531 10.996094 105.636719 10.792969 105.863281 C 10.59375 106.085938 10.371094 106.289062 10.125 106.464844 C 9.882812 106.644531 9.625 106.796875 9.351562 106.921875 C 9.078125 107.046875 8.792969 107.140625 8.5 107.207031 C 8.203125 107.277344 7.90625 107.3125 7.605469 107.316406 C 7.230469 107.355469 6.851562 107.355469 6.476562 107.324219 C 6.097656 107.289062 5.726562 107.222656 5.363281 107.117188 C 5 107.011719 4.648438 106.875 4.308594 106.707031 C 3.972656 106.535156 3.652344 106.335938 3.351562 106.105469 C 3.050781 105.875 2.777344 105.617188 2.523438 105.335938 C 2.273438 105.050781 2.050781 104.75 1.855469 104.421875 C 1.664062 104.097656 1.5 103.757812 1.371094 103.402344 C 1.242188 103.046875 1.144531 102.683594 1.085938 102.308594 C 1.117188 101.546875 1.277344 100.816406 1.5625 100.109375 C 1.84375 99.402344 2.238281 98.761719 2.742188 98.191406 C 3.246094 97.617188 3.828125 97.144531 4.492188 96.773438 C 5.160156 96.402344 5.867188 96.148438 6.617188 96.019531 C 9.03125 95.882812 11.875 99.394531 11.910156 102.542969 Z M 11.910156 102.542969 "/>
<path style=" stroke:none;fill-rule:nonzero;fill:rgb(38.42926%,37.649536%,70.979309%);fill-opacity:1;" d="M 54.539062 57.519531 C 54.488281 57.839844 54.410156 58.152344 54.300781 58.460938 C 54.195312 58.765625 54.058594 59.0625 53.894531 59.34375 C 53.730469 59.625 53.546875 59.890625 53.332031 60.136719 C 53.121094 60.382812 52.890625 60.609375 52.636719 60.8125 C 52.382812 61.019531 52.113281 61.199219 51.828125 61.351562 C 51.539062 61.507812 51.242188 61.632812 50.933594 61.734375 C 50.621094 61.832031 50.304688 61.902344 49.984375 61.945312 C 49.660156 61.984375 49.335938 61.996094 49.011719 61.976562 C 45.929688 61.695312 43.167969 59.03125 43.503906 56.65625 C 43.882812 53.96875 46.980469 50.816406 49.011719 51.058594 C 49.753906 51.238281 50.449219 51.527344 51.101562 51.925781 C 51.753906 52.324219 52.324219 52.8125 52.820312 53.394531 C 53.320312 53.972656 53.714844 54.617188 54.007812 55.320312 C 54.300781 56.023438 54.476562 56.757812 54.539062 57.519531 Z M 54.539062 57.519531 "/>
<path style=" stroke:none;fill-rule:nonzero;fill:rgb(38.42926%,37.649536%,70.979309%);fill-opacity:1;" d="M 49.796875 108.484375 C 49.753906 104.816406 51.585938 102.558594 54.535156 102.644531 C 54.886719 102.683594 55.230469 102.753906 55.570312 102.859375 C 55.910156 102.960938 56.238281 103.09375 56.550781 103.253906 C 56.867188 103.417969 57.164062 103.605469 57.445312 103.820312 C 57.726562 104.035156 57.988281 104.273438 58.226562 104.539062 C 58.464844 104.800781 58.675781 105.082031 58.863281 105.382812 C 59.050781 105.683594 59.210938 105.996094 59.339844 106.328125 C 59.46875 106.65625 59.570312 106.996094 59.636719 107.34375 C 59.707031 107.691406 59.746094 108.039062 59.75 108.394531 C 59.816406 111.707031 58.097656 113.746094 55.28125 113.6875 C 54.925781 113.722656 54.570312 113.714844 54.214844 113.671875 C 53.859375 113.628906 53.511719 113.546875 53.175781 113.429688 C 52.835938 113.3125 52.515625 113.160156 52.210938 112.976562 C 51.902344 112.789062 51.621094 112.574219 51.363281 112.328125 C 51.101562 112.082031 50.871094 111.808594 50.667969 111.515625 C 50.46875 111.21875 50.300781 110.90625 50.164062 110.574219 C 50.03125 110.242188 49.933594 109.902344 49.871094 109.550781 C 49.808594 109.195312 49.785156 108.839844 49.796875 108.484375 Z M 49.796875 108.484375 "/>
<path style=" stroke:none;fill-rule:nonzero;fill:rgb(38.42926%,37.649536%,70.979309%);fill-opacity:1;" d="M 90.824219 173.3125 C 90.847656 173.640625 90.835938 173.964844 90.789062 174.289062 C 90.742188 174.613281 90.65625 174.929688 90.542969 175.234375 C 90.425781 175.542969 90.277344 175.832031 90.097656 176.105469 C 89.914062 176.378906 89.707031 176.632812 89.472656 176.859375 C 89.238281 177.089844 88.980469 177.289062 88.703125 177.460938 C 88.421875 177.632812 88.128906 177.773438 87.820312 177.882812 C 87.507812 177.992188 87.191406 178.0625 86.867188 178.101562 C 86.539062 178.140625 86.214844 178.144531 85.886719 178.113281 C 85.53125 178.109375 85.175781 178.066406 84.828125 177.992188 C 84.476562 177.917969 84.140625 177.804688 83.8125 177.660156 C 83.484375 177.515625 83.175781 177.339844 82.886719 177.132812 C 82.597656 176.925781 82.328125 176.6875 82.085938 176.425781 C 81.84375 176.164062 81.628906 175.878906 81.445312 175.574219 C 81.257812 175.269531 81.105469 174.949219 80.988281 174.609375 C 80.867188 174.273438 80.785156 173.929688 80.734375 173.574219 C 80.683594 173.222656 80.671875 172.867188 80.695312 172.507812 C 80.683594 171.855469 80.773438 171.214844 80.964844 170.585938 C 81.15625 169.960938 81.445312 169.378906 81.824219 168.84375 C 82.203125 168.308594 82.660156 167.847656 83.1875 167.460938 C 83.714844 167.070312 84.292969 166.777344 84.917969 166.574219 C 87.523438 166.304688 90.648438 169.867188 90.824219 173.3125 Z M 90.824219 173.3125 "/>
<path style=" stroke:none;fill-rule:nonzero;fill:rgb(38.42926%,37.649536%,70.979309%);fill-opacity:1;" d="M 65.289062 156.074219 C 65.316406 156.371094 65.3125 156.667969 65.273438 156.964844 C 65.234375 157.261719 65.164062 157.546875 65.058594 157.828125 C 64.953125 158.109375 64.816406 158.371094 64.652344 158.621094 C 64.488281 158.871094 64.296875 159.097656 64.078125 159.300781 C 63.863281 159.507812 63.625 159.683594 63.367188 159.835938 C 63.109375 159.984375 62.835938 160.105469 62.550781 160.195312 C 62.265625 160.28125 61.972656 160.335938 61.675781 160.359375 C 61.378906 160.382812 61.082031 160.371094 60.785156 160.324219 C 60.410156 160.300781 60.039062 160.242188 59.671875 160.152344 C 59.304688 160.058594 58.953125 159.929688 58.609375 159.773438 C 58.269531 159.613281 57.945312 159.421875 57.636719 159.203125 C 57.332031 158.984375 57.046875 158.734375 56.789062 158.460938 C 56.527344 158.1875 56.296875 157.894531 56.089844 157.578125 C 55.886719 157.261719 55.710938 156.925781 55.570312 156.578125 C 55.429688 156.226562 55.320312 155.867188 55.246094 155.5 C 55.171875 155.128906 55.132812 154.753906 55.128906 154.378906 C 55.324219 151.828125 57.886719 148.914062 59.894531 148.988281 C 60.675781 149.195312 61.398438 149.523438 62.070312 149.972656 C 62.738281 150.421875 63.320312 150.964844 63.808594 151.609375 C 64.296875 152.25 64.667969 152.953125 64.921875 153.71875 C 65.175781 154.484375 65.296875 155.269531 65.289062 156.074219 Z M 65.289062 156.074219 "/>
<path style=" stroke:none;fill-rule:nonzero;fill:rgb(38.42926%,37.649536%,70.979309%);fill-opacity:1;" d="M 198.175781 232.53125 C 199.101562 232.792969 199.980469 233.175781 200.804688 233.671875 C 201.628906 234.171875 202.375 234.769531 203.042969 235.464844 C 203.707031 236.160156 204.269531 236.933594 204.730469 237.78125 C 205.191406 238.628906 205.53125 239.523438 205.753906 240.460938 C 205.75 240.710938 205.722656 240.957031 205.664062 241.199219 C 205.609375 241.445312 205.527344 241.679688 205.417969 241.90625 C 205.308594 242.128906 205.175781 242.339844 205.019531 242.535156 C 204.863281 242.730469 204.6875 242.90625 204.492188 243.0625 C 204.292969 243.21875 204.085938 243.351562 203.859375 243.460938 C 203.632812 243.570312 203.398438 243.652344 203.15625 243.710938 C 202.910156 243.765625 202.664062 243.796875 202.414062 243.796875 C 202.164062 243.800781 201.914062 243.773438 201.671875 243.71875 C 200.730469 243.585938 199.859375 243.265625 199.054688 242.765625 C 198.25 242.265625 197.582031 241.625 197.046875 240.84375 C 196.222656 238.660156 195.917969 236.40625 196.132812 234.078125 C 196.136719 233.476562 197.679688 232.882812 198.175781 232.53125 Z M 198.175781 232.53125 "/>
<path style=" stroke:none;fill-rule:nonzero;fill:rgb(38.42926%,37.649536%,70.979309%);fill-opacity:1;" d="M 28.980469 180.390625 C 28.910156 177.71875 29.539062 175.59375 32.769531 175.417969 C 33.121094 175.375 33.472656 175.367188 33.828125 175.398438 C 34.179688 175.425781 34.527344 175.492188 34.867188 175.59375 C 35.207031 175.699219 35.53125 175.832031 35.84375 176.003906 C 36.152344 176.175781 36.445312 176.375 36.714844 176.605469 C 36.980469 176.839844 37.222656 177.09375 37.441406 177.375 C 37.65625 177.660156 37.839844 177.960938 37.992188 178.28125 C 38.144531 178.601562 38.261719 178.933594 38.34375 179.277344 C 38.425781 179.621094 38.472656 179.972656 38.480469 180.328125 C 38.445312 180.980469 38.308594 181.613281 38.078125 182.222656 C 37.84375 182.835938 37.527344 183.394531 37.117188 183.910156 C 36.710938 184.421875 36.238281 184.859375 35.695312 185.226562 C 35.152344 185.589844 34.566406 185.863281 33.9375 186.046875 C 31.1875 186.304688 29.070312 183.894531 28.980469 180.390625 Z M 28.980469 180.390625 "/>
<path style=" stroke:none;fill-rule:nonzero;fill:rgb(38.42926%,37.649536%,70.979309%);fill-opacity:1;" d="M 186.867188 132.269531 C 186.855469 132.601562 186.804688 132.925781 186.722656 133.246094 C 186.636719 133.566406 186.515625 133.875 186.363281 134.167969 C 186.210938 134.460938 186.027344 134.734375 185.816406 134.988281 C 185.601562 135.242188 185.363281 135.46875 185.097656 135.667969 C 184.835938 135.871094 184.554688 136.039062 184.253906 136.175781 C 183.953125 136.316406 183.640625 136.421875 183.316406 136.488281 C 182.992188 136.558594 182.664062 136.59375 182.332031 136.589844 C 182 136.585938 181.675781 136.550781 181.351562 136.472656 C 181.019531 136.480469 180.691406 136.457031 180.367188 136.394531 C 180.039062 136.332031 179.726562 136.234375 179.417969 136.105469 C 179.113281 135.976562 178.824219 135.816406 178.554688 135.628906 C 178.285156 135.4375 178.035156 135.21875 177.808594 134.976562 C 177.585938 134.734375 177.386719 134.46875 177.21875 134.183594 C 177.050781 133.898438 176.914062 133.597656 176.808594 133.285156 C 176.703125 132.972656 176.632812 132.648438 176.597656 132.320312 C 176.558594 131.992188 176.558594 131.660156 176.589844 131.332031 C 176.578125 131.03125 176.59375 130.730469 176.640625 130.433594 C 176.683594 130.136719 176.757812 129.84375 176.859375 129.5625 C 176.960938 129.277344 177.089844 129.007812 177.246094 128.75 C 177.398438 128.488281 177.578125 128.25 177.78125 128.023438 C 177.984375 127.800781 178.207031 127.601562 178.445312 127.417969 C 178.6875 127.238281 178.945312 127.085938 179.21875 126.953125 C 179.488281 126.824219 179.773438 126.722656 180.0625 126.648438 C 180.355469 126.574219 180.652344 126.527344 180.953125 126.511719 C 181.335938 126.507812 181.714844 126.542969 182.089844 126.613281 C 182.46875 126.6875 182.832031 126.792969 183.1875 126.9375 C 183.542969 127.078125 183.878906 127.253906 184.199219 127.464844 C 184.519531 127.671875 184.816406 127.910156 185.09375 128.179688 C 185.367188 128.445312 185.613281 128.734375 185.828125 129.050781 C 186.046875 129.367188 186.230469 129.699219 186.382812 130.050781 C 186.535156 130.398438 186.652344 130.761719 186.734375 131.136719 C 186.816406 131.507812 186.859375 131.886719 186.867188 132.269531 Z M 186.867188 132.269531 "/>
<path style=" stroke:none;fill-rule:nonzero;fill:rgb(38.42926%,37.649536%,70.979309%);fill-opacity:1;" d="M 70.609375 209.410156 C 71.992188 211.289062 73.28125 213.230469 74.46875 215.242188 C 75.484375 217.222656 76.425781 219.78125 73.753906 220.914062 C 72.78125 221.285156 71.773438 221.453125 70.734375 221.425781 C 69.691406 221.398438 68.695312 221.171875 67.742188 220.746094 C 67.460938 220.625 67.199219 220.476562 66.949219 220.296875 C 66.703125 220.117188 66.476562 219.914062 66.273438 219.683594 C 66.070312 219.453125 65.894531 219.207031 65.746094 218.9375 C 65.597656 218.667969 65.480469 218.386719 65.394531 218.09375 C 65.308594 217.800781 65.257812 217.5 65.238281 217.195312 C 65.21875 216.890625 65.230469 216.585938 65.28125 216.285156 C 65.328125 215.984375 65.40625 215.6875 65.519531 215.40625 C 65.632812 215.121094 65.773438 214.851562 65.945312 214.597656 C 67.375 212.753906 68.929688 211.023438 70.609375 209.410156 Z M 70.609375 209.410156 "/>
<path style=" stroke:none;fill-rule:nonzero;fill:rgb(38.42926%,37.649536%,70.979309%);fill-opacity:1;" d="M 114.574219 145.199219 C 115.273438 145.351562 115.929688 145.613281 116.539062 145.984375 C 117.148438 146.359375 117.679688 146.824219 118.128906 147.382812 C 118.578125 147.9375 118.921875 148.550781 119.160156 149.226562 C 119.398438 149.898438 119.519531 150.59375 119.519531 151.308594 C 119.542969 151.609375 119.539062 151.910156 119.5 152.207031 C 119.464844 152.507812 119.398438 152.796875 119.300781 153.085938 C 119.203125 153.371094 119.078125 153.640625 118.925781 153.902344 C 118.773438 154.164062 118.597656 154.402344 118.394531 154.628906 C 118.195312 154.851562 117.972656 155.054688 117.730469 155.230469 C 117.484375 155.410156 117.226562 155.5625 116.953125 155.6875 C 116.679688 155.8125 116.394531 155.910156 116.101562 155.976562 C 115.808594 156.042969 115.511719 156.082031 115.207031 156.089844 C 114.507812 155.964844 113.839844 155.738281 113.210938 155.40625 C 112.578125 155.074219 112.011719 154.65625 111.511719 154.152344 C 111.011719 153.644531 110.601562 153.074219 110.277344 152.4375 C 109.953125 151.804688 109.734375 151.136719 109.617188 150.433594 C 109.664062 149.777344 109.816406 149.148438 110.082031 148.546875 C 110.34375 147.945312 110.703125 147.40625 111.15625 146.925781 C 111.609375 146.449219 112.128906 146.0625 112.714844 145.765625 C 113.300781 145.46875 113.921875 145.28125 114.574219 145.199219 Z M 114.574219 145.199219 "/>
<path style=" stroke:none;fill-rule:nonzero;fill:rgb(38.42926%,37.649536%,70.979309%);fill-opacity:1;" d="M 178.347656 166.957031 C 178.101562 169.042969 176.5 169.808594 174.257812 169.761719 C 173.875 169.789062 173.488281 169.777344 173.105469 169.722656 C 172.71875 169.667969 172.347656 169.574219 171.984375 169.441406 C 171.621094 169.308594 171.273438 169.136719 170.945312 168.929688 C 170.621094 168.722656 170.316406 168.484375 170.042969 168.210938 C 169.765625 167.9375 169.523438 167.640625 169.308594 167.316406 C 169.097656 166.992188 168.921875 166.648438 168.78125 166.289062 C 168.644531 165.925781 168.546875 165.554688 168.484375 165.171875 C 168.425781 164.789062 168.410156 164.402344 168.429688 164.015625 C 168.390625 163.742188 168.378906 163.46875 168.402344 163.191406 C 168.421875 162.917969 168.472656 162.644531 168.558594 162.382812 C 168.640625 162.117188 168.75 161.867188 168.890625 161.625 C 169.03125 161.386719 169.195312 161.167969 169.386719 160.964844 C 169.578125 160.765625 169.789062 160.585938 170.019531 160.433594 C 170.25 160.28125 170.496094 160.15625 170.753906 160.058594 C 171.011719 159.960938 171.28125 159.890625 171.554688 159.855469 C 171.828125 159.820312 172.105469 159.8125 172.382812 159.839844 C 172.804688 159.894531 173.21875 159.988281 173.625 160.121094 C 174.03125 160.25 174.417969 160.417969 174.792969 160.625 C 175.167969 160.828125 175.519531 161.066406 175.847656 161.335938 C 176.179688 161.609375 176.480469 161.90625 176.753906 162.234375 C 177.027344 162.558594 177.269531 162.910156 177.480469 163.28125 C 177.6875 163.652344 177.859375 164.039062 177.996094 164.445312 C 178.132812 164.847656 178.230469 165.261719 178.289062 165.683594 C 178.347656 166.105469 178.367188 166.53125 178.347656 166.957031 Z M 178.347656 166.957031 "/>
<path style=" stroke:none;fill-rule:nonzero;fill:rgb(38.42926%,37.649536%,70.979309%);fill-opacity:1;" d="M 155.992188 141.347656 C 155.5 141.328125 155.015625 141.253906 154.539062 141.128906 C 154.0625 141.003906 153.605469 140.828125 153.167969 140.601562 C 152.730469 140.378906 152.320312 140.109375 151.941406 139.792969 C 151.5625 139.480469 151.21875 139.128906 150.917969 138.738281 C 150.613281 138.351562 150.355469 137.933594 150.144531 137.488281 C 149.933594 137.046875 149.773438 136.582031 149.660156 136.101562 C 149.550781 135.625 149.492188 135.136719 149.488281 134.644531 C 149.480469 134.152344 149.53125 133.664062 149.632812 133.183594 C 149.902344 132.621094 150.28125 132.148438 150.769531 131.757812 C 151.253906 131.371094 151.804688 131.109375 152.410156 130.96875 C 152.894531 131 153.371094 131.082031 153.839844 131.214844 C 154.308594 131.347656 154.757812 131.53125 155.183594 131.761719 C 155.613281 131.992188 156.011719 132.265625 156.382812 132.582031 C 156.75 132.898438 157.082031 133.25 157.375 133.636719 C 157.667969 134.023438 157.917969 134.4375 158.121094 134.882812 C 158.324219 135.324219 158.476562 135.78125 158.582031 136.253906 C 158.6875 136.730469 158.738281 137.210938 158.738281 137.695312 C 158.742188 138.183594 158.6875 138.664062 158.585938 139.140625 C 158.152344 140.253906 156.535156 140.910156 155.992188 141.347656 Z M 155.992188 141.347656 "/>
<path style=" stroke:none;fill-rule:nonzero;fill:rgb(38.42926%,37.649536%,70.979309%);fill-opacity:1;" d="M 151.808594 171.679688 C 150.71875 172.402344 149.199219 174.121094 147.460938 174.382812 C 147.105469 174.390625 146.753906 174.359375 146.40625 174.292969 C 146.054688 174.226562 145.71875 174.121094 145.390625 173.984375 C 145.0625 173.847656 144.753906 173.679688 144.460938 173.480469 C 144.167969 173.277344 143.898438 173.050781 143.652344 172.792969 C 143.410156 172.535156 143.191406 172.257812 143.003906 171.957031 C 142.816406 171.65625 142.664062 171.335938 142.542969 171.003906 C 142.417969 170.671875 142.332031 170.328125 142.28125 169.976562 C 142.230469 169.625 142.21875 169.273438 142.238281 168.917969 C 142.210938 168.644531 142.214844 168.371094 142.242188 168.09375 C 142.269531 167.820312 142.324219 167.550781 142.40625 167.289062 C 142.488281 167.023438 142.597656 166.773438 142.730469 166.53125 C 142.863281 166.289062 143.019531 166.0625 143.199219 165.851562 C 143.378906 165.644531 143.578125 165.453125 143.796875 165.28125 C 144.011719 165.113281 144.246094 164.964844 144.492188 164.84375 C 144.738281 164.71875 144.996094 164.621094 145.261719 164.550781 C 145.53125 164.480469 145.800781 164.4375 146.078125 164.417969 C 148.648438 164.171875 151.796875 167.582031 151.808594 171.679688 Z M 151.808594 171.679688 "/>
<path style=" stroke:none;fill-rule:nonzero;fill:rgb(38.42926%,37.649536%,70.979309%);fill-opacity:1;" d="M 47.082031 217.507812 C 46.660156 217.488281 46.246094 217.429688 45.839844 217.328125 C 45.429688 217.226562 45.039062 217.085938 44.660156 216.902344 C 44.28125 216.722656 43.925781 216.503906 43.589844 216.25 C 43.253906 215.996094 42.949219 215.710938 42.675781 215.394531 C 42.398438 215.078125 42.15625 214.734375 41.949219 214.367188 C 41.746094 214.003906 41.578125 213.621094 41.449219 213.21875 C 41.320312 212.820312 41.234375 212.410156 41.191406 211.992188 C 41.144531 211.578125 41.144531 211.160156 41.183594 210.742188 C 41.175781 210.46875 41.191406 210.199219 41.234375 209.929688 C 41.277344 209.660156 41.34375 209.398438 41.4375 209.144531 C 41.53125 208.886719 41.648438 208.644531 41.789062 208.410156 C 41.933594 208.179688 42.09375 207.960938 42.277344 207.761719 C 42.460938 207.558594 42.664062 207.378906 42.882812 207.21875 C 43.101562 207.054688 43.335938 206.917969 43.582031 206.800781 C 43.828125 206.683594 44.082031 206.59375 44.347656 206.527344 C 44.609375 206.460938 44.878906 206.421875 45.152344 206.40625 C 47.589844 206.207031 51.136719 210.875 50.296875 213.570312 C 49.746094 215.269531 47.902344 216.554688 47.082031 217.507812 Z M 47.082031 217.507812 "/>
<path style=" stroke:none;fill-rule:nonzero;fill:rgb(38.42926%,37.649536%,70.979309%);fill-opacity:1;" d="M 232.507812 237.449219 C 235.953125 237.664062 239.699219 241.988281 239.304688 244.433594 C 239.054688 245.492188 238.457031 246.285156 237.511719 246.820312 C 234.03125 248.472656 228.425781 244.300781 229.316406 240.527344 C 229.648438 239.113281 231.769531 238.121094 232.507812 237.449219 Z M 232.507812 237.449219 "/>
<path style=" stroke:none;fill-rule:nonzero;fill:rgb(38.42926%,37.649536%,70.979309%);fill-opacity:1;" d="M 96.542969 246.710938 C 95.511719 247.386719 93.96875 249.136719 92.246094 249.34375 C 89.460938 249.664062 86.738281 245.839844 87.148438 242.839844 C 87.160156 242.589844 87.195312 242.34375 87.261719 242.101562 C 87.328125 241.863281 87.417969 241.632812 87.535156 241.410156 C 87.652344 241.191406 87.792969 240.984375 87.953125 240.796875 C 88.117188 240.605469 88.296875 240.4375 88.496094 240.289062 C 88.699219 240.140625 88.914062 240.011719 89.140625 239.914062 C 89.367188 239.8125 89.605469 239.734375 89.851562 239.6875 C 90.09375 239.640625 90.34375 239.617188 90.59375 239.625 C 90.84375 239.632812 91.085938 239.664062 91.328125 239.726562 C 91.726562 239.792969 92.113281 239.898438 92.492188 240.035156 C 92.867188 240.175781 93.226562 240.351562 93.570312 240.5625 C 93.914062 240.769531 94.234375 241.011719 94.535156 241.28125 C 94.832031 241.554688 95.101562 241.851562 95.339844 242.171875 C 95.582031 242.496094 95.789062 242.835938 95.964844 243.199219 C 96.140625 243.5625 96.277344 243.9375 96.382812 244.324219 C 96.484375 244.714844 96.550781 245.109375 96.578125 245.511719 C 96.605469 245.914062 96.59375 246.3125 96.542969 246.710938 Z M 96.542969 246.710938 "/>
<path style=" stroke:none;fill-rule:nonzero;fill:rgb(38.42926%,37.649536%,70.979309%);fill-opacity:1;" d="M 233.683594 162.128906 C 234.035156 162.160156 234.382812 162.222656 234.726562 162.316406 C 235.070312 162.410156 235.398438 162.535156 235.71875 162.6875 C 236.035156 162.84375 236.335938 163.027344 236.621094 163.238281 C 236.90625 163.449219 237.167969 163.6875 237.410156 163.945312 C 237.648438 164.207031 237.863281 164.484375 238.054688 164.785156 C 238.242188 165.085938 238.402344 165.402344 238.53125 165.730469 C 238.660156 166.0625 238.757812 166.398438 238.824219 166.746094 C 238.890625 167.09375 238.925781 167.445312 238.925781 167.800781 C 238.9375 168.050781 238.917969 168.296875 238.875 168.539062 C 238.828125 168.785156 238.753906 169.019531 238.652344 169.246094 C 238.550781 169.476562 238.425781 169.6875 238.277344 169.886719 C 238.128906 170.085938 237.957031 170.265625 237.765625 170.421875 C 237.574219 170.582031 237.367188 170.71875 237.144531 170.828125 C 236.925781 170.941406 236.691406 171.027344 236.449219 171.085938 C 236.207031 171.144531 235.960938 171.171875 235.714844 171.175781 C 235.464844 171.175781 235.21875 171.148438 234.976562 171.09375 C 234.316406 171.085938 233.679688 170.960938 233.0625 170.726562 C 232.449219 170.488281 231.890625 170.148438 231.398438 169.710938 C 230.902344 169.273438 230.5 168.765625 230.1875 168.183594 C 229.875 167.601562 229.675781 166.984375 229.585938 166.332031 C 229.578125 166.058594 229.597656 165.785156 229.644531 165.515625 C 229.691406 165.246094 229.765625 164.984375 229.863281 164.730469 C 229.964844 164.476562 230.085938 164.234375 230.234375 164.003906 C 230.382812 163.773438 230.554688 163.558594 230.746094 163.363281 C 230.9375 163.167969 231.144531 162.992188 231.371094 162.839844 C 231.597656 162.6875 231.835938 162.554688 232.089844 162.449219 C 232.339844 162.34375 232.601562 162.265625 232.871094 162.210938 C 233.140625 162.15625 233.410156 162.128906 233.683594 162.128906 Z M 233.683594 162.128906 "/>
<path style=" stroke:none;fill-rule:nonzero;fill:rgb(38.42926%,37.649536%,70.979309%);fill-opacity:1;" d="M 161.988281 204.382812 C 165.351562 204.367188 168.699219 207.761719 168.210938 210.167969 C 167.976562 210.929688 167.578125 211.59375 167.023438 212.164062 C 166.46875 212.734375 165.816406 213.152344 165.0625 213.410156 C 164.714844 213.472656 164.363281 213.488281 164.007812 213.46875 C 163.652344 213.445312 163.308594 213.382812 162.96875 213.277344 C 162.628906 213.171875 162.304688 213.03125 162 212.851562 C 161.695312 212.675781 161.414062 212.460938 161.15625 212.21875 C 160.898438 211.972656 160.675781 211.703125 160.480469 211.402344 C 160.289062 211.105469 160.132812 210.789062 160.011719 210.457031 C 159.894531 210.125 159.816406 209.78125 159.777344 209.429688 C 159.738281 209.074219 159.738281 208.722656 159.78125 208.371094 C 160.277344 206.90625 161.011719 205.578125 161.988281 204.382812 Z M 161.988281 204.382812 "/>
<path style=" stroke:none;fill-rule:nonzero;fill:rgb(38.42926%,37.649536%,70.979309%);fill-opacity:1;" d="M 40.765625 101.8125 C 40.429688 101.847656 40.089844 101.847656 39.753906 101.8125 C 39.414062 101.78125 39.082031 101.714844 38.757812 101.613281 C 38.433594 101.511719 38.125 101.382812 37.824219 101.21875 C 37.527344 101.054688 37.25 100.863281 36.992188 100.644531 C 36.730469 100.425781 36.496094 100.179688 36.285156 99.914062 C 36.078125 99.648438 35.894531 99.363281 35.742188 99.058594 C 35.589844 98.753906 35.472656 98.441406 35.382812 98.113281 C 35.292969 97.785156 35.238281 97.449219 35.21875 97.113281 C 35.21875 96.839844 35.246094 96.574219 35.304688 96.308594 C 35.359375 96.042969 35.445312 95.785156 35.554688 95.535156 C 35.664062 95.289062 35.800781 95.054688 35.960938 94.835938 C 36.121094 94.617188 36.300781 94.414062 36.503906 94.234375 C 36.703125 94.050781 36.921875 93.894531 37.15625 93.757812 C 37.390625 93.621094 37.640625 93.511719 37.898438 93.425781 C 38.15625 93.34375 38.417969 93.285156 38.6875 93.257812 C 38.960938 93.226562 39.230469 93.226562 39.5 93.253906 C 39.773438 93.257812 40.042969 93.285156 40.3125 93.34375 C 40.582031 93.398438 40.839844 93.480469 41.089844 93.589844 C 41.34375 93.699219 41.582031 93.832031 41.804688 93.988281 C 42.027344 94.144531 42.234375 94.320312 42.425781 94.519531 C 42.613281 94.71875 42.78125 94.933594 42.925781 95.164062 C 43.070312 95.394531 43.191406 95.640625 43.289062 95.894531 C 43.382812 96.152344 43.453125 96.414062 43.496094 96.6875 C 43.539062 96.957031 43.554688 97.226562 43.542969 97.5 C 43.398438 99.191406 41.523438 100.726562 40.765625 101.8125 Z M 40.765625 101.8125 "/>
</g>
</svg>
