<?xml version="1.0" encoding="UTF-8"?>
<svg xmlns="http://www.w3.org/2000/svg" xmlns:xlink="http://www.w3.org/1999/xlink" width="277.5pt" height="323.999988pt" viewBox="0 0 277.5 323.999988" version="1.2">
<defs>
<clipPath id="clip1">
  <path d="M 148.40625 151 L 162 151 L 162 165 L 148.40625 165 Z M 148.40625 151 "/>
</clipPath>
<clipPath id="clip2">
  <path d="M 223 0.292969 L 236 0.292969 L 236 13 L 223 13 Z M 223 0.292969 "/>
</clipPath>
<clipPath id="clip3">
  <path d="M 264 78 L 277 78 L 277 90 L 264 90 Z M 264 78 "/>
</clipPath>
<clipPath id="clip4">
  <path d="M 148.40625 188 L 162 188 L 162 200 L 148.40625 200 Z M 148.40625 188 "/>
</clipPath>
<clipPath id="clip5">
  <path d="M 184 307 L 196 307 L 196 321.292969 L 184 321.292969 Z M 184 307 "/>
</clipPath>
<clipPath id="clip6">
  <path d="M 2.058594 151 L 16 151 L 16 165 L 2.058594 165 Z M 2.058594 151 "/>
</clipPath>
<clipPath id="clip7">
  <path d="M 76 0.292969 L 90 0.292969 L 90 13 L 76 13 Z M 76 0.292969 "/>
</clipPath>
<clipPath id="clip8">
  <path d="M 2.058594 271 L 15 271 L 15 285 L 2.058594 285 Z M 2.058594 271 "/>
</clipPath>
<clipPath id="clip9">
  <path d="M 2.058594 188 L 15 188 L 15 200 L 2.058594 200 Z M 2.058594 188 "/>
</clipPath>
<clipPath id="clip10">
  <path d="M 2.058594 233 L 15 233 L 15 246 L 2.058594 246 Z M 2.058594 233 "/>
</clipPath>
<clipPath id="clip11">
  <path d="M 38 307 L 50 307 L 50 321.292969 L 38 321.292969 Z M 38 307 "/>
</clipPath>
</defs>
<g id="surface1">
<path style=" stroke:none;fill-rule:nonzero;fill:rgb(38.42926%,37.649536%,70.979309%);fill-opacity:1;" d="M 222.667969 276.25 C 222.851562 274.59375 222.914062 273.058594 223.21875 271.523438 C 223.527344 270.113281 224.324219 269.007812 225.734375 268.332031 C 227.085938 267.71875 228.375 267.660156 229.785156 268.332031 C 231.628906 269.253906 233.160156 270.605469 234.449219 272.136719 C 235.800781 273.734375 236.230469 275.757812 235.863281 277.84375 C 235.679688 279.011719 232.300781 283.613281 231.257812 284.105469 C 230.828125 284.289062 230.398438 284.472656 229.96875 284.535156 C 228.867188 284.65625 227.820312 284.65625 226.71875 284.71875 C 224.691406 284.777344 223.957031 284.226562 223.527344 282.140625 C 223.097656 280.238281 222.914062 278.214844 222.667969 276.25 Z M 222.667969 276.25 "/>
<path style=" stroke:none;fill-rule:nonzero;fill:rgb(38.42926%,37.649536%,70.979309%);fill-opacity:1;" d="M 183.632812 276.066406 C 183.9375 274.53125 184.125 273.242188 184.429688 271.953125 C 184.796875 270.359375 185.902344 269.375 187.316406 268.640625 C 187.929688 268.332031 188.601562 268.273438 189.277344 268.457031 C 190.75 268.824219 192.101562 269.621094 193.207031 270.664062 C 194.066406 271.464844 194.617188 272.507812 194.800781 273.734375 C 195.171875 275.882812 195.171875 278.089844 196.214844 280.054688 C 197.011719 281.527344 196.152344 282.632812 195.355469 283.734375 C 195.171875 283.980469 194.863281 284.289062 194.558594 284.289062 C 192.898438 284.472656 191.179688 284.902344 189.585938 284.71875 C 187.253906 284.472656 185.535156 283 184.738281 280.789062 C 184.125 279.257812 183.9375 277.539062 183.632812 276.066406 Z M 183.632812 276.066406 "/>
<path style=" stroke:none;fill-rule:nonzero;fill:rgb(38.42926%,37.649536%,70.979309%);fill-opacity:1;" d="M 228.988281 165.792969 C 228.558594 165.609375 228.128906 165.425781 227.761719 165.179688 C 227.515625 164.996094 227.332031 164.75 227.148438 164.441406 C 225.796875 161.804688 224.507812 159.105469 223.769531 156.21875 C 223.28125 154.195312 223.957031 152.539062 225.675781 151.308594 C 226.902344 150.453125 228.25 150.207031 229.664062 150.757812 C 231.628906 151.496094 233.101562 152.84375 234.265625 154.5625 C 234.511719 154.929688 234.636719 155.421875 234.695312 155.851562 C 234.878906 157.078125 235.003906 158.304688 235.066406 159.535156 C 235.066406 160.453125 235.003906 161.4375 234.820312 162.292969 C 234.695312 162.847656 234.265625 163.460938 233.835938 163.828125 C 232.363281 165.054688 230.707031 165.484375 228.988281 165.792969 Z M 228.988281 165.792969 "/>
<path style=" stroke:none;fill-rule:nonzero;fill:rgb(38.42926%,37.649536%,70.979309%);fill-opacity:1;" d="M 222.238281 44.660156 C 222.421875 44.042969 222.421875 43.308594 222.789062 42.878906 C 223.585938 41.957031 224.507812 41.097656 225.488281 40.363281 C 225.796875 40.117188 226.347656 39.933594 226.777344 39.996094 C 227.820312 40.054688 228.988281 40.117188 229.96875 40.546875 C 231.996094 41.34375 233.835938 42.570312 235.492188 43.984375 C 236.414062 44.78125 236.660156 45.761719 236.292969 46.929688 C 236.046875 47.664062 235.738281 48.402344 235.554688 49.136719 C 235.308594 49.9375 234.820312 50.488281 234.207031 50.917969 C 233.46875 51.46875 232.671875 51.960938 231.871094 52.453125 C 230.03125 53.617188 228.804688 53.617188 227.207031 52.328125 C 225.367188 50.855469 223.894531 49.078125 222.851562 46.929688 C 222.484375 46.191406 222.421875 45.394531 222.238281 44.660156 Z M 222.238281 44.660156 "/>
<path style=" stroke:none;fill-rule:nonzero;fill:rgb(38.42926%,37.649536%,70.979309%);fill-opacity:1;" d="M 228.191406 77.058594 C 231.503906 77.488281 233.960938 79.207031 235.554688 82.089844 C 235.738281 82.460938 235.738281 83.011719 235.617188 83.441406 C 235.371094 84.175781 234.757812 84.851562 234.757812 85.589844 C 234.695312 87.796875 233.40625 88.964844 231.566406 89.761719 C 231.136719 89.945312 230.707031 90.191406 230.339844 90.4375 C 228.742188 91.480469 227.453125 90.804688 226.65625 89.761719 C 225 87.675781 223.769531 85.34375 223.097656 82.765625 C 222.667969 81.109375 223.15625 79.699219 224.386719 78.53125 C 225.429688 77.550781 226.65625 76.875 228.191406 77.058594 Z M 228.191406 77.058594 "/>
<g clip-path="url(#clip1)" clip-rule="nonzero">
<path style=" stroke:none;fill-rule:nonzero;fill:rgb(38.42926%,37.649536%,70.979309%);fill-opacity:1;" d="M 148.527344 156.773438 C 148.648438 154.992188 149.261719 153.457031 150.550781 152.292969 C 150.980469 151.863281 151.71875 151.554688 152.390625 151.496094 C 154.664062 151.25 156.75 151.738281 158.46875 153.398438 C 159.328125 154.195312 160.125 155.054688 160.863281 156.035156 C 161.230469 156.527344 161.535156 157.261719 161.535156 157.875 C 161.476562 160.390625 160.433594 162.480469 158.101562 163.644531 C 156.871094 164.195312 155.582031 164.566406 154.292969 164.871094 C 152.761719 165.242188 151.226562 164.382812 150.429688 163.09375 C 149.078125 161.128906 148.832031 158.917969 148.527344 156.773438 Z M 148.527344 156.773438 "/>
</g>
<path style=" stroke:none;fill-rule:nonzero;fill:rgb(38.42926%,37.649536%,70.979309%);fill-opacity:1;" d="M 223.21875 119.953125 C 223.21875 118.296875 223.648438 117.191406 224.875 116.457031 C 225.304688 116.210938 225.675781 115.964844 226.105469 115.71875 C 226.839844 115.351562 227.578125 115.226562 228.375 115.410156 C 229.601562 115.71875 230.769531 116.148438 231.6875 117.070312 C 233.160156 118.480469 234.390625 120.074219 235.25 121.976562 C 235.433594 122.347656 235.492188 122.960938 235.371094 123.328125 C 234.941406 124.679688 234.390625 125.964844 232.976562 126.640625 C 231.996094 127.132812 231.074219 127.683594 230.09375 128.175781 C 229.355469 128.542969 227.945312 128.296875 227.453125 127.746094 C 225.675781 125.90625 224.386719 123.820312 223.527344 121.425781 C 223.28125 120.875 223.21875 120.261719 223.21875 119.953125 Z M 223.21875 119.953125 "/>
<g clip-path="url(#clip2)" clip-rule="nonzero">
<path style=" stroke:none;fill-rule:nonzero;fill:rgb(38.42926%,37.649536%,70.979309%);fill-opacity:1;" d="M 235.433594 7.347656 C 235.492188 8.574219 235.25 9.3125 234.636719 9.863281 C 233.589844 10.785156 232.488281 11.644531 231.320312 12.378906 C 230.523438 12.933594 229.601562 12.992188 228.621094 12.75 C 227.085938 12.378906 225.734375 11.707031 225 10.109375 C 224.507812 8.945312 223.894531 7.902344 223.402344 6.734375 C 222.605469 4.769531 223.402344 2.625 225.183594 1.519531 C 225.550781 1.273438 225.980469 1.089844 226.410156 0.84375 C 227.269531 0.292969 228.191406 0.292969 229.050781 0.660156 C 230.644531 1.335938 232.058594 2.195312 233.40625 3.296875 C 234.941406 4.464844 235.554688 5.9375 235.433594 7.347656 Z M 235.433594 7.347656 "/>
</g>
<path style=" stroke:none;fill-rule:nonzero;fill:rgb(38.42926%,37.649536%,70.979309%);fill-opacity:1;" d="M 223.097656 238.695312 C 222.914062 234.277344 226.964844 232.679688 229.355469 233.90625 C 231.933594 235.257812 233.835938 237.28125 235.25 239.738281 C 235.738281 240.535156 235.554688 241.640625 234.941406 242.375 C 233.777344 243.726562 232.425781 244.707031 230.585938 244.890625 C 229.355469 245.074219 228.128906 245.320312 226.902344 245.503906 C 226.042969 245.628906 225 244.953125 224.628906 244.15625 C 223.710938 242.191406 223.21875 240.105469 223.097656 238.695312 Z M 223.097656 238.695312 "/>
<path style=" stroke:none;fill-rule:nonzero;fill:rgb(38.42926%,37.649536%,70.979309%);fill-opacity:1;" d="M 153.925781 284.71875 C 152.390625 284.839844 151.347656 284.226562 150.671875 282.875 C 149.445312 280.605469 149.140625 278.089844 149.140625 275.574219 C 149.140625 273.980469 150 272.691406 151.164062 271.648438 C 151.59375 271.21875 152.390625 271.035156 153.007812 271.035156 C 156.6875 270.972656 159.511719 272.875 160.800781 276.25 C 161.046875 276.863281 161.046875 277.597656 160.921875 278.214844 C 160.679688 279.195312 160.308594 280.054688 160.25 281.097656 C 160.125 283.121094 159.265625 283.796875 156.996094 284.351562 C 155.953125 284.59375 154.910156 284.65625 153.925781 284.71875 Z M 153.925781 284.71875 "/>
<path style=" stroke:none;fill-rule:nonzero;fill:rgb(38.42926%,37.649536%,70.979309%);fill-opacity:1;" d="M 264.832031 45.515625 C 264.832031 43.0625 266.671875 41.097656 269.25 41.039062 C 272.074219 40.976562 274.34375 42.203125 276.0625 44.414062 C 276.675781 45.210938 276.617188 46.132812 276.554688 47.113281 C 276.429688 48.402344 276 49.507812 274.773438 50.179688 C 273.792969 50.671875 272.933594 51.285156 271.949219 51.777344 C 270.171875 52.636719 268.085938 52.144531 266.917969 50.609375 C 265.445312 48.832031 264.832031 47.175781 264.832031 45.515625 Z M 264.832031 45.515625 "/>
<path style=" stroke:none;fill-rule:nonzero;fill:rgb(38.42926%,37.649536%,70.979309%);fill-opacity:1;" d="M 189.09375 39.808594 C 189.832031 39.933594 190.507812 39.996094 191.121094 40.179688 C 191.609375 40.300781 192.101562 40.546875 192.46875 40.855469 C 194.128906 42.386719 195.171875 44.414062 195.539062 46.558594 C 196.214844 50.488281 193.453125 53.433594 189.402344 53.371094 C 188.726562 53.371094 188.050781 53.003906 187.683594 52.453125 C 186.269531 50.121094 185.226562 47.664062 184.613281 45.027344 C 184.246094 43.429688 185.042969 42.082031 185.839844 40.792969 C 186.027344 40.546875 186.394531 40.363281 186.699219 40.300781 C 187.5 40.117188 188.296875 39.996094 189.09375 39.808594 Z M 189.09375 39.808594 "/>
<g clip-path="url(#clip3)" clip-rule="nonzero">
<path style=" stroke:none;fill-rule:nonzero;fill:rgb(38.42926%,37.649536%,70.979309%);fill-opacity:1;" d="M 268.699219 78.65625 C 270.234375 78.59375 271.707031 79.207031 272.933594 80.1875 C 274.222656 81.230469 275.449219 82.460938 276.675781 83.625 C 277.289062 84.175781 277.105469 86.019531 276.429688 86.632812 C 274.773438 88.105469 272.871094 89.085938 270.664062 89.332031 C 268.820312 89.578125 267.285156 88.902344 266.183594 87.367188 C 265.566406 86.507812 265.136719 85.464844 264.707031 84.484375 C 263.972656 82.703125 264.523438 81.171875 265.753906 79.820312 C 266.488281 79.023438 267.46875 78.59375 268.699219 78.65625 Z M 268.699219 78.65625 "/>
</g>
<path style=" stroke:none;fill-rule:nonzero;fill:rgb(38.42926%,37.649536%,70.979309%);fill-opacity:1;" d="M 228.925781 199.851562 C 227.761719 199.789062 227.085938 199.480469 226.472656 198.929688 C 225 197.457031 224.078125 195.675781 223.648438 193.652344 C 223.464844 192.914062 223.585938 192.117188 223.710938 191.320312 C 223.832031 190.523438 224.324219 189.910156 225 189.417969 C 226.71875 188.253906 228.496094 188.128906 230.277344 189.234375 C 231.996094 190.339844 233.40625 191.8125 234.636719 193.40625 C 235.433594 194.511719 235.003906 197.089844 233.777344 198.132812 C 233.222656 198.621094 232.488281 199.113281 231.8125 199.296875 C 230.769531 199.667969 229.664062 199.726562 228.925781 199.851562 Z M 228.925781 199.851562 "/>
<g clip-path="url(#clip4)" clip-rule="nonzero">
<path style=" stroke:none;fill-rule:nonzero;fill:rgb(38.42926%,37.649536%,70.979309%);fill-opacity:1;" d="M 149.015625 194.449219 C 148.832031 192.609375 149.8125 191.320312 150.796875 189.910156 C 151.65625 188.683594 152.820312 188.253906 154.292969 188.375 C 156.199219 188.496094 157.855469 189.171875 159.449219 190.15625 C 160.679688 190.953125 161.230469 192.117188 160.921875 193.589844 C 160.800781 194.265625 160.433594 194.878906 160.433594 195.492188 C 160.492188 197.640625 159.019531 198.378906 157.425781 198.992188 C 156.320312 199.421875 155.214844 199.667969 154.050781 199.910156 C 152.578125 200.21875 151.410156 199.667969 150.488281 198.5625 C 149.570312 197.394531 148.957031 196.046875 149.015625 194.449219 Z M 149.015625 194.449219 "/>
</g>
<path style=" stroke:none;fill-rule:nonzero;fill:rgb(38.42926%,37.649536%,70.979309%);fill-opacity:1;" d="M 265.324219 120.136719 C 265.199219 117.683594 267.53125 115.71875 270.046875 116.210938 C 270.785156 116.332031 271.519531 116.640625 272.257812 116.945312 C 272.933594 117.253906 273.609375 117.742188 274.285156 118.113281 C 275.878906 119.09375 276.371094 120.199219 276 122.039062 C 275.878906 122.652344 275.695312 123.265625 275.511719 123.820312 C 275.203125 124.738281 274.652344 125.476562 273.792969 125.964844 C 272.75 126.640625 271.644531 127.253906 270.417969 127.441406 C 268.882812 127.683594 267.59375 127.070312 266.855469 125.78125 C 265.753906 124.125 265.261719 122.164062 265.324219 120.136719 Z M 265.324219 120.136719 "/>
<path style=" stroke:none;fill-rule:nonzero;fill:rgb(38.42926%,37.649536%,70.979309%);fill-opacity:1;" d="M 149.199219 239.0625 C 149.140625 237.160156 150.121094 235.625 151.53125 234.398438 C 151.960938 234.03125 152.761719 233.847656 153.375 233.785156 C 155.828125 233.722656 157.976562 234.582031 159.695312 236.300781 C 160.554688 237.160156 161.167969 238.140625 160.679688 239.429688 C 160.617188 239.613281 160.554688 239.738281 160.554688 239.921875 C 160.738281 242.867188 158.898438 243.972656 156.441406 244.648438 C 155.152344 245.015625 153.863281 245.320312 152.515625 245.199219 C 151.777344 245.136719 151.226562 244.832031 150.859375 244.277344 C 149.753906 242.746094 149.140625 241.085938 149.199219 239.0625 Z M 149.199219 239.0625 "/>
<path style=" stroke:none;fill-rule:nonzero;fill:rgb(38.42926%,37.649536%,70.979309%);fill-opacity:1;" d="M 264.707031 201.875 C 264.585938 199.421875 266.425781 197.273438 268.023438 196.71875 C 268.574219 196.535156 269.25 196.535156 269.863281 196.660156 C 272.195312 197.148438 274.222656 198.191406 275.941406 199.851562 C 276.859375 200.769531 276.984375 202.304688 276.1875 203.226562 C 275.449219 204.023438 274.710938 204.882812 273.667969 205.25 C 272.195312 205.742188 270.722656 206.230469 269.25 206.539062 C 267.53125 206.90625 265.8125 205.800781 265.261719 204.085938 C 264.894531 203.226562 264.769531 202.304688 264.707031 201.875 Z M 264.707031 201.875 "/>
<path style=" stroke:none;fill-rule:nonzero;fill:rgb(38.42926%,37.649536%,70.979309%);fill-opacity:1;" d="M 153.25 115.902344 C 154.355469 116.148438 155.398438 116.210938 156.320312 116.578125 C 157.054688 116.882812 157.855469 117.375 158.34375 117.988281 C 159.144531 119.03125 159.757812 120.261719 160.433594 121.425781 C 160.617188 121.671875 160.679688 122.101562 160.617188 122.40625 C 160.1875 123.820312 160.003906 125.351562 158.53125 126.273438 C 157.363281 127.011719 156.199219 127.625 154.847656 127.867188 C 153.191406 128.175781 151.777344 127.5625 150.980469 126.210938 C 150 124.554688 149.507812 122.777344 149.382812 120.933594 C 149.261719 119.402344 149.875 117.929688 151.042969 116.882812 C 151.59375 116.269531 152.515625 116.148438 153.25 115.902344 Z M 153.25 115.902344 "/>
<path style=" stroke:none;fill-rule:nonzero;fill:rgb(38.42926%,37.649536%,70.979309%);fill-opacity:1;" d="M 274.710938 243.296875 C 273.117188 244.402344 271.460938 244.890625 269.742188 245.015625 C 268.144531 245.136719 266.671875 244.15625 266.183594 242.621094 C 265.507812 240.65625 265.507812 238.632812 266.242188 236.730469 C 266.917969 234.828125 268.699219 233.96875 270.722656 234.277344 C 272.871094 234.644531 274.40625 235.75 275.328125 237.773438 C 275.816406 238.816406 276 239.796875 275.570312 240.902344 C 275.140625 241.640625 274.898438 242.558594 274.710938 243.296875 Z M 274.710938 243.296875 "/>
<path style=" stroke:none;fill-rule:nonzero;fill:rgb(38.42926%,37.649536%,70.979309%);fill-opacity:1;" d="M 160.125 84.484375 C 160.125 84.546875 160.125 85.035156 160.125 85.527344 C 160.0625 86.449219 159.511719 87.0625 158.898438 87.613281 C 157.484375 88.839844 155.707031 89.332031 153.925781 89.761719 C 153.496094 89.882812 152.945312 89.578125 152.578125 89.332031 C 151.101562 88.351562 150.550781 86.816406 150 85.160156 C 149.261719 82.828125 150.304688 80.984375 151.472656 79.144531 C 152.390625 78.839844 153.3125 78.285156 154.234375 78.226562 C 155.214844 78.164062 156.199219 78.410156 157.179688 78.65625 C 159.265625 79.082031 160.433594 80.800781 160.308594 83.074219 C 160.25 83.378906 160.1875 83.746094 160.125 84.484375 Z M 160.125 84.484375 "/>
<path style=" stroke:none;fill-rule:nonzero;fill:rgb(38.42926%,37.649536%,70.979309%);fill-opacity:1;" d="M 270.96875 153.152344 C 271.765625 153.335938 272.996094 153.703125 274.160156 154.011719 C 275.265625 154.316406 275.570312 155.175781 275.632812 156.160156 C 275.695312 156.464844 275.695312 156.773438 275.695312 157.078125 C 275.511719 160.882812 274.898438 162.109375 270.046875 163.152344 C 268.882812 163.398438 267.898438 162.910156 267.164062 161.988281 C 265.9375 160.453125 265.628906 158.613281 265.628906 156.710938 C 265.628906 155.300781 267.46875 153.582031 269.066406 153.335938 C 269.558594 153.210938 270.046875 153.210938 270.96875 153.152344 Z M 270.96875 153.152344 "/>
<path style=" stroke:none;fill-rule:nonzero;fill:rgb(38.42926%,37.649536%,70.979309%);fill-opacity:1;" d="M 184.859375 192.117188 C 184.980469 191.074219 185.105469 190.03125 185.289062 189.109375 C 185.78125 187.023438 187.746094 185.734375 189.832031 186.105469 C 190.8125 186.289062 191.796875 186.59375 192.59375 187.148438 C 195.539062 188.988281 196.03125 192.671875 193.757812 195.371094 C 193.453125 195.738281 192.960938 195.984375 192.53125 196.230469 C 191.179688 197.089844 189.707031 197.148438 188.175781 197.210938 C 186.640625 197.273438 185.535156 196.414062 185.226562 195.0625 C 185.105469 194.082031 184.980469 193.039062 184.859375 192.117188 Z M 184.859375 192.117188 "/>
<path style=" stroke:none;fill-rule:nonzero;fill:rgb(38.42926%,37.649536%,70.979309%);fill-opacity:1;" d="M 184.492188 120.6875 C 184.675781 120.199219 184.921875 119.15625 185.351562 118.296875 C 185.902344 117.191406 186.945312 116.578125 188.234375 116.515625 C 191.425781 116.332031 193.636719 117.867188 195.230469 120.503906 C 195.417969 120.8125 195.601562 121.179688 195.539062 121.425781 C 195.230469 122.53125 194.800781 123.636719 194.371094 124.679688 C 194.25 124.921875 193.882812 125.167969 193.636719 125.351562 C 192.347656 126.152344 190.996094 126.824219 189.460938 127.070312 C 187.5 127.441406 186.332031 126.824219 185.410156 124.984375 C 184.738281 123.574219 184.492188 122.589844 184.492188 120.6875 Z M 184.492188 120.6875 "/>
<path style=" stroke:none;fill-rule:nonzero;fill:rgb(38.42926%,37.649536%,70.979309%);fill-opacity:1;" d="M 195.539062 239.492188 C 195.476562 240.167969 195.476562 240.84375 195.230469 241.457031 C 194.988281 242.007812 194.558594 242.746094 194.066406 242.988281 C 192.101562 243.910156 189.953125 244.460938 187.746094 244.277344 C 186.640625 244.21875 185.902344 243.601562 185.351562 242.683594 C 183.878906 240.167969 184.550781 237.28125 186.945312 235.625 C 187.191406 235.441406 187.5 235.257812 187.804688 235.136719 C 189.769531 234.707031 191.734375 234.519531 193.574219 235.75 C 194.925781 236.609375 195.660156 237.773438 195.539062 239.492188 Z M 195.539062 239.492188 "/>
<path style=" stroke:none;fill-rule:nonzero;fill:rgb(38.42926%,37.649536%,70.979309%);fill-opacity:1;" d="M 154.171875 41.34375 C 156.382812 41.28125 158.101562 42.203125 159.511719 43.800781 C 160.679688 45.148438 160.679688 47.542969 159.449219 48.890625 C 158.039062 50.425781 156.199219 51.285156 154.234375 51.839844 C 153.375 52.082031 152.515625 51.777344 151.902344 51.164062 C 149.324219 48.523438 149.015625 45.640625 150.980469 42.449219 C 151.226562 42.082031 151.777344 41.835938 152.207031 41.710938 C 152.820312 41.46875 153.496094 41.40625 154.171875 41.34375 Z M 154.171875 41.34375 "/>
<path style=" stroke:none;fill-rule:nonzero;fill:rgb(38.42926%,37.649536%,70.979309%);fill-opacity:1;" d="M 222.238281 312.332031 C 222.421875 311.71875 222.421875 310.980469 222.789062 310.550781 C 223.585938 309.632812 224.507812 308.773438 225.488281 308.035156 C 225.796875 307.789062 226.347656 307.605469 226.777344 307.667969 C 227.820312 307.730469 228.988281 307.792969 229.96875 308.21875 C 231.996094 309.019531 233.835938 310.246094 235.492188 311.65625 C 236.414062 312.453125 236.660156 313.4375 236.292969 314.601562 C 236.046875 315.339844 235.738281 316.074219 235.554688 316.8125 C 235.308594 317.609375 234.820312 318.160156 234.207031 318.589844 C 233.46875 319.144531 232.671875 319.632812 231.871094 320.125 C 230.03125 321.292969 228.804688 321.292969 227.207031 320.003906 C 225.367188 318.53125 223.894531 316.75 222.851562 314.601562 C 222.484375 313.867188 222.421875 313.070312 222.238281 312.332031 Z M 222.238281 312.332031 "/>
<path style=" stroke:none;fill-rule:nonzero;fill:rgb(38.42926%,37.649536%,70.979309%);fill-opacity:1;" d="M 264.832031 313.191406 C 264.832031 310.738281 266.671875 308.773438 269.25 308.710938 C 272.074219 308.648438 274.34375 309.878906 276.0625 312.085938 C 276.675781 312.882812 276.617188 313.804688 276.554688 314.785156 C 276.429688 316.074219 276 317.179688 274.773438 317.855469 C 273.792969 318.347656 272.933594 318.960938 271.949219 319.449219 C 270.171875 320.308594 268.085938 319.820312 266.917969 318.285156 C 265.445312 316.503906 264.832031 314.847656 264.832031 313.191406 Z M 264.832031 313.191406 "/>
<g clip-path="url(#clip5)" clip-rule="nonzero">
<path style=" stroke:none;fill-rule:nonzero;fill:rgb(38.42926%,37.649536%,70.979309%);fill-opacity:1;" d="M 189.09375 307.484375 C 189.832031 307.605469 190.507812 307.667969 191.121094 307.851562 C 191.609375 307.976562 192.101562 308.21875 192.46875 308.527344 C 194.128906 310.0625 195.171875 312.085938 195.539062 314.234375 C 196.214844 318.160156 193.453125 321.105469 189.402344 321.046875 C 188.726562 321.046875 188.050781 320.675781 187.683594 320.125 C 186.269531 317.792969 185.226562 315.339844 184.613281 312.699219 C 184.246094 311.105469 185.042969 309.753906 185.839844 308.464844 C 186.027344 308.21875 186.394531 308.035156 186.699219 307.976562 C 187.5 307.792969 188.296875 307.667969 189.09375 307.484375 Z M 189.09375 307.484375 "/>
</g>
<path style=" stroke:none;fill-rule:nonzero;fill:rgb(38.42926%,37.649536%,70.979309%);fill-opacity:1;" d="M 154.171875 309.019531 C 156.382812 308.957031 158.101562 309.878906 159.511719 311.472656 C 160.679688 312.824219 160.679688 315.214844 159.449219 316.566406 C 158.039062 318.101562 156.199219 318.960938 154.234375 319.511719 C 153.375 319.757812 152.515625 319.449219 151.902344 318.835938 C 149.324219 316.199219 149.015625 313.3125 150.980469 310.121094 C 151.226562 309.753906 151.777344 309.507812 152.207031 309.386719 C 152.820312 309.140625 153.496094 309.140625 154.171875 309.019531 Z M 154.171875 309.019531 "/>
<path style=" stroke:none;fill-rule:nonzero;fill:rgb(38.42926%,37.649536%,70.979309%);fill-opacity:1;" d="M 265.875 281.035156 C 265.875 280.175781 265.875 279.871094 265.875 279.5625 C 265.8125 277.597656 266.796875 276.3125 268.328125 275.328125 C 269.003906 274.898438 269.804688 274.777344 270.539062 274.898438 C 272.933594 275.269531 274.46875 276.742188 275.265625 278.949219 C 275.449219 279.5 275.449219 280.238281 275.203125 280.730469 C 273.792969 283.734375 271.214844 285.085938 267.960938 284.59375 C 267.039062 284.472656 266.183594 283.675781 266.058594 282.753906 C 265.996094 282.078125 265.9375 281.34375 265.875 281.035156 Z M 265.875 281.035156 "/>
<path style=" stroke:none;fill-rule:nonzero;fill:rgb(38.42926%,37.649536%,70.979309%);fill-opacity:1;" d="M 189.402344 79.328125 C 191.488281 79.390625 193.390625 79.757812 194.925781 81.292969 C 195.417969 81.785156 195.722656 82.460938 195.539062 83.132812 C 195.230469 84.605469 194.558594 85.957031 193.207031 86.816406 C 191.796875 87.738281 190.261719 88.351562 188.601562 88.65625 C 187.558594 88.839844 186.640625 88.472656 185.902344 87.738281 C 184.492188 86.261719 184.183594 84.359375 185.042969 82.644531 C 185.410156 81.90625 185.902344 81.230469 186.394531 80.496094 C 186.886719 79.757812 187.683594 79.453125 188.542969 79.390625 C 188.726562 79.328125 189.09375 79.328125 189.402344 79.328125 Z M 189.402344 79.328125 "/>
<path style=" stroke:none;fill-rule:nonzero;fill:rgb(38.42926%,37.649536%,70.979309%);fill-opacity:1;" d="M 189.523438 153.457031 C 190.078125 153.582031 191.121094 153.703125 192.039062 154.070312 C 193.757812 154.683594 194.742188 155.972656 195.046875 157.816406 C 195.292969 159.164062 194.679688 160.636719 193.574219 161.3125 C 191.980469 162.292969 190.261719 162.96875 188.359375 162.96875 C 186.761719 162.96875 185.472656 161.988281 185.105469 160.332031 C 184.550781 158 185.226562 156.035156 186.761719 154.316406 C 187.4375 153.640625 188.234375 153.457031 189.523438 153.457031 Z M 189.523438 153.457031 "/>
<path style=" stroke:none;fill-rule:nonzero;fill:rgb(38.42926%,37.649536%,70.979309%);fill-opacity:1;" d="M 154.785156 1.640625 C 156.320312 1.765625 157.671875 2.378906 158.898438 3.296875 C 159.144531 3.480469 159.390625 3.789062 159.511719 4.097656 C 160.433594 6 159.820312 8.820312 158.101562 9.925781 C 157.117188 10.539062 156.011719 11.03125 154.96875 11.460938 C 154.109375 11.828125 152.882812 11.460938 152.207031 10.722656 C 151.289062 9.742188 150.550781 8.636719 150.242188 7.285156 C 149.8125 5.507812 150.304688 3.972656 151.53125 2.683594 C 152.390625 1.765625 153.558594 1.640625 154.785156 1.640625 Z M 154.785156 1.640625 "/>
<path style=" stroke:none;fill-rule:nonzero;fill:rgb(38.42926%,37.649536%,70.979309%);fill-opacity:1;" d="M 270.722656 10.96875 C 269.742188 10.601562 268.515625 10.234375 267.46875 9.679688 C 266.242188 9.066406 265.691406 6.796875 266.367188 5.507812 C 266.550781 5.078125 266.796875 4.710938 267.101562 4.339844 C 269.25 1.519531 272.808594 1.703125 274.835938 4.710938 C 275.878906 6.304688 275.511719 8.574219 273.914062 9.679688 C 273.425781 10.046875 272.871094 10.355469 272.320312 10.601562 C 271.828125 10.722656 271.335938 10.785156 270.722656 10.96875 Z M 270.722656 10.96875 "/>
<path style=" stroke:none;fill-rule:nonzero;fill:rgb(38.42926%,37.649536%,70.979309%);fill-opacity:1;" d="M 192.039062 5.445312 C 192.039062 5.507812 192.039062 6.183594 191.855469 6.855469 C 191.734375 7.347656 191.550781 7.839844 191.242188 8.207031 C 190.136719 9.496094 188.789062 10.476562 187.253906 11.214844 C 185.65625 11.949219 183.753906 11.152344 183.140625 9.433594 C 182.28125 7.164062 182.835938 5.140625 184.308594 3.359375 C 184.675781 2.867188 185.351562 2.5625 185.964844 2.316406 C 187.070312 1.886719 188.234375 1.886719 189.402344 2.007812 C 191.488281 2.132812 192.101562 2.992188 192.039062 5.445312 Z M 192.039062 5.445312 "/>
<path style=" stroke:none;fill-rule:nonzero;fill:rgb(38.42926%,37.649536%,70.979309%);fill-opacity:1;" d="M 76.316406 276.25 C 76.5 274.59375 76.5625 273.058594 76.871094 271.523438 C 77.175781 270.113281 77.972656 269.007812 79.386719 268.332031 C 80.734375 267.71875 82.023438 267.660156 83.4375 268.332031 C 85.277344 269.253906 86.8125 270.605469 88.101562 272.136719 C 89.453125 273.734375 89.878906 275.757812 89.511719 277.84375 C 89.328125 279.011719 85.953125 283.613281 84.910156 284.105469 C 84.480469 284.289062 84.050781 284.472656 83.621094 284.535156 C 82.515625 284.65625 81.472656 284.65625 80.367188 284.71875 C 78.34375 284.777344 77.605469 284.226562 77.175781 282.140625 C 76.746094 280.238281 76.5625 278.214844 76.316406 276.25 Z M 76.316406 276.25 "/>
<path style=" stroke:none;fill-rule:nonzero;fill:rgb(38.42926%,37.649536%,70.979309%);fill-opacity:1;" d="M 37.28125 276.066406 C 37.589844 274.53125 37.773438 273.242188 38.082031 271.953125 C 38.449219 270.359375 39.554688 269.375 40.964844 268.640625 C 41.578125 268.332031 42.253906 268.273438 42.929688 268.457031 C 44.402344 268.824219 45.753906 269.621094 46.855469 270.664062 C 47.714844 271.464844 48.269531 272.507812 48.453125 273.734375 C 48.820312 275.882812 48.820312 278.089844 49.863281 280.054688 C 50.660156 281.527344 49.804688 282.632812 49.003906 283.734375 C 48.820312 283.980469 48.515625 284.289062 48.207031 284.289062 C 46.550781 284.472656 44.832031 284.902344 43.234375 284.71875 C 40.902344 284.472656 39.183594 283 38.386719 280.789062 C 37.773438 279.257812 37.589844 277.539062 37.28125 276.066406 Z M 37.28125 276.066406 "/>
<path style=" stroke:none;fill-rule:nonzero;fill:rgb(38.42926%,37.649536%,70.979309%);fill-opacity:1;" d="M 82.636719 165.792969 C 82.207031 165.609375 81.78125 165.425781 81.410156 165.179688 C 81.164062 164.996094 80.980469 164.75 80.796875 164.441406 C 79.445312 161.804688 78.15625 159.105469 77.421875 156.21875 C 76.929688 154.195312 77.605469 152.539062 79.324219 151.308594 C 80.550781 150.453125 81.902344 150.207031 83.3125 150.757812 C 85.277344 151.496094 86.75 152.84375 87.917969 154.5625 C 88.164062 154.929688 88.285156 155.421875 88.347656 155.851562 C 88.53125 157.078125 88.652344 158.304688 88.714844 159.535156 C 88.714844 160.453125 88.652344 161.4375 88.46875 162.292969 C 88.347656 162.847656 87.917969 163.460938 87.488281 163.828125 C 86.015625 165.054688 84.355469 165.484375 82.636719 165.792969 Z M 82.636719 165.792969 "/>
<path style=" stroke:none;fill-rule:nonzero;fill:rgb(38.42926%,37.649536%,70.979309%);fill-opacity:1;" d="M 75.886719 44.660156 C 76.070312 44.042969 76.070312 43.308594 76.441406 42.878906 C 77.238281 41.957031 78.15625 41.097656 79.140625 40.363281 C 79.445312 40.117188 80 39.933594 80.429688 39.996094 C 81.472656 40.054688 82.636719 40.117188 83.621094 40.546875 C 85.644531 41.34375 87.488281 42.570312 89.144531 43.984375 C 90.066406 44.78125 90.308594 45.761719 89.941406 46.929688 C 89.695312 47.664062 89.390625 48.402344 89.207031 49.136719 C 88.960938 49.9375 88.46875 50.488281 87.855469 50.917969 C 87.117188 51.46875 86.320312 51.960938 85.523438 52.453125 C 83.683594 53.617188 82.453125 53.617188 80.859375 52.328125 C 79.015625 50.855469 77.542969 49.078125 76.5 46.929688 C 76.132812 46.191406 76.070312 45.394531 75.886719 44.660156 Z M 75.886719 44.660156 "/>
<path style=" stroke:none;fill-rule:nonzero;fill:rgb(38.42926%,37.649536%,70.979309%);fill-opacity:1;" d="M 81.839844 77.058594 C 85.15625 77.488281 87.609375 79.207031 89.207031 82.089844 C 89.390625 82.460938 89.390625 83.011719 89.265625 83.441406 C 89.023438 84.175781 88.40625 84.851562 88.40625 85.589844 C 88.347656 87.796875 87.058594 88.964844 85.214844 89.761719 C 84.785156 89.945312 84.355469 90.191406 83.988281 90.4375 C 82.394531 91.480469 81.105469 90.804688 80.304688 89.761719 C 78.648438 87.675781 77.421875 85.34375 76.746094 82.765625 C 76.316406 81.109375 76.808594 79.699219 78.035156 78.53125 C 79.078125 77.550781 80.304688 76.875 81.839844 77.058594 Z M 81.839844 77.058594 "/>
<g clip-path="url(#clip6)" clip-rule="nonzero">
<path style=" stroke:none;fill-rule:nonzero;fill:rgb(38.42926%,37.649536%,70.979309%);fill-opacity:1;" d="M 2.175781 156.773438 C 2.296875 154.992188 2.914062 153.457031 4.199219 152.292969 C 4.628906 151.863281 5.367188 151.554688 6.042969 151.496094 C 8.3125 151.25 10.398438 151.738281 12.117188 153.398438 C 12.976562 154.195312 13.777344 155.054688 14.511719 156.035156 C 14.878906 156.527344 15.1875 157.261719 15.1875 157.875 C 15.125 160.390625 14.082031 162.480469 11.75 163.644531 C 10.523438 164.195312 9.234375 164.566406 7.945312 164.871094 C 6.410156 165.242188 4.875 164.382812 4.078125 163.09375 C 2.726562 161.128906 2.484375 158.917969 2.175781 156.773438 Z M 2.175781 156.773438 "/>
</g>
<path style=" stroke:none;fill-rule:nonzero;fill:rgb(38.42926%,37.649536%,70.979309%);fill-opacity:1;" d="M 76.871094 119.953125 C 76.871094 118.296875 77.300781 117.191406 78.527344 116.457031 C 78.957031 116.210938 79.324219 115.964844 79.753906 115.71875 C 80.492188 115.351562 81.226562 115.226562 82.023438 115.410156 C 83.253906 115.71875 84.417969 116.148438 85.339844 117.070312 C 86.8125 118.480469 88.039062 120.074219 88.898438 121.976562 C 89.082031 122.347656 89.144531 122.960938 89.023438 123.328125 C 88.59375 124.679688 88.039062 125.964844 86.628906 126.640625 C 85.644531 127.132812 84.726562 127.683594 83.742188 128.175781 C 83.007812 128.542969 81.59375 128.296875 81.105469 127.746094 C 79.324219 125.90625 78.035156 123.820312 77.175781 121.425781 C 76.929688 120.875 76.871094 120.261719 76.871094 119.953125 Z M 76.871094 119.953125 "/>
<g clip-path="url(#clip7)" clip-rule="nonzero">
<path style=" stroke:none;fill-rule:nonzero;fill:rgb(38.42926%,37.649536%,70.979309%);fill-opacity:1;" d="M 89.082031 7.347656 C 89.144531 8.574219 88.898438 9.3125 88.285156 9.863281 C 87.242188 10.785156 86.136719 11.644531 84.972656 12.378906 C 84.171875 12.933594 83.253906 12.992188 82.269531 12.75 C 80.734375 12.378906 79.386719 11.707031 78.648438 10.109375 C 78.15625 8.945312 77.542969 7.902344 77.054688 6.734375 C 76.253906 4.769531 77.054688 2.625 78.832031 1.519531 C 79.203125 1.273438 79.632812 1.089844 80.0625 0.84375 C 80.921875 0.292969 81.839844 0.292969 82.699219 0.660156 C 84.296875 1.335938 85.707031 2.195312 87.058594 3.296875 C 88.59375 4.464844 89.207031 5.9375 89.082031 7.347656 Z M 89.082031 7.347656 "/>
</g>
<path style=" stroke:none;fill-rule:nonzero;fill:rgb(38.42926%,37.649536%,70.979309%);fill-opacity:1;" d="M 76.746094 238.695312 C 76.5625 234.277344 80.613281 232.679688 83.007812 233.90625 C 85.585938 235.257812 87.488281 237.28125 88.898438 239.738281 C 89.390625 240.535156 89.207031 241.640625 88.59375 242.375 C 87.425781 243.726562 86.074219 244.707031 84.234375 244.890625 C 83.007812 245.074219 81.78125 245.320312 80.550781 245.503906 C 79.691406 245.628906 78.648438 244.953125 78.28125 244.15625 C 77.359375 242.191406 76.871094 240.105469 76.746094 238.695312 Z M 76.746094 238.695312 "/>
<g clip-path="url(#clip8)" clip-rule="nonzero">
<path style=" stroke:none;fill-rule:nonzero;fill:rgb(38.42926%,37.649536%,70.979309%);fill-opacity:1;" d="M 7.578125 284.71875 C 6.042969 284.839844 5 284.226562 4.324219 282.875 C 3.097656 280.605469 2.789062 278.089844 2.789062 275.574219 C 2.789062 273.980469 3.648438 272.691406 4.816406 271.648438 C 5.246094 271.21875 6.042969 271.035156 6.65625 271.035156 C 10.339844 270.972656 13.160156 272.875 14.449219 276.25 C 14.695312 276.863281 14.695312 277.597656 14.574219 278.214844 C 14.328125 279.195312 13.960938 280.054688 13.898438 281.097656 C 13.777344 283.121094 12.917969 283.796875 10.644531 284.351562 C 9.601562 284.59375 8.558594 284.65625 7.578125 284.71875 Z M 7.578125 284.71875 "/>
</g>
<path style=" stroke:none;fill-rule:nonzero;fill:rgb(38.42926%,37.649536%,70.979309%);fill-opacity:1;" d="M 118.480469 45.515625 C 118.480469 43.0625 120.324219 41.097656 122.902344 41.039062 C 125.722656 40.976562 127.996094 42.203125 129.714844 44.414062 C 130.328125 45.210938 130.265625 46.132812 130.203125 47.113281 C 130.082031 48.402344 129.652344 49.507812 128.425781 50.179688 C 127.441406 50.671875 126.582031 51.285156 125.601562 51.777344 C 123.820312 52.636719 121.734375 52.144531 120.570312 50.609375 C 119.09375 48.832031 118.480469 47.175781 118.480469 45.515625 Z M 118.480469 45.515625 "/>
<path style=" stroke:none;fill-rule:nonzero;fill:rgb(38.42926%,37.649536%,70.979309%);fill-opacity:1;" d="M 42.746094 39.808594 C 43.480469 39.933594 44.15625 39.996094 44.769531 40.179688 C 45.261719 40.300781 45.753906 40.546875 46.121094 40.855469 C 47.777344 42.386719 48.820312 44.414062 49.1875 46.558594 C 49.863281 50.488281 47.101562 53.433594 43.050781 53.371094 C 42.375 53.371094 41.703125 53.003906 41.332031 52.453125 C 39.921875 50.121094 38.878906 47.664062 38.265625 45.027344 C 37.894531 43.429688 38.695312 42.082031 39.492188 40.792969 C 39.675781 40.546875 40.042969 40.363281 40.351562 40.300781 C 41.148438 40.117188 41.945312 39.996094 42.746094 39.808594 Z M 42.746094 39.808594 "/>
<path style=" stroke:none;fill-rule:nonzero;fill:rgb(38.42926%,37.649536%,70.979309%);fill-opacity:1;" d="M 122.347656 78.65625 C 123.882812 78.59375 125.355469 79.207031 126.582031 80.1875 C 127.871094 81.230469 129.097656 82.460938 130.328125 83.625 C 130.941406 84.175781 130.757812 86.019531 130.082031 86.632812 C 128.425781 88.105469 126.523438 89.085938 124.3125 89.332031 C 122.472656 89.578125 120.9375 88.902344 119.832031 87.367188 C 119.21875 86.507812 118.789062 85.464844 118.359375 84.484375 C 117.621094 82.703125 118.175781 81.171875 119.402344 79.820312 C 120.140625 79.023438 121.121094 78.59375 122.347656 78.65625 Z M 122.347656 78.65625 "/>
<path style=" stroke:none;fill-rule:nonzero;fill:rgb(38.42926%,37.649536%,70.979309%);fill-opacity:1;" d="M 82.578125 199.851562 C 81.410156 199.789062 80.734375 199.480469 80.121094 198.929688 C 78.648438 197.457031 77.730469 195.675781 77.300781 193.652344 C 77.113281 192.914062 77.238281 192.117188 77.359375 191.320312 C 77.484375 190.523438 77.972656 189.910156 78.648438 189.417969 C 80.367188 188.253906 82.148438 188.128906 83.925781 189.234375 C 85.644531 190.339844 87.058594 191.8125 88.285156 193.40625 C 89.082031 194.511719 88.652344 197.089844 87.425781 198.132812 C 86.875 198.621094 86.136719 199.113281 85.460938 199.296875 C 84.417969 199.667969 83.3125 199.726562 82.578125 199.851562 Z M 82.578125 199.851562 "/>
<g clip-path="url(#clip9)" clip-rule="nonzero">
<path style=" stroke:none;fill-rule:nonzero;fill:rgb(38.42926%,37.649536%,70.979309%);fill-opacity:1;" d="M 2.667969 194.449219 C 2.484375 192.609375 3.464844 191.320312 4.445312 189.910156 C 5.304688 188.683594 6.472656 188.253906 7.945312 188.375 C 9.847656 188.496094 11.503906 189.171875 13.101562 190.15625 C 14.328125 190.953125 14.878906 192.117188 14.574219 193.589844 C 14.449219 194.265625 14.082031 194.878906 14.082031 195.492188 C 14.144531 197.640625 12.671875 198.378906 11.074219 198.992188 C 9.96875 199.421875 8.867188 199.667969 7.699219 199.910156 C 6.226562 200.21875 5.058594 199.667969 4.140625 198.5625 C 3.21875 197.394531 2.605469 196.046875 2.667969 194.449219 Z M 2.667969 194.449219 "/>
</g>
<path style=" stroke:none;fill-rule:nonzero;fill:rgb(38.42926%,37.649536%,70.979309%);fill-opacity:1;" d="M 118.972656 120.136719 C 118.851562 117.683594 121.183594 115.71875 123.699219 116.210938 C 124.433594 116.332031 125.171875 116.640625 125.90625 116.945312 C 126.582031 117.253906 127.257812 117.742188 127.933594 118.113281 C 129.527344 119.09375 130.019531 120.199219 129.652344 122.039062 C 129.527344 122.652344 129.34375 123.265625 129.160156 123.820312 C 128.855469 124.738281 128.300781 125.476562 127.441406 125.964844 C 126.398438 126.640625 125.292969 127.253906 124.066406 127.441406 C 122.53125 127.683594 121.242188 127.070312 120.507812 125.78125 C 119.402344 124.125 118.910156 122.164062 118.972656 120.136719 Z M 118.972656 120.136719 "/>
<g clip-path="url(#clip10)" clip-rule="nonzero">
<path style=" stroke:none;fill-rule:nonzero;fill:rgb(38.42926%,37.649536%,70.979309%);fill-opacity:1;" d="M 2.851562 239.0625 C 2.789062 237.160156 3.769531 235.625 5.183594 234.398438 C 5.613281 234.03125 6.410156 233.847656 7.023438 233.785156 C 9.480469 233.722656 11.628906 234.582031 13.347656 236.300781 C 14.207031 237.160156 14.820312 238.140625 14.328125 239.429688 C 14.265625 239.613281 14.207031 239.738281 14.207031 239.921875 C 14.390625 242.867188 12.546875 243.972656 10.09375 244.648438 C 8.804688 245.015625 7.515625 245.320312 6.164062 245.199219 C 5.429688 245.136719 4.875 244.832031 4.507812 244.277344 C 3.402344 242.746094 2.789062 241.085938 2.851562 239.0625 Z M 2.851562 239.0625 "/>
</g>
<path style=" stroke:none;fill-rule:nonzero;fill:rgb(38.42926%,37.649536%,70.979309%);fill-opacity:1;" d="M 118.359375 201.875 C 118.234375 199.421875 120.078125 197.273438 121.671875 196.71875 C 122.226562 196.535156 122.902344 196.535156 123.515625 196.660156 C 125.847656 197.148438 127.871094 198.191406 129.589844 199.851562 C 130.511719 200.769531 130.632812 202.304688 129.835938 203.226562 C 129.097656 204.023438 128.363281 204.882812 127.320312 205.25 C 125.847656 205.742188 124.375 206.230469 122.902344 206.539062 C 121.183594 206.90625 119.464844 205.800781 118.910156 204.085938 C 118.542969 203.226562 118.421875 202.304688 118.359375 201.875 Z M 118.359375 201.875 "/>
<path style=" stroke:none;fill-rule:nonzero;fill:rgb(38.42926%,37.649536%,70.979309%);fill-opacity:1;" d="M 6.902344 115.902344 C 8.007812 116.148438 9.050781 116.210938 9.96875 116.578125 C 10.707031 116.882812 11.503906 117.375 11.996094 117.988281 C 12.792969 119.03125 13.40625 120.261719 14.082031 121.425781 C 14.265625 121.671875 14.328125 122.101562 14.265625 122.40625 C 13.835938 123.820312 13.652344 125.351562 12.179688 126.273438 C 11.015625 127.011719 9.847656 127.625 8.496094 127.867188 C 6.839844 128.175781 5.429688 127.5625 4.628906 126.210938 C 3.648438 124.554688 3.15625 122.777344 3.035156 120.933594 C 2.914062 119.402344 3.527344 117.929688 4.691406 116.882812 C 5.246094 116.269531 6.164062 116.148438 6.902344 115.902344 Z M 6.902344 115.902344 "/>
<path style=" stroke:none;fill-rule:nonzero;fill:rgb(38.42926%,37.649536%,70.979309%);fill-opacity:1;" d="M 128.363281 243.296875 C 126.765625 244.402344 125.109375 244.890625 123.390625 245.015625 C 121.796875 245.136719 120.324219 244.15625 119.832031 242.621094 C 119.15625 240.65625 119.15625 238.632812 119.894531 236.730469 C 120.570312 234.828125 122.347656 233.96875 124.375 234.277344 C 126.523438 234.644531 128.054688 235.75 128.976562 237.773438 C 129.46875 238.816406 129.652344 239.796875 129.222656 240.902344 C 128.792969 241.640625 128.546875 242.558594 128.363281 243.296875 Z M 128.363281 243.296875 "/>
<path style=" stroke:none;fill-rule:nonzero;fill:rgb(38.42926%,37.649536%,70.979309%);fill-opacity:1;" d="M 13.777344 84.484375 C 13.777344 84.546875 13.777344 85.035156 13.777344 85.527344 C 13.714844 86.449219 13.160156 87.0625 12.546875 87.613281 C 11.136719 88.839844 9.355469 89.332031 7.578125 89.761719 C 7.148438 89.882812 6.59375 89.578125 6.226562 89.332031 C 4.753906 88.351562 4.199219 86.816406 3.648438 85.160156 C 2.914062 82.828125 3.957031 80.984375 5.121094 79.144531 C 6.042969 78.839844 6.964844 78.285156 7.882812 78.226562 C 8.867188 78.164062 9.847656 78.410156 10.828125 78.65625 C 12.917969 79.082031 14.082031 80.800781 13.960938 83.074219 C 13.898438 83.378906 13.835938 83.746094 13.777344 84.484375 Z M 13.777344 84.484375 "/>
<path style=" stroke:none;fill-rule:nonzero;fill:rgb(38.42926%,37.649536%,70.979309%);fill-opacity:1;" d="M 124.621094 153.152344 C 125.417969 153.335938 126.644531 153.703125 127.8125 154.011719 C 128.914062 154.316406 129.222656 155.175781 129.285156 156.160156 C 129.34375 156.464844 129.34375 156.773438 129.34375 157.078125 C 129.160156 160.882812 128.546875 162.109375 123.699219 163.152344 C 122.53125 163.398438 121.550781 162.910156 120.8125 161.988281 C 119.585938 160.453125 119.28125 158.613281 119.28125 156.710938 C 119.28125 155.300781 121.121094 153.582031 122.714844 153.335938 C 123.207031 153.210938 123.699219 153.210938 124.621094 153.152344 Z M 124.621094 153.152344 "/>
<path style=" stroke:none;fill-rule:nonzero;fill:rgb(38.42926%,37.649536%,70.979309%);fill-opacity:1;" d="M 38.511719 192.117188 C 38.632812 191.074219 38.753906 190.03125 38.9375 189.109375 C 39.429688 187.023438 41.394531 185.734375 43.480469 186.105469 C 44.464844 186.289062 45.445312 186.59375 46.242188 187.148438 C 49.1875 188.988281 49.679688 192.671875 47.410156 195.371094 C 47.101562 195.738281 46.609375 195.984375 46.183594 196.230469 C 44.832031 197.089844 43.359375 197.148438 41.824219 197.210938 C 40.289062 197.273438 39.183594 196.414062 38.878906 195.0625 C 38.753906 194.082031 38.632812 193.039062 38.511719 192.117188 Z M 38.511719 192.117188 "/>
<path style=" stroke:none;fill-rule:nonzero;fill:rgb(38.42926%,37.649536%,70.979309%);fill-opacity:1;" d="M 38.140625 120.6875 C 38.324219 120.199219 38.570312 119.15625 39 118.296875 C 39.554688 117.191406 40.597656 116.578125 41.886719 116.515625 C 45.078125 116.332031 47.285156 117.867188 48.882812 120.503906 C 49.066406 120.8125 49.25 121.179688 49.1875 121.425781 C 48.882812 122.53125 48.453125 123.636719 48.023438 124.679688 C 47.898438 124.921875 47.53125 125.167969 47.285156 125.351562 C 45.996094 126.152344 44.648438 126.824219 43.113281 127.070312 C 41.148438 127.441406 39.984375 126.824219 39.0625 124.984375 C 38.386719 123.574219 38.140625 122.589844 38.140625 120.6875 Z M 38.140625 120.6875 "/>
<path style=" stroke:none;fill-rule:nonzero;fill:rgb(38.42926%,37.649536%,70.979309%);fill-opacity:1;" d="M 49.1875 239.492188 C 49.128906 240.167969 49.128906 240.84375 48.882812 241.457031 C 48.636719 242.007812 48.207031 242.746094 47.714844 242.988281 C 45.753906 243.910156 43.605469 244.460938 41.394531 244.277344 C 40.289062 244.21875 39.554688 243.601562 39 242.683594 C 37.527344 240.167969 38.203125 237.28125 40.597656 235.625 C 40.84375 235.441406 41.148438 235.257812 41.457031 235.136719 C 43.417969 234.707031 45.382812 234.519531 47.226562 235.75 C 48.574219 236.609375 49.3125 237.773438 49.1875 239.492188 Z M 49.1875 239.492188 "/>
<path style=" stroke:none;fill-rule:nonzero;fill:rgb(38.42926%,37.649536%,70.979309%);fill-opacity:1;" d="M 7.820312 41.34375 C 10.03125 41.28125 11.75 42.203125 13.160156 43.800781 C 14.328125 45.148438 14.328125 47.542969 13.101562 48.890625 C 11.6875 50.425781 9.847656 51.285156 7.882812 51.839844 C 7.023438 52.082031 6.164062 51.777344 5.550781 51.164062 C 2.972656 48.523438 2.667969 45.640625 4.628906 42.449219 C 4.875 42.082031 5.429688 41.835938 5.859375 41.710938 C 6.472656 41.46875 7.148438 41.40625 7.820312 41.34375 Z M 7.820312 41.34375 "/>
<path style=" stroke:none;fill-rule:nonzero;fill:rgb(38.42926%,37.649536%,70.979309%);fill-opacity:1;" d="M 75.886719 312.332031 C 76.070312 311.71875 76.070312 310.980469 76.441406 310.550781 C 77.238281 309.632812 78.15625 308.773438 79.140625 308.035156 C 79.445312 307.789062 80 307.605469 80.429688 307.667969 C 81.472656 307.730469 82.636719 307.792969 83.621094 308.21875 C 85.644531 309.019531 87.488281 310.246094 89.144531 311.65625 C 90.066406 312.453125 90.308594 313.4375 89.941406 314.601562 C 89.695312 315.339844 89.390625 316.074219 89.207031 316.8125 C 88.960938 317.609375 88.46875 318.160156 87.855469 318.589844 C 87.117188 319.144531 86.320312 319.632812 85.523438 320.125 C 83.683594 321.292969 82.453125 321.292969 80.859375 320.003906 C 79.015625 318.53125 77.542969 316.75 76.5 314.601562 C 76.132812 313.867188 76.070312 313.070312 75.886719 312.332031 Z M 75.886719 312.332031 "/>
<path style=" stroke:none;fill-rule:nonzero;fill:rgb(38.42926%,37.649536%,70.979309%);fill-opacity:1;" d="M 118.480469 313.191406 C 118.480469 310.738281 120.324219 308.773438 122.902344 308.710938 C 125.722656 308.648438 127.996094 309.878906 129.714844 312.085938 C 130.328125 312.882812 130.265625 313.804688 130.203125 314.785156 C 130.082031 316.074219 129.652344 317.179688 128.425781 317.855469 C 127.441406 318.347656 126.582031 318.960938 125.601562 319.449219 C 123.820312 320.308594 121.734375 319.820312 120.570312 318.285156 C 119.09375 316.503906 118.480469 314.847656 118.480469 313.191406 Z M 118.480469 313.191406 "/>
<g clip-path="url(#clip11)" clip-rule="nonzero">
<path style=" stroke:none;fill-rule:nonzero;fill:rgb(38.42926%,37.649536%,70.979309%);fill-opacity:1;" d="M 42.746094 307.484375 C 43.480469 307.605469 44.15625 307.667969 44.769531 307.851562 C 45.261719 307.976562 45.753906 308.21875 46.121094 308.527344 C 47.777344 310.0625 48.820312 312.085938 49.1875 314.234375 C 49.863281 318.160156 47.101562 321.105469 43.050781 321.046875 C 42.375 321.046875 41.703125 320.675781 41.332031 320.125 C 39.921875 317.792969 38.878906 315.339844 38.265625 312.699219 C 37.894531 311.105469 38.695312 309.753906 39.492188 308.464844 C 39.675781 308.21875 40.042969 308.035156 40.351562 307.976562 C 41.148438 307.792969 41.945312 307.667969 42.746094 307.484375 Z M 42.746094 307.484375 "/>
</g>
<path style=" stroke:none;fill-rule:nonzero;fill:rgb(38.42926%,37.649536%,70.979309%);fill-opacity:1;" d="M 7.820312 309.019531 C 10.03125 308.957031 11.75 309.878906 13.160156 311.472656 C 14.328125 312.824219 14.328125 315.214844 13.101562 316.566406 C 11.6875 318.101562 9.847656 318.960938 7.882812 319.511719 C 7.023438 319.757812 6.164062 319.449219 5.550781 318.835938 C 2.972656 316.199219 2.667969 313.3125 4.628906 310.121094 C 4.875 309.753906 5.429688 309.507812 5.859375 309.386719 C 6.472656 309.140625 7.148438 309.140625 7.820312 309.019531 Z M 7.820312 309.019531 "/>
<path style=" stroke:none;fill-rule:nonzero;fill:rgb(38.42926%,37.649536%,70.979309%);fill-opacity:1;" d="M 119.523438 281.035156 C 119.523438 280.175781 119.523438 279.871094 119.523438 279.5625 C 119.464844 277.597656 120.445312 276.3125 121.980469 275.328125 C 122.65625 274.898438 123.453125 274.777344 124.191406 274.898438 C 126.582031 275.269531 128.117188 276.742188 128.914062 278.949219 C 129.097656 279.5 129.097656 280.238281 128.855469 280.730469 C 127.441406 283.734375 124.863281 285.085938 121.613281 284.59375 C 120.691406 284.472656 119.832031 283.675781 119.710938 282.753906 C 119.648438 282.078125 119.585938 281.34375 119.523438 281.035156 Z M 119.523438 281.035156 "/>
<path style=" stroke:none;fill-rule:nonzero;fill:rgb(38.42926%,37.649536%,70.979309%);fill-opacity:1;" d="M 43.050781 79.328125 C 45.136719 79.390625 47.039062 79.757812 48.574219 81.292969 C 49.066406 81.785156 49.375 82.460938 49.1875 83.132812 C 48.882812 84.605469 48.207031 85.957031 46.855469 86.816406 C 45.445312 87.738281 43.910156 88.351562 42.253906 88.65625 C 41.210938 88.839844 40.289062 88.472656 39.554688 87.738281 C 38.140625 86.261719 37.835938 84.359375 38.695312 82.644531 C 39.0625 81.90625 39.554688 81.230469 40.042969 80.496094 C 40.535156 79.757812 41.332031 79.453125 42.191406 79.390625 C 42.375 79.328125 42.746094 79.328125 43.050781 79.328125 Z M 43.050781 79.328125 "/>
<path style=" stroke:none;fill-rule:nonzero;fill:rgb(38.42926%,37.649536%,70.979309%);fill-opacity:1;" d="M 43.175781 153.457031 C 43.726562 153.582031 44.769531 153.703125 45.691406 154.070312 C 47.410156 154.683594 48.390625 155.972656 48.699219 157.816406 C 48.945312 159.164062 48.328125 160.636719 47.226562 161.3125 C 45.628906 162.292969 43.910156 162.96875 42.007812 162.96875 C 40.414062 162.96875 39.125 161.988281 38.753906 160.332031 C 38.203125 158 38.878906 156.035156 40.414062 154.316406 C 41.085938 153.640625 41.886719 153.457031 43.175781 153.457031 Z M 43.175781 153.457031 "/>
<path style=" stroke:none;fill-rule:nonzero;fill:rgb(38.42926%,37.649536%,70.979309%);fill-opacity:1;" d="M 8.4375 1.640625 C 9.96875 1.765625 11.320312 2.378906 12.546875 3.296875 C 12.792969 3.480469 13.039062 3.789062 13.160156 4.097656 C 14.082031 6 13.46875 8.820312 11.75 9.925781 C 10.769531 10.539062 9.664062 11.03125 8.621094 11.460938 C 7.761719 11.828125 6.535156 11.460938 5.859375 10.722656 C 4.9375 9.742188 4.199219 8.636719 3.894531 7.285156 C 3.464844 5.507812 3.957031 3.972656 5.183594 2.683594 C 6.042969 1.765625 7.207031 1.640625 8.4375 1.640625 Z M 8.4375 1.640625 "/>
<path style=" stroke:none;fill-rule:nonzero;fill:rgb(38.42926%,37.649536%,70.979309%);fill-opacity:1;" d="M 124.375 10.96875 C 123.390625 10.601562 122.164062 10.234375 121.121094 9.679688 C 119.894531 9.066406 119.339844 6.796875 120.015625 5.507812 C 120.199219 5.078125 120.445312 4.710938 120.753906 4.339844 C 122.902344 1.519531 126.460938 1.703125 128.484375 4.710938 C 129.527344 6.304688 129.160156 8.574219 127.566406 9.679688 C 127.074219 10.046875 126.523438 10.355469 125.96875 10.601562 C 125.476562 10.722656 124.988281 10.785156 124.375 10.96875 Z M 124.375 10.96875 "/>
<path style=" stroke:none;fill-rule:nonzero;fill:rgb(38.42926%,37.649536%,70.979309%);fill-opacity:1;" d="M 45.691406 5.445312 C 45.691406 5.507812 45.691406 6.183594 45.507812 6.855469 C 45.382812 7.347656 45.199219 7.839844 44.894531 8.207031 C 43.789062 9.496094 42.4375 10.476562 40.902344 11.214844 C 39.308594 11.949219 37.40625 11.152344 36.792969 9.433594 C 35.933594 7.164062 36.484375 5.140625 37.957031 3.359375 C 38.324219 2.867188 39 2.5625 39.613281 2.316406 C 40.71875 1.886719 41.886719 1.886719 43.050781 2.007812 C 45.136719 2.132812 45.753906 2.992188 45.691406 5.445312 Z M 45.691406 5.445312 "/>
</g>
</svg>
