<?xml version="1.0" encoding="UTF-8"?>
<svg xmlns="http://www.w3.org/2000/svg" xmlns:xlink="http://www.w3.org/1999/xlink" width="114pt" height="283.499996pt" viewBox="0 0 114 283.499996" version="1.2">
<defs>
<clipPath id="clip1">
  <path d="M 0.140625 133 L 12 133 L 12 146 L 0.140625 146 Z M 0.140625 133 "/>
</clipPath>
<clipPath id="clip2">
  <path d="M 0.140625 238 L 12 238 L 12 251 L 0.140625 251 Z M 0.140625 238 "/>
</clipPath>
<clipPath id="clip3">
  <path d="M 102 35 L 113.898438 35 L 113.898438 46 L 102 46 Z M 102 35 "/>
</clipPath>
<clipPath id="clip4">
  <path d="M 102 69 L 113.898438 69 L 113.898438 79 L 102 79 Z M 102 69 "/>
</clipPath>
<clipPath id="clip5">
  <path d="M 0.140625 165 L 12 165 L 12 177 L 0.140625 177 Z M 0.140625 165 "/>
</clipPath>
<clipPath id="clip6">
  <path d="M 0.140625 205 L 12 205 L 12 216 L 0.140625 216 Z M 0.140625 205 "/>
</clipPath>
<clipPath id="clip7">
  <path d="M 102 173 L 113.898438 173 L 113.898438 182 L 102 182 Z M 102 173 "/>
</clipPath>
<clipPath id="clip8">
  <path d="M 0.140625 101 L 11 101 L 11 113 L 0.140625 113 Z M 0.140625 101 "/>
</clipPath>
<clipPath id="clip9">
  <path d="M 102 271 L 113.898438 271 L 113.898438 282 L 102 282 Z M 102 271 "/>
</clipPath>
</defs>
<g id="surface1">
<path style=" stroke:none;fill-rule:nonzero;fill:rgb(38.42926%,37.649536%,70.979309%);fill-opacity:1;" d="M 65.652344 243.289062 C 65.8125 241.832031 65.867188 240.476562 66.136719 239.125 C 66.410156 237.882812 67.113281 236.90625 68.359375 236.3125 C 69.550781 235.769531 70.6875 235.71875 71.933594 236.3125 C 73.554688 237.125 74.910156 238.3125 76.046875 239.667969 C 77.238281 241.074219 77.617188 242.859375 77.292969 244.699219 C 77.128906 245.726562 74.152344 249.78125 73.230469 250.214844 C 72.851562 250.378906 72.472656 250.539062 72.09375 250.59375 C 71.121094 250.703125 70.199219 250.703125 69.226562 250.757812 C 67.4375 250.8125 66.789062 250.324219 66.410156 248.484375 C 66.03125 246.808594 65.867188 245.023438 65.652344 243.289062 Z M 65.652344 243.289062 "/>
<path style=" stroke:none;fill-rule:nonzero;fill:rgb(38.42926%,37.649536%,70.979309%);fill-opacity:1;" d="M 31.214844 243.128906 C 31.484375 241.777344 31.648438 240.640625 31.917969 239.503906 C 32.242188 238.097656 33.21875 237.230469 34.464844 236.582031 C 35.003906 236.3125 35.601562 236.257812 36.195312 236.421875 C 37.496094 236.746094 38.6875 237.449219 39.660156 238.367188 C 40.417969 239.070312 40.90625 239.992188 41.070312 241.074219 C 41.394531 242.964844 41.394531 244.914062 42.316406 246.644531 C 43.019531 247.945312 42.261719 248.917969 41.558594 249.890625 C 41.394531 250.109375 41.125 250.378906 40.851562 250.378906 C 39.390625 250.539062 37.875 250.917969 36.46875 250.757812 C 34.410156 250.539062 32.894531 249.242188 32.191406 247.292969 C 31.648438 245.941406 31.484375 244.425781 31.214844 243.128906 Z M 31.214844 243.128906 "/>
<path style=" stroke:none;fill-rule:nonzero;fill:rgb(38.42926%,37.649536%,70.979309%);fill-opacity:1;" d="M 71.226562 145.910156 C 70.847656 145.746094 70.46875 145.585938 70.144531 145.367188 C 69.929688 145.207031 69.765625 144.988281 69.605469 144.71875 C 68.414062 142.394531 67.277344 140.011719 66.625 137.46875 C 66.191406 135.683594 66.789062 134.222656 68.304688 133.140625 C 69.386719 132.382812 70.578125 132.167969 71.824219 132.65625 C 73.554688 133.304688 74.855469 134.496094 75.882812 136.007812 C 76.101562 136.332031 76.210938 136.765625 76.265625 137.144531 C 76.425781 138.226562 76.535156 139.308594 76.589844 140.390625 C 76.589844 141.203125 76.535156 142.070312 76.371094 142.824219 C 76.265625 143.3125 75.882812 143.855469 75.503906 144.179688 C 74.207031 145.261719 72.746094 145.640625 71.226562 145.910156 Z M 71.226562 145.910156 "/>
<path style=" stroke:none;fill-rule:nonzero;fill:rgb(38.42926%,37.649536%,70.979309%);fill-opacity:1;" d="M 65.273438 39.113281 C 65.433594 38.574219 65.433594 37.925781 65.757812 37.546875 C 66.464844 36.734375 67.277344 35.976562 68.140625 35.328125 C 68.414062 35.113281 68.898438 34.949219 69.277344 35.003906 C 70.199219 35.058594 71.226562 35.113281 72.09375 35.488281 C 73.882812 36.195312 75.503906 37.277344 76.96875 38.519531 C 77.78125 39.222656 77.996094 40.089844 77.671875 41.117188 C 77.453125 41.765625 77.183594 42.414062 77.023438 43.0625 C 76.804688 43.765625 76.371094 44.253906 75.832031 44.632812 C 75.179688 45.121094 74.476562 45.554688 73.773438 45.984375 C 72.148438 47.011719 71.066406 47.011719 69.65625 45.878906 C 68.035156 44.578125 66.734375 43.011719 65.8125 41.117188 C 65.488281 40.46875 65.433594 39.765625 65.273438 39.113281 Z M 65.273438 39.113281 "/>
<path style=" stroke:none;fill-rule:nonzero;fill:rgb(38.42926%,37.649536%,70.979309%);fill-opacity:1;" d="M 70.523438 67.679688 C 73.449219 68.058594 75.613281 69.574219 77.023438 72.117188 C 77.183594 72.441406 77.183594 72.929688 77.074219 73.304688 C 76.859375 73.957031 76.316406 74.550781 76.316406 75.199219 C 76.265625 77.148438 75.125 78.175781 73.503906 78.878906 C 73.125 79.042969 72.746094 79.257812 72.417969 79.472656 C 71.011719 80.394531 69.875 79.796875 69.171875 78.878906 C 67.707031 77.039062 66.625 74.984375 66.03125 72.710938 C 65.652344 71.25 66.085938 70.007812 67.167969 68.976562 C 68.085938 68.113281 69.171875 67.519531 70.523438 67.679688 Z M 70.523438 67.679688 "/>
<g clip-path="url(#clip1)" clip-rule="nonzero">
<path style=" stroke:none;fill-rule:nonzero;fill:rgb(38.42926%,37.649536%,70.979309%);fill-opacity:1;" d="M 0.242188 137.957031 C 0.351562 136.386719 0.894531 135.035156 2.03125 134.007812 C 2.410156 133.628906 3.058594 133.359375 3.65625 133.304688 C 5.660156 133.085938 7.5 133.519531 9.015625 134.980469 C 9.773438 135.683594 10.476562 136.441406 11.128906 137.308594 C 11.453125 137.742188 11.722656 138.390625 11.722656 138.929688 C 11.667969 141.148438 10.746094 142.988281 8.691406 144.015625 C 7.609375 144.503906 6.46875 144.828125 5.332031 145.097656 C 3.980469 145.421875 2.625 144.664062 1.921875 143.527344 C 0.730469 141.796875 0.515625 139.851562 0.242188 137.957031 Z M 0.242188 137.957031 "/>
</g>
<path style=" stroke:none;fill-rule:nonzero;fill:rgb(38.42926%,37.649536%,70.979309%);fill-opacity:1;" d="M 66.136719 105.496094 C 66.136719 104.035156 66.519531 103.0625 67.601562 102.414062 C 67.980469 102.195312 68.304688 101.980469 68.683594 101.761719 C 69.332031 101.4375 69.984375 101.332031 70.6875 101.492188 C 71.769531 101.761719 72.796875 102.140625 73.609375 102.953125 C 74.910156 104.199219 75.992188 105.605469 76.75 107.28125 C 76.914062 107.605469 76.96875 108.148438 76.859375 108.472656 C 76.480469 109.664062 75.992188 110.796875 74.746094 111.394531 C 73.882812 111.828125 73.070312 112.3125 72.203125 112.746094 C 71.554688 113.070312 70.308594 112.855469 69.875 112.367188 C 68.304688 110.746094 67.167969 108.90625 66.410156 106.792969 C 66.191406 106.308594 66.136719 105.765625 66.136719 105.496094 Z M 66.136719 105.496094 "/>
<path style=" stroke:none;fill-rule:nonzero;fill:rgb(38.42926%,37.649536%,70.979309%);fill-opacity:1;" d="M 76.914062 6.222656 C 76.96875 7.304688 76.75 7.953125 76.210938 8.441406 C 75.289062 9.25 74.316406 10.007812 73.285156 10.65625 C 72.582031 11.144531 71.769531 11.199219 70.902344 10.984375 C 69.550781 10.65625 68.359375 10.0625 67.707031 8.65625 C 67.277344 7.628906 66.734375 6.707031 66.300781 5.679688 C 65.597656 3.949219 66.300781 2.054688 67.871094 1.082031 C 68.195312 0.867188 68.574219 0.703125 68.953125 0.488281 C 69.710938 0 70.523438 0 71.28125 0.324219 C 72.691406 0.917969 73.933594 1.675781 75.125 2.652344 C 76.480469 3.679688 77.023438 4.976562 76.914062 6.222656 Z M 76.914062 6.222656 "/>
<path style=" stroke:none;fill-rule:nonzero;fill:rgb(38.42926%,37.649536%,70.979309%);fill-opacity:1;" d="M 66.03125 210.179688 C 65.867188 206.285156 69.441406 204.878906 71.554688 205.960938 C 73.828125 207.152344 75.503906 208.9375 76.75 211.101562 C 77.183594 211.804688 77.023438 212.777344 76.480469 213.425781 C 75.453125 214.617188 74.261719 215.484375 72.636719 215.644531 C 71.554688 215.808594 70.46875 216.023438 69.386719 216.1875 C 68.628906 216.292969 67.707031 215.699219 67.382812 214.996094 C 66.570312 213.265625 66.136719 211.425781 66.03125 210.179688 Z M 66.03125 210.179688 "/>
<g clip-path="url(#clip2)" clip-rule="nonzero">
<path style=" stroke:none;fill-rule:nonzero;fill:rgb(38.42926%,37.649536%,70.979309%);fill-opacity:1;" d="M 5.007812 250.757812 C 3.65625 250.863281 2.734375 250.324219 2.140625 249.132812 C 1.054688 247.132812 0.785156 244.914062 0.785156 242.695312 C 0.785156 241.289062 1.542969 240.152344 2.570312 239.234375 C 2.949219 238.855469 3.65625 238.691406 4.195312 238.691406 C 7.445312 238.636719 9.9375 240.316406 11.074219 243.289062 C 11.289062 243.832031 11.289062 244.480469 11.179688 245.023438 C 10.964844 245.886719 10.640625 246.644531 10.585938 247.566406 C 10.476562 249.351562 9.71875 249.945312 7.714844 250.433594 C 6.796875 250.648438 5.875 250.703125 5.007812 250.757812 Z M 5.007812 250.757812 "/>
</g>
<g clip-path="url(#clip3)" clip-rule="nonzero">
<path style=" stroke:none;fill-rule:nonzero;fill:rgb(38.42926%,37.649536%,70.979309%);fill-opacity:1;" d="M 102.847656 39.871094 C 102.847656 37.707031 104.472656 35.976562 106.746094 35.921875 C 109.238281 35.867188 111.242188 36.949219 112.757812 38.898438 C 113.300781 39.601562 113.246094 40.414062 113.191406 41.277344 C 113.082031 42.414062 112.703125 43.390625 111.621094 43.984375 C 110.753906 44.417969 109.996094 44.957031 109.128906 45.390625 C 107.558594 46.148438 105.71875 45.714844 104.691406 44.363281 C 103.390625 42.792969 102.847656 41.332031 102.847656 39.871094 Z M 102.847656 39.871094 "/>
</g>
<path style=" stroke:none;fill-rule:nonzero;fill:rgb(38.42926%,37.649536%,70.979309%);fill-opacity:1;" d="M 36.035156 34.839844 C 36.683594 34.949219 37.277344 35.003906 37.820312 35.164062 C 38.253906 35.273438 38.6875 35.488281 39.011719 35.761719 C 40.472656 37.113281 41.394531 38.898438 41.71875 40.792969 C 42.316406 44.253906 39.878906 46.851562 36.304688 46.796875 C 35.707031 46.796875 35.113281 46.472656 34.789062 45.984375 C 33.542969 43.929688 32.621094 41.765625 32.082031 39.4375 C 31.757812 38.03125 32.460938 36.84375 33.164062 35.707031 C 33.328125 35.488281 33.652344 35.328125 33.921875 35.273438 C 34.625 35.113281 35.328125 35.003906 36.035156 34.839844 Z M 36.035156 34.839844 "/>
<g clip-path="url(#clip4)" clip-rule="nonzero">
<path style=" stroke:none;fill-rule:nonzero;fill:rgb(38.42926%,37.649536%,70.979309%);fill-opacity:1;" d="M 106.261719 69.085938 C 107.613281 69.03125 108.914062 69.574219 109.996094 70.4375 C 111.132812 71.359375 112.214844 72.441406 113.300781 73.46875 C 113.839844 73.957031 113.679688 75.578125 113.082031 76.121094 C 111.621094 77.417969 109.941406 78.285156 107.992188 78.5 C 106.367188 78.714844 105.015625 78.121094 104.039062 76.769531 C 103.5 76.011719 103.121094 75.089844 102.742188 74.226562 C 102.089844 72.65625 102.578125 71.304688 103.660156 70.113281 C 104.3125 69.410156 105.175781 69.03125 106.261719 69.085938 Z M 106.261719 69.085938 "/>
</g>
<path style=" stroke:none;fill-rule:nonzero;fill:rgb(38.42926%,37.649536%,70.979309%);fill-opacity:1;" d="M 71.175781 175.933594 C 70.144531 175.882812 69.550781 175.609375 69.007812 175.125 C 67.707031 173.824219 66.898438 172.257812 66.519531 170.472656 C 66.355469 169.820312 66.464844 169.117188 66.570312 168.414062 C 66.679688 167.710938 67.113281 167.171875 67.707031 166.738281 C 69.226562 165.710938 70.796875 165.601562 72.367188 166.574219 C 73.882812 167.550781 75.125 168.847656 76.210938 170.253906 C 76.914062 171.230469 76.535156 173.5 75.453125 174.421875 C 74.964844 174.855469 74.316406 175.285156 73.71875 175.449219 C 72.796875 175.773438 71.824219 175.828125 71.175781 175.933594 Z M 71.175781 175.933594 "/>
<g clip-path="url(#clip5)" clip-rule="nonzero">
<path style=" stroke:none;fill-rule:nonzero;fill:rgb(38.42926%,37.649536%,70.979309%);fill-opacity:1;" d="M 0.675781 171.175781 C 0.515625 169.550781 1.382812 168.414062 2.246094 167.171875 C 3.003906 166.089844 4.035156 165.710938 5.332031 165.820312 C 7.011719 165.925781 8.472656 166.523438 9.882812 167.386719 C 10.964844 168.089844 11.453125 169.117188 11.179688 170.417969 C 11.074219 171.011719 10.746094 171.554688 10.746094 172.09375 C 10.800781 173.988281 9.503906 174.636719 8.09375 175.179688 C 7.121094 175.558594 6.144531 175.773438 5.117188 175.988281 C 3.816406 176.261719 2.789062 175.773438 1.976562 174.800781 C 1.164062 173.773438 0.621094 172.582031 0.675781 171.175781 Z M 0.675781 171.175781 "/>
</g>
<path style=" stroke:none;fill-rule:nonzero;fill:rgb(38.42926%,37.649536%,70.979309%);fill-opacity:1;" d="M 103.28125 105.660156 C 103.175781 103.496094 105.230469 101.761719 107.453125 102.195312 C 108.101562 102.304688 108.75 102.574219 109.402344 102.84375 C 109.996094 103.117188 110.59375 103.546875 111.1875 103.875 C 112.59375 104.738281 113.027344 105.710938 112.703125 107.335938 C 112.59375 107.875 112.433594 108.417969 112.269531 108.90625 C 112 109.714844 111.511719 110.367188 110.753906 110.796875 C 109.832031 111.394531 108.859375 111.933594 107.777344 112.097656 C 106.421875 112.3125 105.285156 111.773438 104.636719 110.636719 C 103.660156 109.175781 103.226562 107.445312 103.28125 105.660156 Z M 103.28125 105.660156 "/>
<g clip-path="url(#clip6)" clip-rule="nonzero">
<path style=" stroke:none;fill-rule:nonzero;fill:rgb(38.42926%,37.649536%,70.979309%);fill-opacity:1;" d="M 0.839844 210.507812 C 0.785156 208.828125 1.652344 207.476562 2.898438 206.394531 C 3.277344 206.070312 3.980469 205.90625 4.519531 205.851562 C 6.6875 205.800781 8.582031 206.554688 10.097656 208.070312 C 10.855469 208.828125 11.398438 209.695312 10.964844 210.832031 C 10.910156 210.992188 10.855469 211.101562 10.855469 211.261719 C 11.019531 213.859375 9.394531 214.832031 7.230469 215.429688 C 6.089844 215.753906 4.953125 216.023438 3.761719 215.914062 C 3.113281 215.863281 2.625 215.589844 2.300781 215.105469 C 1.328125 213.75 0.785156 212.292969 0.839844 210.507812 Z M 0.839844 210.507812 "/>
</g>
<g clip-path="url(#clip7)" clip-rule="nonzero">
<path style=" stroke:none;fill-rule:nonzero;fill:rgb(38.42926%,37.649536%,70.979309%);fill-opacity:1;" d="M 102.742188 177.722656 C 102.632812 175.558594 104.257812 173.664062 105.664062 173.175781 C 106.152344 173.015625 106.746094 173.015625 107.289062 173.121094 C 109.347656 173.554688 111.132812 174.476562 112.648438 175.933594 C 113.460938 176.746094 113.570312 178.097656 112.867188 178.910156 C 112.214844 179.613281 111.566406 180.371094 110.644531 180.695312 C 109.347656 181.128906 108.046875 181.5625 106.746094 181.832031 C 105.230469 182.15625 103.714844 181.183594 103.226562 179.667969 C 102.902344 178.910156 102.796875 178.097656 102.742188 177.722656 Z M 102.742188 177.722656 "/>
</g>
<g clip-path="url(#clip8)" clip-rule="nonzero">
<path style=" stroke:none;fill-rule:nonzero;fill:rgb(38.42926%,37.649536%,70.979309%);fill-opacity:1;" d="M 4.414062 101.925781 C 5.386719 102.140625 6.308594 102.195312 7.121094 102.519531 C 7.769531 102.792969 8.472656 103.222656 8.90625 103.765625 C 9.609375 104.683594 10.152344 105.765625 10.746094 106.792969 C 10.910156 107.011719 10.964844 107.390625 10.910156 107.660156 C 10.53125 108.90625 10.367188 110.257812 9.070312 111.070312 C 8.039062 111.71875 7.011719 112.257812 5.820312 112.476562 C 4.359375 112.746094 3.113281 112.203125 2.410156 111.015625 C 1.542969 109.554688 1.109375 107.984375 1 106.363281 C 0.894531 105.007812 1.433594 103.710938 2.464844 102.792969 C 2.949219 102.25 3.761719 102.140625 4.414062 101.925781 Z M 4.414062 101.925781 "/>
</g>
<path style=" stroke:none;fill-rule:nonzero;fill:rgb(38.42926%,37.649536%,70.979309%);fill-opacity:1;" d="M 111.566406 214.238281 C 110.160156 215.210938 108.695312 215.644531 107.179688 215.753906 C 105.773438 215.863281 104.472656 214.996094 104.039062 213.644531 C 103.445312 211.914062 103.445312 210.128906 104.09375 208.449219 C 104.691406 206.773438 106.261719 206.015625 108.046875 206.285156 C 109.941406 206.609375 111.296875 207.585938 112.109375 209.371094 C 112.542969 210.289062 112.703125 211.15625 112.324219 212.128906 C 111.945312 212.777344 111.730469 213.589844 111.566406 214.238281 Z M 111.566406 214.238281 "/>
<path style=" stroke:none;fill-rule:nonzero;fill:rgb(38.42926%,37.649536%,70.979309%);fill-opacity:1;" d="M 10.476562 74.226562 C 10.476562 74.28125 10.476562 74.714844 10.476562 75.144531 C 10.421875 75.957031 9.9375 76.5 9.394531 76.984375 C 8.148438 78.066406 6.578125 78.5 5.007812 78.878906 C 4.628906 78.988281 4.140625 78.714844 3.816406 78.5 C 2.519531 77.632812 2.03125 76.28125 1.542969 74.820312 C 0.894531 72.765625 1.8125 71.140625 2.84375 69.519531 C 3.65625 69.25 4.46875 68.761719 5.28125 68.707031 C 6.144531 68.652344 7.011719 68.871094 7.878906 69.085938 C 9.71875 69.464844 10.746094 70.980469 10.640625 72.980469 C 10.585938 73.253906 10.53125 73.578125 10.476562 74.226562 Z M 10.476562 74.226562 "/>
<path style=" stroke:none;fill-rule:nonzero;fill:rgb(38.42926%,37.649536%,70.979309%);fill-opacity:1;" d="M 108.261719 134.765625 C 108.96875 134.925781 110.050781 135.25 111.078125 135.523438 C 112.054688 135.792969 112.324219 136.550781 112.378906 137.414062 C 112.433594 137.6875 112.433594 137.957031 112.433594 138.226562 C 112.269531 141.582031 111.730469 142.664062 107.453125 143.582031 C 106.421875 143.800781 105.554688 143.367188 104.90625 142.554688 C 103.824219 141.203125 103.554688 139.578125 103.554688 137.902344 C 103.554688 136.660156 105.175781 135.144531 106.585938 134.925781 C 107.019531 134.820312 107.453125 134.820312 108.261719 134.765625 Z M 108.261719 134.765625 "/>
<path style=" stroke:none;fill-rule:nonzero;fill:rgb(38.42926%,37.649536%,70.979309%);fill-opacity:1;" d="M 32.296875 169.117188 C 32.40625 168.199219 32.515625 167.28125 32.675781 166.46875 C 33.109375 164.628906 34.84375 163.492188 36.683594 163.816406 C 37.550781 163.980469 38.417969 164.25 39.121094 164.738281 C 41.71875 166.359375 42.152344 169.605469 40.148438 171.984375 C 39.878906 172.3125 39.445312 172.527344 39.066406 172.742188 C 37.875 173.5 36.574219 173.554688 35.222656 173.609375 C 33.867188 173.664062 32.894531 172.90625 32.621094 171.714844 C 32.515625 170.851562 32.40625 169.929688 32.296875 169.117188 Z M 32.296875 169.117188 "/>
<path style=" stroke:none;fill-rule:nonzero;fill:rgb(38.42926%,37.649536%,70.979309%);fill-opacity:1;" d="M 31.972656 106.144531 C 32.136719 105.710938 32.351562 104.792969 32.730469 104.035156 C 33.21875 103.0625 34.140625 102.519531 35.277344 102.464844 C 38.089844 102.304688 40.039062 103.65625 41.449219 105.984375 C 41.609375 106.253906 41.773438 106.578125 41.71875 106.792969 C 41.449219 107.769531 41.070312 108.742188 40.691406 109.664062 C 40.582031 109.878906 40.257812 110.09375 40.039062 110.257812 C 38.902344 110.960938 37.710938 111.554688 36.359375 111.773438 C 34.625 112.097656 33.597656 111.554688 32.785156 109.933594 C 32.191406 108.6875 31.972656 107.824219 31.972656 106.144531 Z M 31.972656 106.144531 "/>
<path style=" stroke:none;fill-rule:nonzero;fill:rgb(38.42926%,37.649536%,70.979309%);fill-opacity:1;" d="M 41.71875 210.882812 C 41.664062 211.480469 41.664062 212.074219 41.449219 212.617188 C 41.230469 213.101562 40.851562 213.753906 40.417969 213.96875 C 38.6875 214.78125 36.792969 215.265625 34.84375 215.105469 C 33.867188 215.050781 33.21875 214.507812 32.730469 213.699219 C 31.429688 211.480469 32.027344 208.9375 34.140625 207.476562 C 34.355469 207.3125 34.625 207.152344 34.898438 207.042969 C 36.628906 206.664062 38.363281 206.503906 39.988281 207.585938 C 41.175781 208.34375 41.828125 209.371094 41.71875 210.882812 Z M 41.71875 210.882812 "/>
<path style=" stroke:none;fill-rule:nonzero;fill:rgb(38.42926%,37.649536%,70.979309%);fill-opacity:1;" d="M 5.226562 36.195312 C 7.175781 36.140625 8.691406 36.949219 9.9375 38.355469 C 10.964844 39.546875 10.964844 41.65625 9.882812 42.847656 C 8.636719 44.199219 7.011719 44.957031 5.28125 45.445312 C 4.519531 45.660156 3.761719 45.390625 3.222656 44.847656 C 0.949219 42.523438 0.675781 39.980469 2.410156 37.167969 C 2.625 36.84375 3.113281 36.625 3.492188 36.519531 C 4.035156 36.300781 4.628906 36.246094 5.226562 36.195312 Z M 5.226562 36.195312 "/>
<path style=" stroke:none;fill-rule:nonzero;fill:rgb(38.42926%,37.649536%,70.979309%);fill-opacity:1;" d="M 65.273438 275.101562 C 65.433594 274.5625 65.433594 273.910156 65.757812 273.535156 C 66.464844 272.722656 67.277344 271.964844 68.140625 271.316406 C 68.414062 271.097656 68.898438 270.9375 69.277344 270.992188 C 70.199219 271.042969 71.226562 271.097656 72.09375 271.476562 C 73.882812 272.179688 75.503906 273.261719 76.96875 274.507812 C 77.78125 275.210938 77.996094 276.074219 77.671875 277.105469 C 77.453125 277.753906 77.183594 278.402344 77.023438 279.050781 C 76.804688 279.753906 76.371094 280.242188 75.832031 280.621094 C 75.179688 281.105469 74.476562 281.539062 73.773438 281.972656 C 72.148438 283 71.066406 283 69.65625 281.863281 C 68.035156 280.566406 66.734375 278.996094 65.8125 277.105469 C 65.488281 276.453125 65.433594 275.75 65.273438 275.101562 Z M 65.273438 275.101562 "/>
<g clip-path="url(#clip9)" clip-rule="nonzero">
<path style=" stroke:none;fill-rule:nonzero;fill:rgb(38.42926%,37.649536%,70.979309%);fill-opacity:1;" d="M 102.847656 275.859375 C 102.847656 273.695312 104.472656 271.964844 106.746094 271.910156 C 109.238281 271.855469 111.242188 272.9375 112.757812 274.886719 C 113.300781 275.589844 113.246094 276.402344 113.191406 277.265625 C 113.082031 278.402344 112.703125 279.375 111.621094 279.972656 C 110.753906 280.402344 109.996094 280.945312 109.128906 281.378906 C 107.558594 282.136719 105.71875 281.703125 104.691406 280.351562 C 103.390625 278.78125 102.847656 277.320312 102.847656 275.859375 Z M 102.847656 275.859375 "/>
</g>
<path style=" stroke:none;fill-rule:nonzero;fill:rgb(38.42926%,37.649536%,70.979309%);fill-opacity:1;" d="M 36.035156 270.828125 C 36.683594 270.9375 37.277344 270.992188 37.820312 271.152344 C 38.253906 271.261719 38.6875 271.476562 39.011719 271.746094 C 40.472656 273.101562 41.394531 274.886719 41.71875 276.777344 C 42.316406 280.242188 39.878906 282.839844 36.304688 282.785156 C 35.707031 282.785156 35.113281 282.460938 34.789062 281.972656 C 33.542969 279.917969 32.621094 277.753906 32.082031 275.425781 C 31.757812 274.019531 32.460938 272.828125 33.164062 271.695312 C 33.328125 271.476562 33.652344 271.316406 33.921875 271.261719 C 34.625 271.097656 35.328125 270.992188 36.035156 270.828125 Z M 36.035156 270.828125 "/>
<path style=" stroke:none;fill-rule:nonzero;fill:rgb(38.42926%,37.649536%,70.979309%);fill-opacity:1;" d="M 5.226562 272.179688 C 7.175781 272.125 8.691406 272.9375 9.9375 274.34375 C 10.964844 275.535156 10.964844 277.644531 9.882812 278.835938 C 8.636719 280.1875 7.011719 280.945312 5.28125 281.433594 C 4.519531 281.648438 3.761719 281.378906 3.222656 280.835938 C 0.949219 278.511719 0.675781 275.96875 2.410156 273.15625 C 2.625 272.828125 3.113281 272.613281 3.492188 272.503906 C 4.035156 272.289062 4.628906 272.289062 5.226562 272.179688 Z M 5.226562 272.179688 "/>
<path style=" stroke:none;fill-rule:nonzero;fill:rgb(38.42926%,37.649536%,70.979309%);fill-opacity:1;" d="M 103.769531 247.511719 C 103.769531 246.753906 103.769531 246.484375 103.769531 246.210938 C 103.714844 244.480469 104.582031 243.34375 105.933594 242.480469 C 106.53125 242.101562 107.234375 241.992188 107.882812 242.101562 C 109.996094 242.425781 111.351562 243.722656 112.054688 245.671875 C 112.214844 246.160156 112.214844 246.808594 112 247.242188 C 110.753906 249.890625 108.480469 251.082031 105.609375 250.648438 C 104.796875 250.539062 104.039062 249.835938 103.933594 249.027344 C 103.878906 248.429688 103.824219 247.78125 103.769531 247.511719 Z M 103.769531 247.511719 "/>
<path style=" stroke:none;fill-rule:nonzero;fill:rgb(38.42926%,37.649536%,70.979309%);fill-opacity:1;" d="M 36.304688 69.683594 C 38.144531 69.734375 39.824219 70.058594 41.175781 71.414062 C 41.609375 71.847656 41.882812 72.441406 41.71875 73.035156 C 41.449219 74.335938 40.851562 75.523438 39.660156 76.28125 C 38.417969 77.09375 37.0625 77.632812 35.601562 77.90625 C 34.679688 78.066406 33.867188 77.742188 33.21875 77.09375 C 31.972656 75.796875 31.703125 74.117188 32.460938 72.601562 C 32.785156 71.953125 33.21875 71.359375 33.652344 70.710938 C 34.085938 70.058594 34.789062 69.789062 35.546875 69.734375 C 35.707031 69.683594 36.035156 69.683594 36.304688 69.683594 Z M 36.304688 69.683594 "/>
<path style=" stroke:none;fill-rule:nonzero;fill:rgb(38.42926%,37.649536%,70.979309%);fill-opacity:1;" d="M 36.414062 135.035156 C 36.898438 135.144531 37.820312 135.25 38.632812 135.578125 C 40.148438 136.117188 41.015625 137.253906 41.285156 138.875 C 41.503906 140.066406 40.960938 141.363281 39.988281 141.960938 C 38.578125 142.824219 37.0625 143.421875 35.382812 143.421875 C 33.976562 143.421875 32.839844 142.554688 32.515625 141.09375 C 32.027344 139.039062 32.621094 137.308594 33.976562 135.792969 C 34.570312 135.199219 35.277344 135.035156 36.414062 135.035156 Z M 36.414062 135.035156 "/>
<path style=" stroke:none;fill-rule:nonzero;fill:rgb(38.42926%,37.649536%,70.979309%);fill-opacity:1;" d="M 5.765625 1.191406 C 7.121094 1.296875 8.3125 1.839844 9.394531 2.652344 C 9.609375 2.8125 9.828125 3.082031 9.9375 3.355469 C 10.746094 5.03125 10.207031 7.519531 8.691406 8.492188 C 7.824219 9.035156 6.847656 9.46875 5.929688 9.847656 C 5.171875 10.171875 4.089844 9.847656 3.492188 9.195312 C 2.679688 8.332031 2.03125 7.359375 1.761719 6.167969 C 1.382812 4.597656 1.8125 3.246094 2.898438 2.109375 C 3.65625 1.296875 4.683594 1.191406 5.765625 1.191406 Z M 5.765625 1.191406 "/>
<path style=" stroke:none;fill-rule:nonzero;fill:rgb(38.42926%,37.649536%,70.979309%);fill-opacity:1;" d="M 108.046875 9.414062 C 107.179688 9.089844 106.097656 8.765625 105.175781 8.277344 C 104.09375 7.738281 103.605469 5.734375 104.203125 4.597656 C 104.363281 4.21875 104.582031 3.894531 104.851562 3.570312 C 106.746094 1.082031 109.886719 1.246094 111.675781 3.894531 C 112.59375 5.300781 112.269531 7.304688 110.863281 8.277344 C 110.429688 8.601562 109.941406 8.871094 109.453125 9.089844 C 109.023438 9.195312 108.589844 9.25 108.046875 9.414062 Z M 108.046875 9.414062 "/>
<path style=" stroke:none;fill-rule:nonzero;fill:rgb(38.42926%,37.649536%,70.979309%);fill-opacity:1;" d="M 38.632812 4.542969 C 38.632812 4.597656 38.632812 5.195312 38.46875 5.789062 C 38.363281 6.222656 38.199219 6.65625 37.929688 6.980469 C 36.953125 8.113281 35.761719 8.980469 34.410156 9.628906 C 33 10.277344 31.324219 9.574219 30.78125 8.0625 C 30.023438 6.058594 30.511719 4.273438 31.808594 2.703125 C 32.136719 2.273438 32.730469 2 33.273438 1.785156 C 34.246094 1.40625 35.277344 1.40625 36.304688 1.515625 C 38.144531 1.621094 38.6875 2.378906 38.632812 4.542969 Z M 38.632812 4.542969 "/>
</g>
</svg>
