<?xml version="1.0" encoding="UTF-8"?>
<svg xmlns="http://www.w3.org/2000/svg" xmlns:xlink="http://www.w3.org/1999/xlink" width="450pt" height="383.249997pt" viewBox="0 0 450 383.249997" version="1.2">
<defs>
<clipPath id="clip1">
  <path d="M 128 332 L 185 332 L 185 382.5 L 128 382.5 Z M 128 332 "/>
</clipPath>
<clipPath id="clip2">
  <path d="M 225 0.171875 L 277 0.171875 L 277 50 L 225 50 Z M 225 0.171875 "/>
</clipPath>
<clipPath id="clip3">
  <path d="M 401 176 L 449.558594 176 L 449.558594 222 L 401 222 Z M 401 176 "/>
</clipPath>
<clipPath id="clip4">
  <path d="M 0.441406 230 L 48 230 L 48 268 L 0.441406 268 Z M 0.441406 230 "/>
</clipPath>
</defs>
<g id="surface1">
<path style=" stroke:none;fill-rule:nonzero;fill:rgb(82.348633%,77.648926%,98.039246%);fill-opacity:1;" d="M 329.804688 239.457031 C 319.042969 239.902344 311.554688 235.882812 305.691406 226.070312 C 295.738281 209.40625 301.578125 193.378906 312.859375 182.066406 C 321.898438 172.992188 334.65625 176.269531 341.554688 187.5625 C 344.117188 191.730469 346.234375 195.5 351.382812 197.277344 C 355.199219 198.582031 357.738281 202.082031 358.054688 206.644531 C 358.351562 210.835938 360.863281 214.65625 359.238281 219.191406 C 355.839844 228.683594 342.910156 238.816406 332.808594 239.457031 C 331.847656 239.507812 330.816406 239.457031 329.804688 239.457031 Z M 329.804688 239.457031 "/>
<g clip-path="url(#clip1)" clip-rule="nonzero">
<path style=" stroke:none;fill-rule:nonzero;fill:rgb(82.348633%,77.648926%,98.039246%);fill-opacity:1;" d="M 184.726562 362.773438 C 184.457031 373.226562 182.707031 375.371094 174.800781 378.699219 C 165.910156 382.445312 156.773438 383.234375 147.414062 381.609375 C 137.78125 379.929688 132.929688 372.683594 129.753906 364.546875 C 126.207031 355.5 128.496094 346.96875 135.246094 340.164062 C 141.328125 334.027344 148.101562 331.316406 157.734375 333.363281 C 164.507812 334.792969 168.570312 337.378906 171.746094 342.730469 C 172.5625 344.0625 173.421875 345.269531 174.875 345.886719 C 183.273438 349.460938 184.554688 356.734375 184.726562 362.773438 Z M 184.726562 362.773438 "/>
</g>
<path style=" stroke:none;fill-rule:nonzero;fill:rgb(82.348633%,77.648926%,98.039246%);fill-opacity:1;" d="M 352.933594 332.398438 C 346.035156 333.632812 341.109375 330.996094 337.121094 326.3125 C 326.011719 313.269531 328.328125 292.488281 341.972656 282.007812 C 346.628906 278.433594 355.667969 278.238281 360.394531 282.058594 C 363.304688 284.398438 366.503906 286.617188 368.253906 290.121094 C 369.4375 292.511719 371.40625 293.890625 373.574219 295.273438 C 377.984375 298.082031 379.140625 301.015625 377.785156 306.144531 C 377.34375 307.820312 376.457031 309.273438 377.023438 311.171875 C 377.6875 313.390625 380.988281 314.824219 379.066406 317.828125 C 376.503906 321.847656 374.238281 326.039062 369.929688 328.675781 C 364.484375 331.980469 358.425781 331.957031 352.933594 332.398438 Z M 352.933594 332.398438 "/>
<path style=" stroke:none;fill-rule:nonzero;fill:rgb(82.348633%,77.648926%,98.039246%);fill-opacity:1;" d="M 204.800781 122.230469 C 194.902344 122.28125 187.414062 118.507812 182.808594 109.191406 C 178.054688 99.601562 178.472656 90.578125 184.65625 81.996094 C 190.269531 74.207031 202.636719 72.136719 211.355469 76.328125 C 219.136719 80.074219 224.015625 86.953125 230.171875 92.375 C 234.335938 96.050781 234.136719 101.917969 230.050781 105.566406 C 227.636719 107.710938 228.769531 110.496094 226.898438 112.839844 C 221.058594 120.160156 213.621094 122.476562 204.800781 122.230469 Z M 217.214844 96.640625 C 217.09375 93.460938 212.855469 89.691406 209.976562 90.058594 C 207.78125 90.332031 207.070312 91.785156 207.242188 93.804688 C 207.535156 97.355469 211.207031 101.375 213.84375 100.90625 C 216.15625 100.488281 216.996094 98.664062 217.214844 96.640625 Z M 217.214844 96.640625 "/>
<g clip-path="url(#clip2)" clip-rule="nonzero">
<path style=" stroke:none;fill-rule:nonzero;fill:rgb(82.348633%,77.648926%,98.039246%);fill-opacity:1;" d="M 249.164062 49.382812 C 233.003906 49.0625 222.90625 36.070312 226.550781 20.070312 C 227.339844 16.640625 228.421875 13.214844 229.777344 9.984375 C 232.363281 3.847656 237.144531 0.421875 243.816406 0.421875 C 250.691406 0.445312 256.378906 3.601562 259.113281 9.835938 C 261.625 15.558594 264.925781 19.378906 270.863281 21.671875 C 276.28125 23.765625 276.824219 27.316406 276.578125 33.457031 C 276.257812 41.097656 272.511719 44.550781 265.46875 46.398438 C 260.074219 47.804688 254.753906 49.257812 249.164062 49.382812 Z M 249.164062 49.382812 "/>
</g>
<path style=" stroke:none;fill-rule:nonzero;fill:rgb(82.348633%,77.648926%,98.039246%);fill-opacity:1;" d="M 107.4375 248.75 C 97.191406 248.53125 88.324219 241.332031 84.703125 230.136719 C 80.046875 215.789062 83.570312 205.632812 95.761719 198.410156 C 98.371094 196.855469 101.15625 196.242188 103.617188 197.746094 C 108.25 200.554688 113.617188 202.453125 116.304688 207.851562 C 117.289062 209.847656 118.890625 211.453125 121.007812 212.609375 C 128.003906 216.40625 132.140625 222.027344 131.058594 230.359375 C 129.851562 239.800781 123.667969 244.90625 115.097656 247.519531 C 112.484375 248.308594 109.652344 248.40625 107.4375 248.75 Z M 107.4375 248.75 "/>
<path style=" stroke:none;fill-rule:nonzero;fill:rgb(82.348633%,77.648926%,98.039246%);fill-opacity:1;" d="M 67.558594 317.632812 C 67.1875 301.683594 83.496094 289.578125 96.574219 296.703125 C 104.039062 300.769531 108.347656 308.855469 115.171875 314.207031 C 118.914062 317.140625 118.027344 323.648438 115.316406 328.382812 C 111.96875 334.222656 107.410156 338.515625 100.785156 340.855469 C 95.464844 342.730469 89.921875 342.457031 84.53125 343.421875 C 80.882812 344.0625 76.820312 341.917969 74.257812 338.21875 C 70.835938 333.238281 67.707031 324.140625 67.558594 317.632812 Z M 89.085938 327.097656 C 93.839844 325.867188 96.082031 323.15625 97.878906 319.851562 C 98.496094 318.71875 98.816406 317.4375 97.511719 316.597656 C 96.378906 315.882812 95.097656 316.054688 94.0625 316.917969 C 91.328125 319.261719 89.675781 322.195312 89.085938 327.097656 Z M 89.085938 327.097656 "/>
<path style=" stroke:none;fill-rule:nonzero;fill:rgb(82.348633%,77.648926%,98.039246%);fill-opacity:1;" d="M 268.277344 369.355469 C 255.023438 369.476562 243.175781 360.40625 239.878906 347.710938 C 238.546875 342.605469 239.433594 338.242188 243.84375 334.914062 C 245.445312 333.707031 247.363281 332.597656 248.375 330.996094 C 251.15625 326.558594 255.269531 326.015625 259.976562 325.375 C 268.152344 324.289062 274.335938 326.039062 277.785156 334.152344 C 279.066406 337.132812 281.898438 338.441406 284.679688 339.722656 C 288.917969 341.667969 290.394531 344.949219 289.804688 349.535156 C 288.5 359.714844 282.242188 369.28125 268.277344 369.355469 Z M 268.277344 369.355469 "/>
<path style=" stroke:none;fill-rule:nonzero;fill:rgb(82.348633%,77.648926%,98.039246%);fill-opacity:1;" d="M 253.105469 196.585938 C 245.296875 197.425781 240.171875 193.503906 236.132812 186.871094 C 228.472656 174.273438 232.957031 154.847656 245.394531 148.09375 C 251.796875 144.617188 256.578125 145.132812 260.691406 150.929688 C 264.359375 156.105469 269.039062 160.171875 273.597656 164.386719 C 278.5 168.925781 279.410156 174.25 277.242188 180.289062 C 273.277344 191.1875 266.207031 195.96875 253.105469 196.585938 Z M 258.867188 171.734375 C 255.46875 175.015625 253.671875 177.875 253.546875 182.089844 C 260 179.527344 260.246094 179.082031 258.867188 171.734375 Z M 258.867188 171.734375 "/>
<path style=" stroke:none;fill-rule:nonzero;fill:rgb(82.348633%,77.648926%,98.039246%);fill-opacity:1;" d="M 251.503906 285.855469 C 247.957031 285.65625 244.3125 285.707031 241.503906 283.042969 C 230.789062 272.886719 225.761719 261.128906 232.734375 247.125 C 239.335938 233.835938 253.398438 234.96875 260.246094 244.4375 C 261.578125 246.261719 263.078125 247.988281 264.582031 249.664062 C 265.46875 250.625 266.527344 251.613281 265.566406 252.894531 C 262.757812 256.617188 265.445312 257.453125 268.226562 258.6875 C 278.964844 263.421875 279.925781 272.664062 270.714844 280.183594 C 265 284.867188 258.226562 285.140625 251.503906 285.855469 Z M 251.503906 285.855469 "/>
<g clip-path="url(#clip3)" clip-rule="nonzero">
<path style=" stroke:none;fill-rule:nonzero;fill:rgb(82.348633%,77.648926%,98.039246%);fill-opacity:1;" d="M 423.425781 221.4375 C 410.421875 220.941406 404.363281 214.78125 401.53125 200.726562 C 399.707031 191.65625 404.832031 182.804688 413.671875 178.835938 C 423.699219 174.347656 432.21875 176.691406 438.230469 185.886719 C 439.734375 188.179688 441.605469 189.460938 443.894531 190.546875 C 448.675781 192.8125 450.199219 196.636719 449.3125 201.761719 C 448.527344 206.398438 446.753906 210.539062 443.179688 213.570312 C 437 218.871094 429.414062 220.5 423.425781 221.4375 Z M 423.425781 221.4375 "/>
</g>
<path style=" stroke:none;fill-rule:nonzero;fill:rgb(82.348633%,77.648926%,98.039246%);fill-opacity:1;" d="M 98.839844 138.945312 C 98.9375 128 106.378906 119.691406 116.058594 119.074219 C 120 118.828125 123.472656 120.433594 126.03125 123.5625 C 130.144531 128.566406 134.433594 133.175781 139.726562 137.195312 C 147.980469 143.484375 146.527344 154.453125 137.660156 160.023438 C 134.210938 162.195312 130.589844 163.871094 126.402344 164.117188 C 124.480469 164.242188 122.683594 164.488281 120.910156 166.015625 C 116.132812 170.15625 111.894531 169.761719 108.273438 164.585938 C 102.730469 156.671875 99.160156 147.820312 98.839844 138.945312 Z M 98.839844 138.945312 "/>
<path style=" stroke:none;fill-rule:nonzero;fill:rgb(82.348633%,77.648926%,98.039246%);fill-opacity:1;" d="M 319.433594 93.386719 C 316.875 96.886719 312.882812 94.867188 310.027344 96.667969 C 309.855469 99.847656 312.636719 99.894531 314.484375 100.882812 C 321.847656 104.851562 323.574219 110.421875 319.753906 117.894531 C 314.140625 128.914062 299.558594 132.4375 289.335938 125.265625 C 277.464844 116.957031 274.386719 104.136719 281.234375 91.613281 C 286.675781 81.628906 296.625 78.496094 306.945312 83.328125 C 311.847656 85.597656 315.9375 88.703125 319.433594 93.386719 Z M 319.433594 93.386719 "/>
<path style=" stroke:none;fill-rule:nonzero;fill:rgb(82.348633%,77.648926%,98.039246%);fill-opacity:1;" d="M 190.195312 217.613281 C 177.460938 216.851562 164.015625 207.554688 168.621094 191.628906 C 170.664062 184.53125 172.90625 177.628906 178.792969 172.648438 C 184.800781 167.570312 193.914062 167.914062 199.261719 173.585938 C 200.566406 174.988281 202.316406 176.617188 201.183594 178.882812 C 199.507812 182.210938 201.28125 183.273438 204.0625 184.308594 C 209.949219 186.503906 213.003906 190.59375 211.96875 196.214844 C 211.035156 201.269531 209.484375 206.175781 205.910156 210.488281 C 201.550781 215.742188 195.886719 216.777344 190.195312 217.613281 Z M 190.195312 217.613281 "/>
<path style=" stroke:none;fill-rule:nonzero;fill:rgb(82.348633%,77.648926%,98.039246%);fill-opacity:1;" d="M 105.023438 72.902344 C 92.410156 73.246094 84.703125 66.539062 82.683594 53.917969 C 81.402344 45.832031 84.53125 33.972656 95.910156 30.273438 C 102.089844 28.277344 106.671875 29.386719 109.605469 34.539062 C 112.90625 40.332031 117.214844 44.550781 123.25 47.953125 C 131.894531 52.859375 131.132812 62.570312 122.730469 68.09375 C 116.992188 71.867188 110.492188 72.359375 105.023438 72.902344 Z M 105.023438 72.902344 "/>
<path style=" stroke:none;fill-rule:nonzero;fill:rgb(82.348633%,77.648926%,98.039246%);fill-opacity:1;" d="M 150.515625 267.5625 C 150.714844 258.019531 153.691406 254.152344 163.054688 251.488281 C 165.761719 250.722656 168.152344 249.417969 170.566406 248.035156 C 176.15625 244.882812 179.753906 245.496094 182.414062 250.996094 C 185.171875 256.691406 188.570312 260.957031 194.828125 263.199219 C 199.433594 264.851562 199.828125 267.808594 197.316406 272.320312 C 190.789062 284.105469 180.542969 289.207031 167.363281 288.640625 C 159.011719 288.296875 150.320312 277.25 150.515625 267.5625 Z M 150.515625 267.5625 "/>
<g clip-path="url(#clip4)" clip-rule="nonzero">
<path style=" stroke:none;fill-rule:nonzero;fill:rgb(82.348633%,77.648926%,98.039246%);fill-opacity:1;" d="M 25.539062 267.5625 C 11.425781 267.464844 3.714844 261.472656 0.808594 248.652344 C -0.964844 240.839844 3.765625 233.023438 11.253906 233.789062 C 14.355469 234.109375 17.089844 233.144531 19.921875 231.839844 C 24.207031 229.867188 28.394531 230.925781 31.300781 234.601562 C 34.847656 239.085938 37.953125 243.476562 43.765625 245.964844 C 49.332031 248.355469 47.804688 258.414062 41.722656 262.605469 C 36.597656 266.132812 30.882812 267.90625 25.539062 267.5625 Z M 25.539062 267.5625 "/>
</g>
<path style=" stroke:none;fill-rule:nonzero;fill:rgb(82.348633%,77.648926%,98.039246%);fill-opacity:1;" d="M 362.144531 163.277344 C 348.992188 163.402344 340.617188 151.863281 344.386719 140.203125 C 346.160156 134.679688 348.574219 129.109375 354.730469 127.015625 C 360.421875 125.066406 365.101562 127.136719 368.871094 131.550781 C 370.496094 133.472656 371.949219 135.398438 374.238281 136.753906 C 381.285156 140.917969 382.910156 145.652344 378.523438 152.40625 C 374.535156 158.519531 369.535156 164.242188 362.144531 163.277344 Z M 362.144531 163.277344 "/>
<path style=" stroke:none;fill-rule:nonzero;fill:rgb(82.348633%,77.648926%,98.039246%);fill-opacity:1;" d="M 38.371094 177.949219 C 30.414062 180.019531 26.179688 174.71875 22.925781 168.332031 C 19.726562 162.046875 22.535156 156.574219 26.277344 151.59375 C 29.207031 147.671875 33.101562 144.988281 38 143.878906 C 43.9375 142.519531 48.027344 144.296875 49.800781 150.015625 C 50.539062 152.382812 51.253906 153.960938 53.421875 155.21875 C 61.523438 159.851562 61.769531 168.652344 53.960938 174.25 C 49.480469 177.453125 44.382812 178.5625 38.371094 177.949219 Z M 38.371094 177.949219 "/>
</g>
</svg>
