<svg width="32" height="32" viewBox="0 0 16 16" fill="none" xmlns="http://www.w3.org/2000/svg">
<g clip-path="url(#clip0)">
<path d="M13.3127 13.5959H3.69021C3.50792 13.5959 3.3331 13.6699 3.2042 13.8016C3.0753 13.9332 3.00289 14.1118 3.00289 14.298C3.00289 14.4842 3.0753 14.6627 3.2042 14.7944C3.3331 14.926 3.50792 15 3.69021 15H13.3127C13.495 15 13.6698 14.926 13.7987 14.7944C13.9276 14.6627 14 14.4842 14 14.298C14 14.1118 13.9276 13.9332 13.7987 13.8016C13.6698 13.6699 13.495 13.5959 13.3127 13.5959ZM3.69021 12.1919H3.75207L6.61819 11.9251C6.93215 11.8932 7.2258 11.7519 7.44985 11.525L13.6357 5.20672C13.8758 4.94765 14.0056 4.60193 13.9965 4.24532C13.9875 3.88871 13.8405 3.55029 13.5876 3.30422L11.7044 1.38067C11.4586 1.14485 11.1365 1.00955 10.7994 1.00049C10.4623 0.991425 10.1337 1.10924 9.87608 1.33153L3.69021 7.64977C3.46804 7.87861 3.32971 8.17854 3.29844 8.49923L3.00289 11.4267C2.99363 11.5295 3.00669 11.6332 3.04115 11.7302C3.0756 11.8273 3.13059 11.9154 3.20221 11.9883C3.26643 12.0534 3.3426 12.1048 3.42634 12.1398C3.51008 12.1747 3.59975 12.1924 3.69021 12.1919ZM10.749 2.36351L12.6254 4.28004L11.2507 5.64899L9.40871 3.76756L10.749 2.36351ZM4.63184 8.61857L8.50144 4.69424L10.3572 6.58971L6.50822 10.5211L4.44626 10.7176L4.63184 8.61857Z" fill="white"/>
</g>
<defs>
<clipPath id="clip0">
<rect width="16" height="16" fill="white"/>
</clipPath>
</defs>
</svg>
