<?xml version="1.0" encoding="UTF-8"?>
<svg xmlns="http://www.w3.org/2000/svg" xmlns:xlink="http://www.w3.org/1999/xlink" width="375pt" height="374.999991pt" viewBox="0 0 375 374.999991" version="1.2">
<defs>
<clipPath id="clip1">
  <path d="M 0 2.8125 L 375 2.8125 L 375 372.5625 L 0 372.5625 Z M 0 2.8125 "/>
</clipPath>
</defs>
<g id="surface1">
<g clip-path="url(#clip1)" clip-rule="nonzero">
<path style=" stroke:none;fill-rule:nonzero;fill:#e0d7fc;fill-opacity:0.9;" d="M 316.503906 372.566406 C 313.105469 372.566406 309.660156 372.460938 306.265625 372.257812 C 305.605469 372.21875 305.105469 371.652344 305.144531 370.996094 C 305.183594 370.339844 305.765625 369.839844 306.40625 369.878906 C 310.25 370.109375 314.175781 370.210938 317.972656 370.175781 C 317.976562 370.175781 317.984375 370.175781 317.984375 370.175781 C 318.636719 370.175781 319.171875 370.703125 319.175781 371.355469 C 319.183594 372.015625 318.652344 372.554688 317.996094 372.5625 C 317.5 372.566406 317.003906 372.566406 316.503906 372.566406 Z M 327.507812 372.203125 C 326.886719 372.203125 326.359375 371.71875 326.320312 371.089844 C 326.277344 370.433594 326.773438 369.867188 327.429688 369.820312 C 331.277344 369.566406 335.148438 369.171875 338.941406 368.644531 C 339.601562 368.5625 340.195312 369.011719 340.285156 369.664062 C 340.375 370.316406 339.921875 370.917969 339.269531 371.011719 C 335.421875 371.542969 331.492188 371.945312 327.585938 372.203125 C 327.5625 372.203125 327.535156 372.203125 327.507812 372.203125 Z M 296.84375 371.421875 C 296.796875 371.421875 296.75 371.417969 296.703125 371.410156 C 292.847656 370.960938 288.945312 370.375 285.101562 369.660156 C 284.453125 369.542969 284.027344 368.917969 284.144531 368.273438 C 284.261719 367.625 284.886719 367.199219 285.53125 367.316406 C 289.324219 368.019531 293.175781 368.601562 296.980469 369.042969 C 297.632812 369.121094 298.101562 369.710938 298.023438 370.363281 C 297.953125 370.972656 297.441406 371.421875 296.84375 371.421875 Z M 348.503906 369.429688 C 347.945312 369.429688 347.449219 369.039062 347.335938 368.472656 C 347.207031 367.824219 347.625 367.195312 348.269531 367.066406 C 352.105469 366.296875 355.886719 365.382812 359.511719 364.351562 C 360.148438 364.171875 360.800781 364.539062 360.984375 365.171875 C 361.164062 365.804688 360.796875 366.464844 360.164062 366.644531 C 356.480469 367.695312 352.636719 368.625 348.738281 369.40625 C 348.660156 369.421875 348.578125 369.429688 348.503906 369.429688 Z M 276 367.695312 C 275.910156 367.695312 275.816406 367.683594 275.722656 367.664062 C 271.949219 366.753906 268.144531 365.703125 264.414062 364.542969 C 263.785156 364.347656 263.433594 363.679688 263.628906 363.050781 C 263.824219 362.421875 264.496094 362.070312 265.117188 362.265625 C 268.804688 363.410156 272.558594 364.445312 276.28125 365.34375 C 276.921875 365.5 277.3125 366.140625 277.160156 366.785156 C 277.027344 367.328125 276.539062 367.695312 276 367.695312 Z M 368.898438 363.730469 C 368.417969 363.730469 367.964844 363.4375 367.785156 362.957031 C 367.554688 362.335938 367.867188 361.652344 368.484375 361.421875 C 371.53125 360.28125 373.128906 359.515625 373.144531 359.507812 L 373.671875 360.578125 L 374.835938 360.832031 C 374.703125 361.4375 374.652344 361.660156 369.316406 363.65625 C 369.179688 363.707031 369.039062 363.730469 368.898438 363.730469 Z M 255.738281 361.539062 C 255.601562 361.539062 255.464844 361.515625 255.328125 361.464844 C 251.695312 360.128906 248.035156 358.660156 244.449219 357.09375 C 243.847656 356.828125 243.570312 356.125 243.835938 355.523438 C 244.097656 354.917969 244.800781 354.644531 245.402344 354.90625 C 248.945312 356.453125 252.5625 357.90625 256.152344 359.226562 C 256.769531 359.453125 257.085938 360.136719 256.859375 360.757812 C 256.683594 361.238281 256.226562 361.539062 255.738281 361.539062 Z M 236.289062 353.167969 C 236.113281 353.167969 235.929688 353.128906 235.761719 353.046875 C 232.300781 351.332031 228.816406 349.484375 225.40625 347.558594 C 224.832031 347.234375 224.628906 346.507812 224.953125 345.933594 C 225.277344 345.359375 226.003906 345.15625 226.578125 345.480469 C 229.953125 347.386719 233.398438 349.214844 236.820312 350.90625 C 237.40625 351.199219 237.648438 351.914062 237.359375 352.503906 C 237.148438 352.925781 236.726562 353.167969 236.289062 353.167969 Z M 217.796875 342.84375 C 217.582031 342.84375 217.367188 342.785156 217.167969 342.664062 C 213.898438 340.625 210.609375 338.457031 207.386719 336.21875 C 206.847656 335.84375 206.710938 335.097656 207.085938 334.558594 C 207.460938 334.015625 208.207031 333.882812 208.746094 334.257812 C 211.933594 336.476562 215.195312 338.621094 218.429688 340.636719 C 218.988281 340.988281 219.160156 341.722656 218.8125 342.28125 C 218.585938 342.644531 218.195312 342.84375 217.796875 342.84375 Z M 200.347656 330.839844 C 200.097656 330.839844 199.847656 330.761719 199.628906 330.601562 C 196.558594 328.285156 193.46875 325.84375 190.441406 323.339844 C 189.933594 322.921875 189.859375 322.171875 190.28125 321.660156 C 190.699219 321.15625 191.449219 321.082031 191.957031 321.503906 C 194.957031 323.980469 198.019531 326.402344 201.0625 328.691406 C 201.589844 329.089844 201.695312 329.839844 201.300781 330.363281 C 201.0625 330.675781 200.707031 330.839844 200.347656 330.839844 Z M 183.957031 317.417969 C 183.675781 317.417969 183.394531 317.316406 183.167969 317.117188 C 180.292969 314.566406 177.398438 311.898438 174.5625 309.179688 C 174.085938 308.722656 174.070312 307.96875 174.527344 307.496094 C 174.984375 307.019531 175.738281 307.003906 176.210938 307.457031 C 179.023438 310.152344 181.894531 312.804688 184.746094 315.332031 C 185.238281 315.765625 185.285156 316.523438 184.851562 317.015625 C 184.613281 317.28125 184.289062 317.417969 183.957031 317.417969 Z M 168.613281 302.808594 C 168.304688 302.808594 167.996094 302.691406 167.761719 302.453125 C 167.117188 301.796875 166.472656 301.136719 165.828125 300.464844 C 163.75 298.308594 161.71875 296.082031 159.785156 293.847656 C 159.355469 293.347656 159.410156 292.59375 159.90625 292.164062 C 160.402344 291.734375 161.15625 291.789062 161.585938 292.285156 C 163.492188 294.492188 165.496094 296.683594 167.542969 298.808594 C 168.183594 299.472656 168.824219 300.128906 169.460938 300.78125 C 169.921875 301.25 169.917969 302.003906 169.449219 302.46875 C 169.214844 302.695312 168.914062 302.808594 168.613281 302.808594 Z M 154.671875 286.859375 C 154.316406 286.859375 153.960938 286.699219 153.726562 286.390625 C 151.34375 283.273438 149.066406 280.042969 146.953125 276.789062 C 146.59375 276.234375 146.75 275.5 147.304688 275.140625 C 147.851562 274.78125 148.59375 274.9375 148.953125 275.488281 C 151.03125 278.695312 153.273438 281.875 155.617188 284.945312 C 156.019531 285.46875 155.917969 286.214844 155.394531 286.617188 C 155.179688 286.78125 154.925781 286.859375 154.671875 286.859375 Z M 143.019531 269.171875 C 142.601562 269.171875 142.195312 268.953125 141.980469 268.566406 C 140.0625 265.152344 138.261719 261.628906 136.628906 258.097656 C 136.351562 257.5 136.613281 256.789062 137.210938 256.515625 C 137.804688 256.238281 138.515625 256.5 138.789062 257.097656 C 140.398438 260.574219 142.167969 264.039062 144.054688 267.394531 C 144.378906 267.96875 144.175781 268.699219 143.601562 269.019531 C 143.417969 269.125 143.21875 269.171875 143.019531 269.171875 Z M 133.996094 250.007812 C 133.515625 250.007812 133.066406 249.71875 132.882812 249.246094 C 131.480469 245.605469 130.207031 241.863281 129.097656 238.121094 C 128.914062 237.488281 129.273438 236.824219 129.902344 236.636719 C 130.535156 236.449219 131.199219 236.8125 131.382812 237.441406 C 132.472656 241.125 133.726562 244.808594 135.105469 248.386719 C 135.34375 249.003906 135.039062 249.691406 134.421875 249.929688 C 134.28125 249.980469 134.136719 250.007812 133.996094 250.007812 Z M 203.6875 238.285156 C 200.191406 238.285156 196.601562 238.164062 193.023438 237.925781 C 192.367188 237.882812 191.871094 237.316406 191.914062 236.660156 C 191.957031 236 192.554688 235.511719 193.179688 235.546875 C 196.707031 235.78125 200.238281 235.898438 203.6875 235.898438 L 204.746094 235.894531 C 204.746094 235.894531 204.75 235.894531 204.753906 235.894531 C 205.40625 235.894531 205.941406 236.421875 205.945312 237.082031 C 205.949219 237.738281 205.417969 238.273438 204.757812 238.28125 Z M 214.265625 237.914062 C 213.644531 237.914062 213.121094 237.433594 213.078125 236.808594 C 213.03125 236.148438 213.523438 235.578125 214.179688 235.535156 C 218.050781 235.261719 221.910156 234.828125 225.65625 234.25 C 226.304688 234.148438 226.914062 234.59375 227.015625 235.246094 C 227.117188 235.898438 226.667969 236.507812 226.019531 236.605469 C 222.207031 237.195312 218.28125 237.636719 214.347656 237.914062 C 214.320312 237.914062 214.292969 237.914062 214.265625 237.914062 Z M 183.617188 237.035156 C 183.570312 237.035156 183.523438 237.03125 183.472656 237.027344 C 179.667969 236.5625 175.765625 235.960938 171.882812 235.234375 C 171.234375 235.113281 170.808594 234.492188 170.929688 233.84375 C 171.050781 233.195312 171.675781 232.777344 172.320312 232.890625 C 176.15625 233.605469 180.007812 234.199219 183.761719 234.65625 C 184.414062 234.738281 184.878906 235.332031 184.800781 235.984375 C 184.726562 236.59375 184.214844 237.035156 183.617188 237.035156 Z M 235.191406 234.835938 C 234.648438 234.835938 234.15625 234.464844 234.03125 233.910156 C 233.886719 233.265625 234.285156 232.628906 234.929688 232.480469 C 238.691406 231.625 242.433594 230.59375 246.050781 229.414062 C 246.679688 229.207031 247.347656 229.554688 247.550781 230.175781 C 247.757812 230.800781 247.414062 231.476562 246.789062 231.679688 C 243.101562 232.882812 239.289062 233.933594 235.457031 234.808594 C 235.367188 234.828125 235.277344 234.835938 235.191406 234.835938 Z M 162.78125 233.285156 C 162.6875 233.285156 162.597656 233.273438 162.503906 233.253906 C 158.769531 232.371094 154.960938 231.363281 151.175781 230.25 C 150.546875 230.066406 150.183594 229.402344 150.371094 228.773438 C 150.554688 228.140625 151.214844 227.777344 151.847656 227.964844 C 155.589844 229.0625 159.359375 230.0625 163.050781 230.933594 C 163.691406 231.082031 164.089844 231.726562 163.9375 232.367188 C 163.808594 232.914062 163.320312 233.285156 162.78125 233.285156 Z M 127.832031 229.75 C 127.289062 229.75 126.796875 229.378906 126.671875 228.824219 C 125.808594 225.023438 125.085938 221.132812 124.523438 217.265625 C 124.425781 216.617188 124.878906 216.011719 125.53125 215.914062 C 126.183594 215.8125 126.785156 216.273438 126.878906 216.925781 C 127.433594 220.730469 128.148438 224.554688 128.996094 228.296875 C 129.140625 228.9375 128.738281 229.578125 128.097656 229.722656 C 128.007812 229.742188 127.917969 229.75 127.832031 229.75 Z M 255.351562 228.441406 C 254.886719 228.441406 254.441406 228.164062 254.253906 227.703125 C 254 227.097656 254.292969 226.398438 254.898438 226.148438 C 258.453125 224.679688 261.964844 223.027344 265.335938 221.238281 C 265.917969 220.929688 266.640625 221.148438 266.945312 221.730469 C 267.253906 222.3125 267.035156 223.035156 266.453125 223.339844 C 263.011719 225.167969 259.429688 226.855469 255.8125 228.351562 C 255.660156 228.414062 255.503906 228.441406 255.351562 228.441406 Z M 142.425781 227.425781 C 142.300781 227.425781 142.171875 227.40625 142.042969 227.363281 C 138.40625 226.132812 134.703125 224.78125 131.042969 223.351562 C 130.429688 223.113281 130.125 222.417969 130.363281 221.808594 C 130.601562 221.195312 131.292969 220.890625 131.90625 221.128906 C 135.535156 222.546875 139.203125 223.882812 142.808594 225.105469 C 143.429688 225.316406 143.765625 225.992188 143.554688 226.617188 C 143.386719 227.113281 142.921875 227.425781 142.425781 227.425781 Z M 122.65625 219.8125 C 122.5 219.8125 122.339844 219.78125 122.1875 219.714844 C 118.667969 218.199219 115.085938 216.566406 111.535156 214.867188 C 110.941406 214.582031 110.6875 213.871094 110.972656 213.277344 C 111.257812 212.683594 111.96875 212.433594 112.5625 212.71875 C 116.085938 214.402344 119.640625 216.019531 123.128906 217.527344 C 123.734375 217.785156 124.015625 218.488281 123.753906 219.09375 C 123.558594 219.542969 123.121094 219.8125 122.65625 219.8125 Z M 274.121094 218.683594 C 273.726562 218.683594 273.34375 218.488281 273.117188 218.132812 C 272.761719 217.578125 272.925781 216.839844 273.480469 216.484375 C 276.714844 214.421875 279.882812 212.175781 282.890625 209.808594 C 283.40625 209.402344 284.15625 209.492188 284.5625 210.011719 C 284.96875 210.527344 284.878906 211.277344 284.359375 211.683594 C 281.292969 214.097656 278.0625 216.390625 274.761719 218.496094 C 274.5625 218.621094 274.339844 218.683594 274.121094 218.683594 Z M 103.511719 210.742188 C 103.328125 210.742188 103.144531 210.699219 102.96875 210.609375 C 99.566406 208.851562 96.097656 206.988281 92.664062 205.066406 C 92.089844 204.746094 91.886719 204.019531 92.207031 203.445312 C 92.527344 202.871094 93.25 202.664062 93.824219 202.984375 C 97.238281 204.894531 100.679688 206.746094 104.058594 208.488281 C 104.644531 208.789062 104.875 209.507812 104.574219 210.09375 C 104.359375 210.503906 103.945312 210.742188 103.511719 210.742188 Z M 124.625 208.816406 C 124.011719 208.816406 123.488281 208.34375 123.4375 207.71875 C 123.121094 203.84375 122.949219 199.894531 122.929688 195.976562 C 122.925781 195.320312 123.453125 194.78125 124.113281 194.777344 C 124.113281 194.777344 124.117188 194.777344 124.121094 194.777344 C 124.773438 194.777344 125.308594 195.308594 125.308594 195.964844 C 125.332031 199.820312 125.5 203.710938 125.8125 207.527344 C 125.867188 208.183594 125.378906 208.757812 124.722656 208.8125 C 124.691406 208.8125 124.65625 208.816406 124.625 208.816406 Z M 290.871094 205.753906 C 290.550781 205.753906 290.230469 205.621094 289.996094 205.367188 C 289.550781 204.882812 289.582031 204.128906 290.0625 203.683594 C 292.875 201.082031 295.59375 198.304688 298.136719 195.4375 C 298.574219 194.945312 299.324219 194.902344 299.820312 195.335938 C 300.308594 195.773438 300.355469 196.527344 299.917969 197.023438 C 297.320312 199.949219 294.550781 202.78125 291.679688 205.433594 C 291.453125 205.644531 291.164062 205.753906 290.871094 205.753906 Z M 85.003906 200.429688 C 84.792969 200.429688 84.578125 200.375 84.382812 200.253906 C 81.042969 198.207031 77.753906 196.035156 74.59375 193.792969 C 74.058594 193.410156 73.933594 192.664062 74.3125 192.128906 C 74.695312 191.59375 75.4375 191.464844 75.976562 191.847656 C 79.085938 194.058594 82.335938 196.203125 85.628906 198.222656 C 86.191406 198.5625 86.367188 199.296875 86.023438 199.859375 C 85.796875 200.226562 85.40625 200.429688 85.003906 200.429688 Z M 305.0625 190.042969 C 304.8125 190.042969 304.5625 189.964844 304.347656 189.804688 C 303.820312 189.410156 303.71875 188.660156 304.113281 188.136719 C 306.421875 185.070312 308.601562 181.855469 310.59375 178.585938 C 310.9375 178.023438 311.675781 177.847656 312.230469 178.1875 C 312.792969 178.53125 312.972656 179.265625 312.628906 179.828125 C 310.597656 183.160156 308.371094 186.441406 306.015625 189.570312 C 305.78125 189.878906 305.421875 190.042969 305.0625 190.042969 Z M 67.679688 188.277344 C 67.417969 188.277344 67.15625 188.191406 66.9375 188.011719 C 63.886719 185.574219 60.894531 183 58.039062 180.359375 C 57.558594 179.914062 57.527344 179.160156 57.972656 178.675781 C 58.421875 178.1875 59.171875 178.160156 59.65625 178.609375 C 62.46875 181.207031 65.417969 183.746094 68.425781 186.152344 C 68.9375 186.5625 69.023438 187.3125 68.609375 187.828125 C 68.375 188.121094 68.03125 188.277344 67.679688 188.277344 Z M 124.359375 187.628906 C 124.335938 187.628906 124.3125 187.628906 124.292969 187.628906 C 123.636719 187.589844 123.132812 187.027344 123.167969 186.371094 C 123.386719 182.484375 123.75 178.550781 124.253906 174.675781 C 124.339844 174.023438 124.9375 173.558594 125.589844 173.648438 C 126.242188 173.730469 126.703125 174.332031 126.617188 174.984375 C 126.121094 178.800781 125.761719 182.679688 125.546875 186.503906 C 125.511719 187.136719 124.988281 187.628906 124.359375 187.628906 Z M 52.046875 174.003906 C 51.734375 174.003906 51.425781 173.878906 51.191406 173.636719 C 48.492188 170.828125 45.859375 167.878906 43.371094 164.878906 C 42.949219 164.375 43.019531 163.621094 43.523438 163.199219 C 44.03125 162.78125 44.78125 162.851562 45.203125 163.355469 C 47.65625 166.3125 50.25 169.214844 52.910156 171.984375 C 53.363281 172.460938 53.351562 173.214844 52.875 173.667969 C 52.644531 173.890625 52.347656 174.003906 52.046875 174.003906 Z M 316.238281 172.058594 C 316.058594 172.058594 315.875 172.019531 315.703125 171.933594 C 315.117188 171.636719 314.878906 170.917969 315.175781 170.332031 C 316.90625 166.890625 318.472656 163.335938 319.835938 159.769531 C 320.070312 159.152344 320.761719 158.847656 321.375 159.082031 C 321.988281 159.316406 322.296875 160.003906 322.058594 160.621094 C 320.671875 164.261719 319.070312 167.890625 317.300781 171.402344 C 317.09375 171.820312 316.675781 172.058594 316.238281 172.058594 Z M 126.945312 166.613281 C 126.871094 166.613281 126.796875 166.609375 126.71875 166.59375 C 126.074219 166.46875 125.648438 165.84375 125.773438 165.199219 C 126.503906 161.375 127.382812 157.519531 128.390625 153.746094 C 128.558594 153.109375 129.210938 152.730469 129.847656 152.902344 C 130.484375 153.074219 130.863281 153.726562 130.691406 154.363281 C 129.699219 158.082031 128.832031 161.878906 128.113281 165.644531 C 128.003906 166.214844 127.503906 166.613281 126.945312 166.613281 Z M 38.417969 157.800781 C 38.050781 157.800781 37.6875 157.632812 37.457031 157.316406 C 35.15625 154.191406 32.925781 150.925781 30.832031 147.617188 C 30.480469 147.0625 30.648438 146.324219 31.203125 145.972656 C 31.757812 145.621094 32.496094 145.785156 32.847656 146.34375 C 34.910156 149.601562 37.105469 152.820312 39.375 155.902344 C 39.765625 156.433594 39.652344 157.179688 39.121094 157.570312 C 38.910156 157.726562 38.660156 157.800781 38.417969 157.800781 Z M 323.964844 152.34375 C 323.855469 152.34375 323.746094 152.328125 323.636719 152.296875 C 323.003906 152.113281 322.636719 151.453125 322.820312 150.820312 C 323.886719 147.097656 324.75 143.3125 325.382812 139.578125 C 325.496094 138.925781 326.109375 138.488281 326.761719 138.601562 C 327.410156 138.710938 327.84375 139.328125 327.734375 139.976562 C 327.082031 143.800781 326.199219 147.667969 325.113281 151.476562 C 324.960938 152 324.484375 152.34375 323.964844 152.34375 Z M 132.265625 146.117188 C 132.140625 146.117188 132.015625 146.097656 131.890625 146.054688 C 131.265625 145.847656 130.929688 145.175781 131.132812 144.550781 C 132.359375 140.84375 133.734375 137.136719 135.21875 133.535156 C 135.46875 132.929688 136.167969 132.636719 136.773438 132.890625 C 137.382812 133.140625 137.671875 133.839844 137.421875 134.445312 C 135.957031 137.996094 134.601562 141.644531 133.394531 145.296875 C 133.230469 145.800781 132.765625 146.117188 132.265625 146.117188 Z M 26.96875 139.976562 C 26.550781 139.976562 26.144531 139.757812 25.929688 139.367188 C 24.042969 135.984375 22.234375 132.472656 20.550781 128.925781 C 20.269531 128.332031 20.523438 127.621094 21.117188 127.339844 C 21.710938 127.054688 22.421875 127.308594 22.703125 127.902344 C 24.363281 131.402344 26.148438 134.867188 28.007812 138.203125 C 28.328125 138.777344 28.121094 139.503906 27.546875 139.828125 C 27.363281 139.929688 27.164062 139.976562 26.96875 139.976562 Z M 327.710938 131.503906 C 327.683594 131.503906 327.65625 131.503906 327.625 131.5 C 326.96875 131.453125 326.472656 130.882812 326.523438 130.226562 C 326.679688 128.023438 326.761719 125.804688 326.761719 123.640625 C 326.761719 121.992188 326.714844 120.339844 326.621094 118.71875 C 326.585938 118.0625 327.085938 117.496094 327.746094 117.460938 C 328.394531 117.425781 328.964844 117.925781 329 118.582031 C 329.097656 120.25 329.144531 121.949219 329.144531 123.640625 C 329.144531 125.863281 329.0625 128.136719 328.898438 130.398438 C 328.855469 131.023438 328.332031 131.503906 327.710938 131.503906 Z M 140.210938 126.492188 C 140.039062 126.492188 139.863281 126.453125 139.695312 126.375 C 139.101562 126.085938 138.855469 125.375 139.140625 124.78125 C 140.847656 121.253906 142.699219 117.761719 144.648438 114.398438 C 144.976562 113.828125 145.707031 113.632812 146.277344 113.964844 C 146.84375 114.296875 147.039062 115.023438 146.707031 115.59375 C 144.792969 118.90625 142.964844 122.347656 141.285156 125.820312 C 141.078125 126.246094 140.65625 126.492188 140.210938 126.492188 Z M 17.761719 120.890625 C 17.296875 120.890625 16.851562 120.613281 16.664062 120.152344 C 15.1875 116.585938 13.792969 112.890625 12.507812 109.171875 C 12.292969 108.550781 12.625 107.871094 13.246094 107.65625 C 13.867188 107.441406 14.546875 107.769531 14.761719 108.394531 C 16.027344 112.070312 17.410156 115.71875 18.863281 119.242188 C 19.113281 119.847656 18.828125 120.546875 18.21875 120.796875 C 18.070312 120.859375 17.914062 120.890625 17.761719 120.890625 Z M 326.722656 110.371094 C 326.15625 110.371094 325.65625 109.964844 325.554688 109.386719 C 324.878906 105.546875 323.917969 101.808594 322.699219 98.277344 C 322.484375 97.65625 322.8125 96.976562 323.433594 96.761719 C 324.054688 96.542969 324.734375 96.875 324.949219 97.496094 C 326.210938 101.148438 327.207031 105.011719 327.898438 108.972656 C 328.011719 109.621094 327.582031 110.242188 326.933594 110.355469 C 326.863281 110.367188 326.792969 110.371094 326.722656 110.371094 Z M 150.707031 108.085938 C 150.480469 108.085938 150.253906 108.023438 150.050781 107.886719 C 149.5 107.523438 149.351562 106.78125 149.71875 106.234375 C 151.894531 102.960938 154.210938 99.753906 156.605469 96.707031 C 157.011719 96.1875 157.761719 96.097656 158.277344 96.503906 C 158.796875 96.910156 158.886719 97.660156 158.480469 98.179688 C 156.125 101.179688 153.84375 104.332031 151.703125 107.554688 C 151.472656 107.898438 151.09375 108.085938 150.707031 108.085938 Z M 10.738281 100.886719 C 10.222656 100.886719 9.746094 100.546875 9.59375 100.027344 C 8.507812 96.328125 7.5 92.507812 6.597656 88.679688 C 6.445312 88.039062 6.84375 87.398438 7.484375 87.246094 C 8.121094 87.09375 8.765625 87.492188 8.917969 88.132812 C 9.808594 91.917969 10.804688 95.695312 11.882812 99.355469 C 12.066406 99.988281 11.707031 100.652344 11.074219 100.835938 C 10.960938 100.871094 10.847656 100.886719 10.738281 100.886719 Z M 163.675781 91.332031 C 163.390625 91.332031 163.105469 91.234375 162.878906 91.027344 C 162.390625 90.585938 162.351562 89.832031 162.789062 89.34375 C 165.425781 86.414062 168.195312 83.585938 171.023438 80.941406 C 171.503906 80.492188 172.257812 80.515625 172.707031 81 C 173.152344 81.480469 173.128906 82.234375 172.648438 82.683594 C 169.871094 85.28125 167.152344 88.058594 164.558594 90.9375 C 164.324219 91.203125 164.003906 91.332031 163.675781 91.332031 Z M 320.074219 90.320312 C 319.644531 90.320312 319.226562 90.085938 319.015625 89.675781 C 317.242188 86.257812 315.160156 83.03125 312.820312 80.089844 C 312.410156 79.574219 312.496094 78.824219 313.011719 78.414062 C 313.527344 78.003906 314.273438 78.089844 314.683594 78.605469 C 317.117188 81.667969 319.285156 85.019531 321.128906 88.578125 C 321.433594 89.160156 321.207031 89.878906 320.621094 90.183594 C 320.445312 90.277344 320.261719 90.320312 320.074219 90.320312 Z M 5.765625 80.269531 C 5.203125 80.269531 4.707031 79.871094 4.597656 79.300781 C 3.867188 75.5 3.222656 71.609375 2.671875 67.726562 C 2.582031 67.074219 3.035156 66.472656 3.6875 66.378906 C 4.34375 66.285156 4.941406 66.742188 5.03125 67.394531 C 5.574219 71.234375 6.214844 75.089844 6.9375 78.851562 C 7.058594 79.496094 6.636719 80.121094 5.992188 80.246094 C 5.914062 80.261719 5.839844 80.269531 5.765625 80.269531 Z M 179.03125 76.753906 C 178.683594 76.753906 178.339844 76.601562 178.101562 76.308594 C 177.691406 75.796875 177.769531 75.042969 178.28125 74.632812 C 181.359375 72.152344 184.558594 69.820312 187.789062 67.695312 C 188.339844 67.332031 189.078125 67.484375 189.4375 68.035156 C 189.800781 68.585938 189.648438 69.324219 189.097656 69.6875 C 185.929688 71.769531 182.792969 74.058594 179.777344 76.488281 C 179.558594 76.667969 179.292969 76.753906 179.03125 76.753906 Z M 307.238281 73.601562 C 306.949219 73.601562 306.664062 73.5 306.4375 73.292969 C 303.640625 70.769531 300.550781 68.5 297.25 66.542969 C 296.683594 66.207031 296.5 65.472656 296.832031 64.90625 C 297.167969 64.339844 297.902344 64.15625 298.464844 64.488281 C 301.898438 66.527344 305.117188 68.894531 308.03125 71.523438 C 308.523438 71.964844 308.5625 72.71875 308.121094 73.207031 C 307.886719 73.46875 307.5625 73.601562 307.238281 73.601562 Z M 196.601562 64.988281 C 196.179688 64.988281 195.773438 64.761719 195.554688 64.363281 C 195.242188 63.785156 195.457031 63.0625 196.035156 62.746094 C 199.5 60.859375 203.078125 59.152344 206.660156 57.675781 C 207.269531 57.425781 207.964844 57.714844 208.214844 58.324219 C 208.464844 58.933594 208.175781 59.628906 207.566406 59.878906 C 204.0625 61.324219 200.566406 62.992188 197.171875 64.839844 C 196.992188 64.941406 196.796875 64.988281 196.601562 64.988281 Z M 289.371094 62.386719 C 289.203125 62.386719 289.039062 62.351562 288.878906 62.28125 C 285.339844 60.671875 281.730469 59.238281 278.15625 58.019531 C 277.535156 57.808594 277.199219 57.128906 277.410156 56.507812 C 277.625 55.882812 278.300781 55.550781 278.921875 55.761719 C 282.570312 57.007812 286.25 58.46875 289.859375 60.105469 C 290.460938 60.378906 290.726562 61.085938 290.453125 61.683594 C 290.253906 62.125 289.824219 62.386719 289.371094 62.386719 Z M 2.699219 59.273438 C 2.097656 59.273438 1.578125 58.816406 1.515625 58.203125 C 1.121094 54.351562 0.8125 50.414062 0.59375 46.507812 C 0.558594 45.851562 1.058594 45.289062 1.714844 45.25 C 2.371094 45.21875 2.9375 45.71875 2.972656 46.375 C 3.1875 50.246094 3.496094 54.144531 3.886719 57.960938 C 3.953125 58.617188 3.476562 59.203125 2.824219 59.269531 C 2.78125 59.273438 2.742188 59.273438 2.699219 59.273438 Z M 216.070312 56.75 C 215.5625 56.75 215.09375 56.421875 214.933594 55.90625 C 214.742188 55.277344 215.09375 54.609375 215.722656 54.417969 C 219.480469 53.257812 223.332031 52.316406 227.167969 51.613281 C 227.816406 51.5 228.4375 51.921875 228.554688 52.570312 C 228.671875 53.21875 228.242188 53.839844 227.59375 53.957031 C 223.851562 54.644531 220.09375 55.566406 216.421875 56.699219 C 216.304688 56.734375 216.1875 56.75 216.070312 56.75 Z M 269.398438 55.394531 C 269.304688 55.394531 269.210938 55.386719 269.113281 55.363281 C 265.363281 54.433594 261.554688 53.710938 257.796875 53.21875 C 257.144531 53.132812 256.683594 52.53125 256.769531 51.878906 C 256.855469 51.226562 257.457031 50.769531 258.105469 50.851562 C 261.953125 51.359375 265.847656 52.097656 269.6875 53.046875 C 270.324219 53.203125 270.714844 53.851562 270.558594 54.492188 C 270.421875 55.03125 269.933594 55.394531 269.398438 55.394531 Z M 236.816406 52.71875 C 236.203125 52.71875 235.679688 52.246094 235.628906 51.625 C 235.574219 50.96875 236.058594 50.390625 236.71875 50.335938 C 240.617188 50.007812 244.597656 49.914062 248.496094 50.050781 C 249.152344 50.074219 249.667969 50.628906 249.644531 51.285156 C 249.621094 51.945312 249.101562 52.453125 248.414062 52.433594 C 244.613281 52.300781 240.722656 52.394531 236.917969 52.714844 C 236.882812 52.714844 236.847656 52.71875 236.816406 52.71875 Z M 1.425781 38.09375 C 0.777344 38.09375 0.246094 37.574219 0.234375 36.925781 C 0.203125 35.230469 0.1875 33.589844 0.1875 32 C 0.1875 29.734375 0.21875 27.445312 0.277344 25.195312 C 0.296875 24.535156 0.859375 23.996094 1.5 24.035156 C 2.160156 24.050781 2.679688 24.601562 2.660156 25.257812 C 2.597656 27.488281 2.570312 29.753906 2.570312 32 C 2.570312 33.574219 2.585938 35.203125 2.617188 36.878906 C 2.628906 37.535156 2.105469 38.082031 1.449219 38.09375 C 1.441406 38.09375 1.429688 38.09375 1.425781 38.09375 Z M 1.917969 16.890625 C 1.890625 16.890625 1.863281 16.886719 1.835938 16.886719 C 1.179688 16.839844 0.683594 16.273438 0.726562 15.617188 C 1.222656 8.292969 1.875 4.074219 1.902344 3.898438 C 2.003906 3.25 2.613281 2.796875 3.261719 2.90625 C 3.910156 3.007812 4.355469 3.617188 4.257812 4.265625 C 4.25 4.308594 3.589844 8.570312 3.105469 15.777344 C 3.0625 16.40625 2.539062 16.890625 1.917969 16.890625 Z M 1.917969 16.890625 "/>
</g>
</g>
</svg>
