<svg width="100" height="100" viewBox="0 0 100 100" fill="none" xmlns="http://www.w3.org/2000/svg">
<path opacity="0.4" d="M100 50.0241C100 77.5687 77.5579 100 50 100C22.4421 100 0 77.5687 0 50.0241C0 22.4313 22.4421 0 50 0C77.5579 0 100 22.4313 100 50.0241" fill="#003056"/>
<path d="M70 50.0243C70 51.288 69.6023 52.5565 68.8068 53.5723C68.6577 53.7716 67.9616 54.593 67.4148 55.1276L67.1165 55.4192C62.9403 59.8469 52.5497 66.5055 47.2798 68.6391C47.2798 68.6877 44.1477 69.9563 42.6562 70H42.4574C40.1705 70 38.0327 68.7412 36.9389 66.6999C36.3423 65.5772 35.7955 62.3208 35.7457 62.277C35.2983 59.356 35 54.8846 35 49.9757C35 44.8287 35.2983 40.158 35.8452 37.2904C35.8452 37.2418 36.392 34.6173 36.7401 33.7424C37.2869 32.4836 38.2812 31.4095 39.5241 30.729C40.5185 30.2479 41.5625 30 42.6562 30C43.7997 30.0535 45.9375 30.7776 46.7827 31.1179C52.3509 33.2564 62.9901 40.2552 67.0668 44.5322C67.7628 45.2126 68.5085 46.0437 68.7074 46.2333C69.5526 47.3026 70 48.6148 70 50.0243Z" fill="#003056"/>
</svg>
