<?xml version="1.0" encoding="UTF-8"?>
<svg xmlns="http://www.w3.org/2000/svg" xmlns:xlink="http://www.w3.org/1999/xlink" width="264.75pt" height="374.999991pt" viewBox="0 0 264.75 374.999991" version="1.2">
<defs>
<clipPath id="clip1">
  <path d="M 0.03125 0.191406 L 264.5 0.191406 L 264.5 298.980469 L 0.03125 298.980469 Z M 0.03125 0.191406 "/>
</clipPath>
<clipPath id="clip2">
  <path d="M 23.101562 306.53125 L 123.34375 306.53125 L 123.34375 374.820312 L 23.101562 374.820312 Z M 23.101562 306.53125 "/>
</clipPath>
</defs>
<g id="surface1">
<g clip-path="url(#clip1)" clip-rule="nonzero">
<path style=" stroke:none;fill-rule:evenodd;fill:rgb(97.24884%,81.568909%,45.878601%);fill-opacity:1;" d="M 115.414062 290.347656 C 121.300781 289.320312 127.382812 288.488281 131.867188 286.054688 C 126.878906 282.457031 124.144531 276.617188 118.277344 273.898438 C 117.09375 279.15625 116.507812 285 115.414062 290.347656 Z M 122.570312 238.148438 C 121.796875 245.441406 120.636719 256.71875 119.707031 266.035156 C 125.535156 270.21875 128.976562 276.789062 135.441406 280.335938 C 136.40625 272.242188 136.625 263.402344 139.019531 256.742188 C 133.449219 250.628906 133.152344 239.246094 122.570312 238.148438 Z M 134.722656 238.148438 C 134.816406 240.222656 138.378906 244.976562 140.449219 247.445312 C 141.753906 244.695312 141.914062 240.804688 142.59375 237.433594 C 139.660156 237.363281 136.734375 237.292969 134.722656 238.148438 Z M 176.210938 226.710938 C 175.8125 226.707031 175.398438 227.289062 176.210938 227.425781 C 189.296875 221.207031 204.207031 216.804688 213.398438 206.691406 C 212.214844 203.582031 210.46875 201.035156 207.675781 199.539062 C 199.933594 211.34375 188.882812 219.839844 176.210938 226.710938 Z M 211.96875 194.535156 C 214.363281 197.148438 216.476562 200.039062 218.402344 203.113281 C 227.851562 195.875 236.113281 187.453125 240.578125 175.230469 C 237.277344 168.757812 231.808594 164.449219 227.707031 158.785156 C 223.71875 171.960938 218.707031 184.109375 211.96875 194.535156 Z M 229.851562 150.921875 C 234.550781 156.941406 238.316406 163.90625 244.867188 168.082031 C 249.875 158.78125 251.308594 145.917969 254.878906 135.191406 C 248.519531 127.488281 240.625 121.3125 234.140625 113.738281 C 236.015625 125.96875 232.519531 139.1875 229.851562 150.921875 Z M 233.425781 105.160156 C 241.207031 112.15625 247.75 120.394531 256.3125 126.609375 C 257.617188 111.476562 254.34375 97.9375 250.589844 85.855469 C 243.4375 79.417969 235.6875 73.582031 226.273438 69.410156 C 230.570312 80.324219 234.324219 90.691406 233.425781 105.160156 Z M 219.835938 58.683594 C 226.894531 64.957031 237.507812 66.070312 244.867188 72.984375 C 234.113281 51.816406 216.59375 35.722656 194.089844 30.085938 C 205.597656 36.605469 210.160156 50.082031 219.835938 58.683594 Z M 196.234375 205.257812 C 212.796875 188.878906 226.804688 157.992188 229.132812 128.753906 C 232.632812 84.894531 217.292969 58.773438 195.519531 37.945312 C 186.847656 29.652344 174.226562 24.414062 161.90625 19.359375 C 139.601562 10.203125 117.457031 4.664062 87.523438 9.347656 C 69.054688 12.238281 42.878906 22.582031 26.015625 31.515625 C 20.671875 34.34375 10.214844 40.117188 9.566406 43.671875 C 8.984375 46.851562 13.757812 53.632812 16.003906 57.253906 C 24.3125 70.65625 33.042969 82.445312 39.601562 95.148438 C 54.90625 85.042969 76.375 77.335938 97.535156 78.703125 C 138.953125 81.382812 172.617188 123.503906 154.039062 163.789062 C 136.675781 189.464844 98.410156 200.617188 56.054688 196.679688 C 50.59375 222.683594 42.808594 248.933594 44.613281 278.191406 C 67.195312 282.039062 90.367188 284.152344 110.410156 288.914062 C 113.570312 270.257812 114.414062 248.492188 119.707031 230.285156 C 154.421875 233.617188 179.953125 221.363281 196.234375 205.257812 Z M 151.175781 241.007812 C 145.035156 256.082031 145.078125 277.339844 139.734375 293.207031 C 130.976562 293.363281 123.871094 298.8125 115.414062 298.925781 C 109.589844 299 105.105469 295.917969 97.535156 294.632812 C 88.847656 293.160156 76.578125 292.214844 66.066406 291.058594 C 57.382812 290.109375 40.960938 288.648438 37.457031 284.625 C 33.714844 280.316406 35.859375 266.441406 36.746094 259.601562 C 37.851562 251.019531 39.1875 241.539062 40.320312 235.289062 C 43.421875 218.171875 45.035156 201.828125 49.617188 188.101562 C 64.035156 188.453125 78.371094 189.332031 92.53125 188.101562 C 116.1875 186.035156 140.734375 172.90625 149.03125 157.355469 C 159.964844 136.875 141.398438 107.167969 128.289062 98.007812 C 111.570312 86.324219 78.289062 85.242188 57.484375 94.429688 C 51.789062 96.953125 43.667969 105.851562 37.457031 105.160156 C 31.042969 104.441406 20.875 80.28125 17.433594 75.128906 C 13.429688 69.125 -2.066406 53.199219 0.269531 42.238281 C 1.21875 37.777344 18.1875 26.65625 22.441406 24.363281 C 32.003906 19.207031 45 14.835938 57.484375 10.0625 C 77.75 2.3125 97.421875 -1.304688 124.714844 0.769531 C 140.664062 1.980469 152.09375 9.160156 166.910156 12.921875 C 179.34375 16.082031 190.160156 17.492188 201.242188 22.21875 C 209.4375 25.714844 218.21875 29.839844 223.410156 33.660156 C 248.390625 52.027344 270.457031 90.902344 263.464844 134.476562 C 262.4375 140.84375 259.578125 148.335938 257.742188 155.210938 C 255.925781 162.019531 253.796875 169.179688 251.304688 174.515625 C 234.925781 209.542969 199.75 236.125 151.175781 241.007812 "/>
</g>
<g clip-path="url(#clip2)" clip-rule="nonzero">
<path style=" stroke:none;fill-rule:evenodd;fill:rgb(97.24884%,81.568909%,45.878601%);fill-opacity:1;" d="M 93.960938 363.992188 C 98.445312 363.46875 101.914062 361.933594 106.117188 361.132812 C 102.472656 357.148438 99.945312 352.050781 95.390625 348.976562 C 95.53125 354.597656 93.246094 357.792969 93.960938 363.992188 Z M 113.269531 335.390625 C 114.195312 332.5 115.226562 329.71875 115.414062 326.097656 C 112.324219 326.089844 110.878906 324.4375 107.550781 324.664062 C 108.605469 329.09375 111.214844 331.960938 113.269531 335.390625 Z M 109.695312 354.695312 C 109.648438 350.359375 110.996094 347.417969 111.839844 343.972656 C 107.027344 337.820312 105.070312 328.8125 98.964844 323.949219 C 96.222656 339.40625 99.367188 349.261719 109.695312 354.695312 Z M 33.882812 318.230469 C 31.53125 330.378906 32.054688 344.515625 31.738281 358.273438 C 46.953125 363.746094 70.4375 364.128906 86.808594 366.136719 C 90.214844 353.765625 93.070312 336.179688 93.960938 323.949219 C 73.980469 322.402344 52.914062 311.847656 33.882812 318.230469 Z M 123.28125 321.089844 C 121.441406 338.074219 117.742188 353.210938 113.269531 367.566406 C 105.945312 367.773438 98.789062 373.449219 90.386719 374.714844 C 79.761719 376.316406 66.121094 373.230469 54.625 371.855469 C 42.558594 370.414062 30.199219 370.730469 23.15625 364.707031 C 23.335938 353.277344 24.820312 342.746094 25.304688 331.816406 C 25.5 327.320312 24.097656 321.542969 25.304688 316.800781 C 27.363281 308.667969 39.25 305.90625 50.332031 306.789062 C 64.734375 307.941406 83.90625 314.761719 100.398438 316.085938 C 109.664062 316.832031 117.828125 316.433594 123.28125 321.089844 "/>
</g>
</g>
</svg>
