<?xml version="1.0" encoding="UTF-8"?>
<svg xmlns="http://www.w3.org/2000/svg" xmlns:xlink="http://www.w3.org/1999/xlink" width="221.25pt" height="93.749997pt" viewBox="0 0 221.25 93.749997" version="1.2">
<defs>
<clipPath id="clip1">
  <path d="M 37 40 L 183 40 L 183 93.46875 L 37 93.46875 Z M 37 40 "/>
</clipPath>
<clipPath id="clip2">
  <path d="M 108 0.167969 L 112 0.167969 L 112 28 L 108 28 Z M 108 0.167969 "/>
</clipPath>
<clipPath id="clip3">
  <path d="M 193 77 L 220.503906 77 L 220.503906 89 L 193 89 Z M 193 77 "/>
</clipPath>
</defs>
<g id="surface1">
<g clip-path="url(#clip1)" clip-rule="nonzero">
<path style=" stroke:none;fill-rule:evenodd;fill:rgb(97.24884%,81.568909%,45.878601%);fill-opacity:1;" d="M 110.28125 40.644531 C 77.953125 40.644531 50.136719 62.363281 37.746094 93.523438 C 51.585938 65.410156 78.875 46.28125 110.28125 46.28125 C 141.6875 46.28125 168.976562 65.410156 182.816406 93.523438 C 170.425781 62.363281 142.613281 40.644531 110.28125 40.644531 Z M 110.28125 40.644531 "/>
</g>
<g clip-path="url(#clip2)" clip-rule="nonzero">
<path style=" stroke:none;fill-rule:evenodd;fill:rgb(97.24884%,81.568909%,45.878601%);fill-opacity:1;" d="M 110.28125 0.238281 C 109.363281 0.238281 108.609375 0.992188 108.609375 1.914062 L 108.609375 26.273438 C 108.609375 27.195312 109.363281 27.949219 110.28125 27.949219 C 111.203125 27.949219 111.953125 27.195312 111.953125 26.273438 L 111.953125 1.914062 C 111.953125 0.992188 111.203125 0.238281 110.28125 0.238281 Z M 110.28125 0.238281 "/>
</g>
<path style=" stroke:none;fill-rule:evenodd;fill:rgb(97.24884%,81.568909%,45.878601%);fill-opacity:1;" d="M 197.5625 40.308594 C 196.996094 39.582031 195.941406 39.449219 195.214844 40.015625 L 176.035156 54.960938 C 175.308594 55.527344 175.179688 56.585938 175.742188 57.316406 C 176.304688 58.042969 177.363281 58.175781 178.089844 57.609375 L 197.265625 42.664062 C 197.992188 42.097656 198.125 41.039062 197.5625 40.308594 Z M 197.5625 40.308594 "/>
<path style=" stroke:none;fill-rule:evenodd;fill:rgb(97.24884%,81.568909%,45.878601%);fill-opacity:1;" d="M 158.621094 10.230469 C 157.804688 9.808594 156.792969 10.136719 156.371094 10.957031 L 145.257812 32.617188 C 144.835938 33.4375 145.164062 34.453125 145.980469 34.875 C 146.796875 35.296875 147.8125 34.972656 148.230469 34.152344 L 159.34375 12.488281 C 159.765625 11.671875 159.441406 10.65625 158.621094 10.230469 Z M 158.621094 10.230469 "/>
<g clip-path="url(#clip3)" clip-rule="nonzero">
<path style=" stroke:none;fill-rule:evenodd;fill:rgb(97.24884%,81.568909%,45.878601%);fill-opacity:1;" d="M 220.257812 78.375 C 219.972656 77.496094 219.027344 77.007812 218.152344 77.292969 L 195.042969 84.792969 C 194.167969 85.074219 193.683594 86.027344 193.964844 86.902344 C 194.25 87.78125 195.195312 88.265625 196.070312 87.984375 L 219.179688 80.484375 C 220.054688 80.203125 220.539062 79.25 220.257812 78.375 Z M 220.257812 78.375 "/>
</g>
<path style=" stroke:none;fill-rule:evenodd;fill:rgb(97.24884%,81.568909%,45.878601%);fill-opacity:1;" d="M 23.003906 40.308594 C 23.566406 39.582031 24.625 39.449219 25.347656 40.015625 L 44.527344 54.960938 C 45.253906 55.527344 45.386719 56.585938 44.824219 57.316406 C 44.257812 58.042969 43.203125 58.175781 42.476562 57.609375 L 23.296875 42.664062 C 22.570312 42.097656 22.4375 41.039062 23.003906 40.308594 Z M 23.003906 40.308594 "/>
<path style=" stroke:none;fill-rule:evenodd;fill:rgb(97.24884%,81.568909%,45.878601%);fill-opacity:1;" d="M 61.941406 10.230469 C 62.757812 9.808594 63.773438 10.136719 64.191406 10.957031 L 75.304688 32.617188 C 75.726562 33.4375 75.402344 34.453125 74.582031 34.875 C 73.765625 35.296875 72.753906 34.972656 72.332031 34.152344 L 61.21875 12.488281 C 60.800781 11.671875 61.125 10.65625 61.941406 10.230469 Z M 61.941406 10.230469 "/>
<path style=" stroke:none;fill-rule:evenodd;fill:rgb(97.24884%,81.568909%,45.878601%);fill-opacity:1;" d="M 0.308594 78.375 C 0.589844 77.496094 1.539062 77.007812 2.414062 77.292969 L 25.523438 84.792969 C 26.398438 85.074219 26.878906 86.027344 26.597656 86.902344 C 26.3125 87.78125 25.367188 88.265625 24.492188 87.984375 L 1.382812 80.484375 C 0.507812 80.203125 0.0234375 79.25 0.308594 78.375 Z M 0.308594 78.375 "/>
</g>
</svg>
