<svg width="32" height="24" viewBox="0 0 32 24" fill="none" xmlns="http://www.w3.org/2000/svg">
<rect y="0.571442" width="32" height="22.8571" rx="2" fill="white"/>
<mask id="mask0_33_105" style="mask-type:alpha" maskUnits="userSpaceOnUse" x="0" y="0" width="32" height="24">
<rect y="0.571442" width="32" height="22.8571" rx="2" fill="white"/>
</mask>
<g mask="url(#mask0_33_105)">
<path fill-rule="evenodd" clip-rule="evenodd" d="M32 0.571442H0V2.09525H32V0.571442ZM32 3.61906H0V5.14287H32V3.61906ZM0 6.66668H32V8.19049H0V6.66668ZM32 9.7143H0V11.2381H32V9.7143ZM0 12.7619H32V14.2857H0V12.7619ZM32 15.8095H0V17.3333H32V15.8095ZM0 18.8572H32V20.381H0V18.8572ZM32 21.9048H0V23.4286H32V21.9048Z" fill="#D02F44"/>
<rect y="0.571442" width="13.7143" height="10.6667" fill="#46467F"/>
<g filter="url(#filter0_d_33_105)">
<path fill-rule="evenodd" clip-rule="evenodd" d="M3.04761 2.85715C3.04761 3.27794 2.7065 3.61906 2.28571 3.61906C1.86492 3.61906 1.5238 3.27794 1.5238 2.85715C1.5238 2.43636 1.86492 2.09525 2.28571 2.09525C2.7065 2.09525 3.04761 2.43636 3.04761 2.85715ZM6.09523 2.85715C6.09523 3.27794 5.75412 3.61906 5.33333 3.61906C4.91254 3.61906 4.57142 3.27794 4.57142 2.85715C4.57142 2.43636 4.91254 2.09525 5.33333 2.09525C5.75412 2.09525 6.09523 2.43636 6.09523 2.85715ZM8.38095 3.61906C8.80174 3.61906 9.14285 3.27794 9.14285 2.85715C9.14285 2.43636 8.80174 2.09525 8.38095 2.09525C7.96016 2.09525 7.61904 2.43636 7.61904 2.85715C7.61904 3.27794 7.96016 3.61906 8.38095 3.61906ZM12.1905 2.85715C12.1905 3.27794 11.8494 3.61906 11.4286 3.61906C11.0078 3.61906 10.6667 3.27794 10.6667 2.85715C10.6667 2.43636 11.0078 2.09525 11.4286 2.09525C11.8494 2.09525 12.1905 2.43636 12.1905 2.85715ZM3.80952 5.14286C4.23031 5.14286 4.57142 4.80175 4.57142 4.38096C4.57142 3.96017 4.23031 3.61906 3.80952 3.61906C3.38873 3.61906 3.04761 3.96017 3.04761 4.38096C3.04761 4.80175 3.38873 5.14286 3.80952 5.14286ZM7.61904 4.38096C7.61904 4.80175 7.27793 5.14286 6.85714 5.14286C6.43635 5.14286 6.09523 4.80175 6.09523 4.38096C6.09523 3.96017 6.43635 3.61906 6.85714 3.61906C7.27793 3.61906 7.61904 3.96017 7.61904 4.38096ZM9.90476 5.14286C10.3255 5.14286 10.6667 4.80175 10.6667 4.38096C10.6667 3.96017 10.3255 3.61906 9.90476 3.61906C9.48397 3.61906 9.14285 3.96017 9.14285 4.38096C9.14285 4.80175 9.48397 5.14286 9.90476 5.14286ZM12.1905 5.90477C12.1905 6.32556 11.8494 6.66667 11.4286 6.66667C11.0078 6.66667 10.6667 6.32556 10.6667 5.90477C10.6667 5.48398 11.0078 5.14286 11.4286 5.14286C11.8494 5.14286 12.1905 5.48398 12.1905 5.90477ZM8.38095 6.66667C8.80174 6.66667 9.14285 6.32556 9.14285 5.90477C9.14285 5.48398 8.80174 5.14286 8.38095 5.14286C7.96016 5.14286 7.61904 5.48398 7.61904 5.90477C7.61904 6.32556 7.96016 6.66667 8.38095 6.66667ZM6.09523 5.90477C6.09523 6.32556 5.75412 6.66667 5.33333 6.66667C4.91254 6.66667 4.57142 6.32556 4.57142 5.90477C4.57142 5.48398 4.91254 5.14286 5.33333 5.14286C5.75412 5.14286 6.09523 5.48398 6.09523 5.90477ZM2.28571 6.66667C2.7065 6.66667 3.04761 6.32556 3.04761 5.90477C3.04761 5.48398 2.7065 5.14286 2.28571 5.14286C1.86492 5.14286 1.5238 5.48398 1.5238 5.90477C1.5238 6.32556 1.86492 6.66667 2.28571 6.66667ZM4.57142 7.42858C4.57142 7.84937 4.23031 8.19048 3.80952 8.19048C3.38873 8.19048 3.04761 7.84937 3.04761 7.42858C3.04761 7.00779 3.38873 6.66667 3.80952 6.66667C4.23031 6.66667 4.57142 7.00779 4.57142 7.42858ZM6.85714 8.19048C7.27793 8.19048 7.61904 7.84937 7.61904 7.42858C7.61904 7.00779 7.27793 6.66667 6.85714 6.66667C6.43635 6.66667 6.09523 7.00779 6.09523 7.42858C6.09523 7.84937 6.43635 8.19048 6.85714 8.19048ZM10.6667 7.42858C10.6667 7.84937 10.3255 8.19048 9.90476 8.19048C9.48397 8.19048 9.14285 7.84937 9.14285 7.42858C9.14285 7.00779 9.48397 6.66667 9.90476 6.66667C10.3255 6.66667 10.6667 7.00779 10.6667 7.42858ZM11.4286 9.71429C11.8494 9.71429 12.1905 9.37318 12.1905 8.95239C12.1905 8.5316 11.8494 8.19048 11.4286 8.19048C11.0078 8.19048 10.6667 8.5316 10.6667 8.95239C10.6667 9.37318 11.0078 9.71429 11.4286 9.71429ZM9.14285 8.95239C9.14285 9.37318 8.80174 9.71429 8.38095 9.71429C7.96016 9.71429 7.61904 9.37318 7.61904 8.95239C7.61904 8.5316 7.96016 8.19048 8.38095 8.19048C8.80174 8.19048 9.14285 8.5316 9.14285 8.95239ZM5.33333 9.71429C5.75412 9.71429 6.09523 9.37318 6.09523 8.95239C6.09523 8.5316 5.75412 8.19048 5.33333 8.19048C4.91254 8.19048 4.57142 8.5316 4.57142 8.95239C4.57142 9.37318 4.91254 9.71429 5.33333 9.71429ZM3.04761 8.95239C3.04761 9.37318 2.7065 9.71429 2.28571 9.71429C1.86492 9.71429 1.5238 9.37318 1.5238 8.95239C1.5238 8.5316 1.86492 8.19048 2.28571 8.19048C2.7065 8.19048 3.04761 8.5316 3.04761 8.95239Z" fill="url(#paint0_linear_33_105)"/>
</g>
</g>
<defs>
<filter id="filter0_d_33_105" x="1.5238" y="2.09525" width="10.6666" height="8.61905" filterUnits="userSpaceOnUse" color-interpolation-filters="sRGB">
<feFlood flood-opacity="0" result="BackgroundImageFix"/>
<feColorMatrix in="SourceAlpha" type="matrix" values="0 0 0 0 0 0 0 0 0 0 0 0 0 0 0 0 0 0 127 0" result="hardAlpha"/>
<feOffset dy="1"/>
<feColorMatrix type="matrix" values="0 0 0 0 0 0 0 0 0 0 0 0 0 0 0 0 0 0 0.06 0"/>
<feBlend mode="normal" in2="BackgroundImageFix" result="effect1_dropShadow_33_105"/>
<feBlend mode="normal" in="SourceGraphic" in2="effect1_dropShadow_33_105" result="shape"/>
</filter>
<linearGradient id="paint0_linear_33_105" x1="1.5238" y1="2.09525" x2="1.5238" y2="9.71429" gradientUnits="userSpaceOnUse">
<stop stop-color="white"/>
<stop offset="1" stop-color="#F0F0F0"/>
</linearGradient>
</defs>
</svg>
